<svg width="300" height="300" viewBox="0 0 300 300" fill="none" xmlns="http://www.w3.org/2000/svg">
<path d="M25.516 106.401C65.667 101.125 80.8423 114.073 104.58 142.705C105.97 142.539 127.52 131.794 147.786 140.479C168.052 149.164 175.217 175.479 186.315 174.107L196.224 172.882C185.75 145.268 186.51 112.427 185.608 83.4884C171.135 85.4143 169.798 76.9686 160.02 77.9219C150.89 78.812 140.425 70.3445 140.425 70.3445C140.425 70.3445 124.389 48.9659 125.28 42.9536C126.171 36.9395 135.748 36.4959 135.748 36.4959C135.748 36.4959 140.722 25.7544 144.284 23.0849C146.563 21.3763 154.942 24.8105 162.98 24.8726C167.69 24.9078 171.585 30.3336 175.106 30.3968C187.986 30.6213 186.904 35.0656 193.653 38.2783C203.006 42.7309 213.697 79.1958 213.697 79.1958C226.88 105.567 243.304 121.959 254.687 157.854C264.531 188.903 268.939 218.432 253.796 224.221C238.653 230.014 206.134 240.257 180.747 245.158C155.359 250.058 95.8922 245.159 80.5259 233.577C74.1256 239.611 69.383 257.237 64.9135 273.538C25.7052 246.478 0.00292969 201.246 0.00292969 150.003C0.00292969 134.157 2.46681 118.889 7.02074 104.551L25.5189 106.403L25.516 106.401Z" fill="#F0C808"/>
<path d="M25.516 106.401C51.8529 102.94 67.4436 107.322 81.7534 118.827C46.7651 105.769 21.4214 114.513 21.4214 114.513L5.49731 109.65C5.97486 107.938 6.48287 106.238 7.019 104.551L25.5172 106.401H25.516V106.401V106.401ZM64.757 273.43C63.5137 272.571 62.2838 271.693 61.0679 270.796C66.567 237.02 68.8926 203.521 68.8926 203.521C82.7021 196.395 94.7695 208.947 94.7695 208.947C129.338 230.728 163.038 240.706 203.607 226.309C217.415 221.411 250.821 216.064 257.949 207.156C265.025 198.313 250.132 145.306 249.919 144.549C251.583 148.688 253.18 153.096 254.686 157.85C264.53 188.899 268.938 218.428 253.795 224.217C238.652 230.01 206.133 240.253 180.746 245.154C155.358 250.054 95.8916 245.155 80.5253 233.573C78.4352 235.545 71.0875 255.485 64.76 273.429L64.757 273.43ZM181.27 172.853C182.899 173.846 184.557 174.324 186.315 174.108L196.224 172.882C199.992 177.242 204.928 180.216 204.928 180.216C192.151 183.492 190.751 180.926 181.27 172.854V172.853Z" fill="#F0C808"/>
<path d="M181.079 53.8679C181.079 53.8679 179.573 61.7435 183.511 67.3023L173.23 69.3016C165.104 62.7543 156.597 56.657 148.029 56.8509C147.271 56.8679 146.616 56.6341 146.039 56.1437L140.28 51.2347C151.337 52.0691 148.359 42.5956 146.012 41.7383C145.506 41.5543 143.521 40.2401 139.951 38.9627C138.089 38.2953 132.503 36.994 132.497 36.9928C134.309 36.5604 135.744 36.4947 135.744 36.4947C135.744 36.4947 135.908 36.1256 136.548 34.8441C139.303 36.5469 150.107 41.7096 149.747 44.9909L148.888 52.8155C151.401 56.1337 169.537 62.681 173.261 62.4707C177.504 62.231 178.8 59.2878 178.142 57.3988C177.574 55.7634 175.507 55.3638 172.974 52.713L178.991 53.7232C179.283 52.3814 180.46 53.906 181.081 53.8726L181.079 53.8679Z" fill="#F0C808"/>
<path d="M192.077 77.4778C188.14 77.2458 189.214 81.1557 185.609 83.4872C185.809 89.9683 185.93 96.6451 186.11 103.414C188.061 89.9882 182.924 84.73 192.397 82.1108C202.839 79.2262 208.055 71.0295 202.852 58.8818C203.335 66.7439 204.798 78.226 192.077 77.4778Z" fill="#F0C808"/>
</svg>
