<svg width="300" height="300" viewBox="0 0 300 300" fill="none" xmlns="http://www.w3.org/2000/svg">
<g clip-path="url(#clip0)">
<path d="M76.5432 246.003C78.349 246.003 80.1687 245.826 81.9517 245.48C89.3613 244.042 95.7653 239.805 99.9868 233.549C104.207 227.293 105.739 219.769 104.3 212.359C103.538 208.436 101.975 204.836 99.8103 201.705L129.83 167.069C134.098 169.631 139.067 171.095 144.315 171.095C146.121 171.095 147.941 170.919 149.725 170.573C157.132 169.135 163.536 164.897 167.758 158.642C171.269 153.436 172.912 147.351 172.537 141.187L218.269 122.777C223.422 127.911 230.504 131.033 238.183 131.033C239.988 131.033 241.809 130.857 243.594 130.511C258.885 127.54 268.908 112.682 265.938 97.3926C264.959 92.3412 262.658 87.8213 259.441 84.1561L280.103 38.2964L285.774 50.9588C287.01 53.7205 289.724 55.3587 292.566 55.3587C293.581 55.3587 294.614 55.1495 295.601 54.7072C299.349 53.0283 301.028 48.6284 299.348 44.88L286.089 15.2744C285.283 13.4745 283.794 12.0684 281.951 11.3653C280.11 10.6632 278.061 10.7207 276.261 11.5269L246.661 24.7862C242.913 26.4651 241.235 30.866 242.915 34.6144C244.594 38.3639 248.995 40.0407 252.743 38.3609L266.545 32.178L246.857 75.8769C244.125 74.9943 241.223 74.5193 238.231 74.5193C236.425 74.5193 234.605 74.6958 232.82 75.0419C217.532 78.0129 207.506 92.8707 210.472 108.165C210.575 108.696 210.699 109.219 210.83 109.739L167.769 127.073C162.644 119.47 153.969 114.583 144.361 114.583C142.556 114.583 140.736 114.759 138.952 115.105C123.659 118.074 113.634 132.932 116.603 148.226C117.162 151.105 118.152 153.812 119.493 156.287L88.44 192.113C84.8136 190.426 80.7895 189.491 76.5889 189.491C74.7841 189.491 72.9654 189.666 71.1804 190.012C63.7718 191.451 57.3678 195.69 53.1473 201.945C48.9269 208.201 47.3948 215.726 48.8346 223.135C51.4099 236.386 63.0628 246.003 76.5432 246.003ZM235.658 89.6399C236.509 89.4743 237.375 89.39 238.232 89.39C244.608 89.39 250.118 93.9457 251.336 100.225C252.743 107.466 247.997 114.501 240.757 115.907C239.906 116.072 239.039 116.157 238.183 116.157C231.806 116.157 226.294 111.601 225.075 105.327C223.67 98.0838 228.418 91.0471 235.658 89.6399ZM141.788 129.705C142.638 129.54 143.505 129.456 144.361 129.456C150.737 129.456 156.248 134.011 157.467 140.288C158.149 143.797 157.424 147.36 155.425 150.322C153.427 153.283 150.396 155.29 146.888 155.97C146.037 156.136 145.17 156.219 144.314 156.219C137.937 156.219 132.424 151.663 131.204 145.389C129.8 138.146 134.547 131.112 141.788 129.705ZM65.4775 210.263C67.4756 207.302 70.5081 205.295 74.0155 204.613C74.8664 204.449 75.7311 204.365 76.5879 204.365C82.9642 204.365 88.4767 208.92 89.6974 215.195C90.3787 218.704 89.6528 222.268 87.6537 225.23C85.6555 228.191 82.624 230.198 79.1156 230.878C78.2647 231.044 77.398 231.128 76.5422 231.128C70.1669 231.128 64.6554 226.573 63.4357 220.297C62.7544 216.789 63.4803 213.225 65.4775 210.263Z" fill="#F97068"/>
<path d="M292.087 261.179H30.8491V30.8977C30.8491 26.7893 27.5202 23.4604 23.4118 23.4604C19.3044 23.4604 15.9744 26.7893 15.9744 30.8977V261.179H7.43735C3.32896 261.179 0 264.509 0 268.616C0 272.725 3.32896 276.054 7.43735 276.054H15.9744V281.69C15.9744 285.799 19.3044 289.128 23.4118 289.128C27.5202 289.128 30.8491 285.799 30.8491 281.69V276.054H292.087C296.195 276.054 299.524 272.725 299.524 268.616C299.524 264.508 296.194 261.179 292.087 261.179Z" fill="#F97068"/>
</g>
<defs>
<clipPath id="clip0">
<rect width="300" height="300" fill="white"/>
</clipPath>
</defs>
</svg>
