<svg width="300" height="300" viewBox="0 0 300 300" fill="none" xmlns="http://www.w3.org/2000/svg">
<path d="M80.0286 139.3C89.0748 139.3 97.808 142.116 105.098 147.106C112.389 142.116 121.122 139.3 130.167 139.3C130.327 139.3 130.484 139.311 130.644 139.313C127.311 136.701 124.327 133.606 121.825 130.073C116.601 122.699 113.851 113.954 113.705 105.128C105.403 102.065 98.0817 96.5506 92.845 89.1567C89.7929 84.8482 87.5761 80.1236 86.2267 75.1767C65.5548 83.0848 50.8214 103.603 50.8214 127.676C50.8214 134.668 52.0748 141.355 54.3452 147.527C61.5987 142.356 70.4602 139.3 80.0286 139.3Z" fill="#046865"/>
<path d="M130.167 154.45C119.516 154.45 110.2 160.153 105.098 168.67C99.9956 160.153 90.6787 154.45 80.0286 154.45C63.8974 154.45 50.8214 167.526 50.8214 183.657C50.8214 190.139 52.9333 196.127 56.5055 200.971C71.5974 221.434 79.7852 246.209 79.7852 271.635V290.04C79.7852 295.54 84.2442 299.999 89.7445 299.999H120.452C125.953 299.999 130.412 295.54 130.412 290.04V271.635C130.412 246.127 138.551 221.498 153.691 200.971C157.265 196.127 159.376 190.139 159.376 183.657C159.374 167.527 146.298 154.45 130.167 154.45Z" fill="#046865"/>
<path d="M247.346 29.2627L229.597 4.20347C227.656 1.46344 224.583 0 221.462 0C219.471 0 217.462 0.594869 215.714 1.83309L200.695 12.471C180.513 26.7661 156.579 34.3398 131.895 34.3398C131.122 34.3398 130.349 34.3327 129.574 34.3176C129.387 34.3146 129.199 34.3125 129.012 34.3125C123.176 34.3125 117.285 36.0568 112.161 39.6866C98.9967 49.0096 95.884 67.2394 105.208 80.4023C110.9 88.4396 119.913 92.7269 129.065 92.7269C129.811 92.7269 130.556 92.6986 131.301 92.6411C127.301 101.728 128.031 112.626 134.187 121.318C139.88 129.355 148.893 133.646 158.046 133.646C163.884 133.646 169.777 131.901 174.903 128.271C180.192 124.525 183.858 119.34 185.746 113.625C193.721 89.4819 209.207 68.4807 229.956 53.7847L244.975 43.1467C249.464 39.9663 250.525 33.751 247.346 29.2627ZM132.285 57.3165C127.75 57.3165 124.061 61.0049 124.061 65.5397C124.061 69.7239 120.671 73.1144 116.486 73.1144C112.302 73.1144 108.912 69.7239 108.912 65.5397C108.912 52.6515 119.397 42.167 132.285 42.167C136.469 42.167 139.86 45.5575 139.86 49.7418C139.86 53.9261 136.469 57.3165 132.285 57.3165Z" fill="#046865"/>
</svg>
