<svg width="169" height="195" viewBox="0 0 169 195" fill="none" xmlns="http://www.w3.org/2000/svg">
<path d="M85.6769 161.498C123.394 161.498 153.97 130.922 153.97 93.2051C153.97 55.4877 123.394 24.9117 85.6769 24.9117C47.9595 24.9117 17.3835 55.4877 17.3835 93.2051C17.3835 130.922 47.9595 161.498 85.6769 161.498Z" fill="#ED474A"/>
<path d="M104.598 88.8484V75.7812C104.6 73.2953 104.112 70.8334 103.162 68.5362C102.212 66.239 100.818 64.1515 99.0611 62.393C97.3039 60.6345 95.2175 59.2396 92.9209 58.2878C90.6244 57.3361 88.1628 56.8463 85.6769 56.8463C83.191 56.8463 80.7294 57.3361 78.4329 58.2878C76.1364 59.2396 74.0499 60.6345 72.2927 62.393C70.5355 64.1515 69.1421 66.239 68.192 68.5362C67.242 70.8334 66.7539 73.2953 66.7557 75.7812V88.8484C64.2265 88.9623 61.8385 90.0469 60.0886 91.8765C58.3386 93.7061 57.3614 96.1399 57.3601 98.6717V129.551H113.994V98.6717C113.992 96.1399 113.015 93.7061 111.265 91.8765C109.515 90.0469 107.127 88.9623 104.598 88.8484V88.8484ZM85.6769 63.522C88.927 63.5258 92.0429 64.8186 94.341 67.1169C96.6391 69.4151 97.9318 72.5311 97.9354 75.7812V88.8257H73.4185V75.7812C73.4221 72.5311 74.7147 69.4151 77.0128 67.1169C79.3109 64.8186 82.4268 63.5258 85.6769 63.522Z" fill="white"/>
<path d="M90.7676 104.098C90.7679 103.22 90.5412 102.357 90.1096 101.593C89.678 100.828 89.0561 100.189 88.3043 99.7357C87.5525 99.2827 86.6964 99.0318 85.819 99.0073C84.9416 98.9828 84.0728 99.1856 83.2969 99.5959C82.521 100.006 81.8644 100.61 81.3909 101.349C80.9173 102.088 80.6428 102.937 80.5942 103.814C80.5455 104.69 80.7242 105.564 81.113 106.351C81.5018 107.138 82.0876 107.811 82.8132 108.305V119.37H88.5398V108.305C89.2263 107.838 89.7882 107.211 90.1765 106.478C90.5648 105.745 90.7678 104.927 90.7676 104.098V104.098Z" fill="#ED474A"/>
</svg>
