<svg xmlns="http://www.w3.org/2000/svg" viewBox="0 0 130 130"><defs><style>.cls-1,.cls-5{fill:#fec16e;}.cls-2{fill:#474747;}.cls-2,.cls-3,.cls-5{stroke:#000;stroke-linecap:round;stroke-linejoin:round;stroke-width:0.25px;}.cls-3,.cls-4{fill:#dadfef;}.cls-4{font-size:6.74px;font-family:MyriadPro-Regular, Myriad Pro;}</style></defs><g id="Layer_2" data-name="Layer 2"><circle class="cls-1" cx="65" cy="65" r="65"/></g><g id="Layer_1" data-name="Layer 1"><circle class="cls-2" cx="66.44" cy="66.08" r="39.88"/><circle class="cls-2" cx="66.44" cy="66.08" r="30.77"/><circle class="cls-2" cx="66.44" cy="66.08" r="20.87"/><circle class="cls-3" cx="66.44" cy="66.08" r="18.66"/><text class="cls-4" transform="translate(43.93 59.06) rotate(-68.45)">2</text><text class="cls-4" transform="translate(45.08 56.22) rotate(-62.99)">.</text><text class="cls-4" transform="matrix(0.53, -0.85, 0.85, 0.53, 45.65, 54.97)">2</text><text class="cls-4" transform="translate(47.25 52.37) rotate(-50.3)">5</text><text class="cls-4" transform="matrix(0.73, -0.69, 0.69, 0.73, 49.18, 50.03)">x</text><text class="cls-4" transform="translate(51.56 47.86) rotate(-37.41)"> </text><text class="cls-4" transform="matrix(0.85, -0.53, 0.53, 0.85, 52.42, 47.12)">B</text><text class="cls-4" transform="translate(55.33 45.28) rotate(-23.53)">o</text><text class="cls-4" transform="matrix(0.97, -0.26, 0.26, 0.97, 58.57, 43.85)">d</text><text class="cls-4" transform="matrix(0.99, -0.12, 0.12, 0.99, 62.14, 42.92)">y</text><text class="cls-4" transform="translate(65.19 42.49) rotate(3.07)">w</text><text class="cls-4" transform="translate(70.05 42.81) rotate(13.09)">e</text><text class="cls-4" transform="translate(73.41 43.65) rotate(19.38)">i</text><text class="cls-4" transform="matrix(0.89, 0.45, -0.45, 0.89, 75.07, 44.14)">g</text><text class="cls-4" transform="matrix(0.82, 0.57, -0.57, 0.82, 78.25, 45.72)">h</text><text class="cls-4" transform="translate(81.23 47.83) rotate(41.85)">t</text><text class="cls-4" transform="translate(82.81 49.26) rotate(46.1)"> </text><text class="cls-4" transform="translate(83.66 50.04) rotate(51.81)">d</text><text class="cls-4" transform="matrix(0.53, 0.85, -0.85, 0.53, 85.9, 52.98)">i</text><text class="cls-4" transform="matrix(0.42, 0.91, -0.91, 0.42, 86.85, 54.39)">p</text><text class="cls-4" transform="translate(88.39 57.77) rotate(72.62)">s</text><text class="cls-4" transform="translate(89.09 72.26) rotate(109.57)">2</text><text class="cls-4" transform="translate(88.04 75.14) rotate(114.53)">.</text><text class="cls-4" transform="matrix(-0.51, 0.86, -0.86, -0.51, 87.51, 76.41)">2</text><text class="cls-4" transform="translate(85.98 79.07) rotate(127.95)">5</text><text class="cls-4" transform="translate(84.14 81.45) rotate(134.93)">x</text><text class="cls-4" transform="translate(81.81 83.72) rotate(140.79)"> </text><text class="cls-4" transform="translate(80.99 84.47) rotate(146.18)">B</text><text class="cls-4" transform="translate(78.15 86.4) rotate(154.55)">o</text><text class="cls-4" transform="translate(74.95 87.94) rotate(163.31)">d</text><text class="cls-4" transform="translate(71.4 88.99) rotate(171.58)">y</text><text class="cls-4" transform="translate(68.37 89.52) rotate(-178.68)">w</text><text class="cls-4" transform="translate(63.52 89.35) rotate(-168.77)">e</text><text class="cls-4" transform="translate(60.09 88.61) rotate(-162.52)">i</text><text class="cls-4" transform="matrix(-0.91, -0.41, 0.41, -0.91, 58.46, 88.16)">g</text><text class="cls-4" transform="matrix(-0.84, -0.54, 0.54, -0.84, 55.22, 86.71)">h</text><text class="cls-4" transform="translate(52.17 84.69) rotate(-139.94)">t</text><text class="cls-4" transform="translate(50.57 83.33) rotate(-135.76)"> </text><text class="cls-4" transform="translate(49.69 82.58) rotate(-130.07)">d</text><text class="cls-4" transform="matrix(-0.56, -0.83, 0.83, -0.56, 47.34, 79.69)">i</text><text class="cls-4" transform="translate(46.35 78.32) rotate(-116.9)">p</text><text class="cls-4" transform="translate(44.69 74.99) rotate(-109.27)">s</text><path class="cls-5" d="M71,77.09s.4-6,2.63-7.08,5.66-3.27,6.15-4,.09-3.52-.29-5.68-.57-2.46-1.24-2.92-1.85.54-2.2.89,1.39,1.61,1.39,1.61v4.25a3.69,3.69,0,0,0-3.23,1.68,2.94,2.94,0,0,0-3.1.75c-.81-.9-2.74-.45-2.74-.45a4.8,4.8,0,0,1,0-2.5H64.55a5,5,0,0,1,0,2.5s-1.94-.45-2.75.45a2.94,2.94,0,0,0-3.1-.75,3.69,3.69,0,0,0-3.23-1.68V59.92s1.73-1.26,1.39-1.61-1.54-1.36-2.2-.89-.87.75-1.24,2.92-.78,5-.29,5.68,3.93,2.86,6.15,4,2.63,7.08,2.63,7.08Z"/><path class="cls-5" d="M66.44,65.47a2.42,2.42,0,0,0,1.81-.78,4.71,4.71,0,0,0,1.21-3.59,3,3,0,0,0-6,0,4.71,4.71,0,0,0,1.21,3.59,2.42,2.42,0,0,0,1.81.78Z"/></g></svg>