<svg xmlns="http://www.w3.org/2000/svg" viewBox="0 0 130 130"><defs><style>.cls-1{fill:#ff7f35;}.cls-2{fill:#474747;}.cls-2,.cls-3,.cls-5{stroke:#000;stroke-linecap:round;stroke-linejoin:round;stroke-width:0.25px;}.cls-3,.cls-4{fill:#dadfef;}.cls-4{font-size:6.74px;font-family:MyriadPro-Regular, Myriad Pro;}.cls-5{fill:#fec16e;}</style></defs><g id="Layer_2" data-name="Layer 2"><circle class="cls-1" cx="65" cy="65" r="65"/></g><g id="Layer_1" data-name="Layer 1"><circle class="cls-2" cx="65" cy="65" r="39.88"/><circle class="cls-2" cx="65" cy="65" r="30.77"/><circle class="cls-2" cx="65" cy="65" r="20.87"/><circle class="cls-3" cx="65" cy="65" r="18.66"/><text class="cls-4" transform="matrix(0.36, -0.93, 0.93, 0.36, 42.51, 58.01)">2</text><text class="cls-4" transform="translate(43.69 54.93) rotate(-60.07)">X</text><text class="cls-4" transform="matrix(0.59, -0.81, 0.81, 0.59, 45.58, 51.75)"> </text><text class="cls-4" transform="translate(46.31 50.65) rotate(-47.99)">B</text><text class="cls-4" transform="matrix(0.77, -0.63, 0.63, 0.77, 48.66, 48.02)">o</text><text class="cls-4" transform="translate(51.37 45.78) rotate(-30.7)">d</text><text class="cls-4" transform="translate(54.49 43.94) rotate(-22.68)">y</text><text class="cls-4" transform="translate(57.3 42.67) rotate(-13.02)">w</text><text class="cls-4" transform="translate(61.88 41.66) rotate(-3.47)">e</text><text class="cls-4" transform="translate(65.13 41.5) rotate(2.32)">i</text><text class="cls-4" transform="translate(66.57 41.49) rotate(8.52)">g</text><text class="cls-4" transform="translate(70.14 42.02) rotate(17.18)">h</text><text class="cls-4" transform="translate(73.54 43.11) rotate(24.01)">t</text><text class="cls-4" transform="translate(75.5 43.99) rotate(28.32)"> </text><text class="cls-4" transform="translate(76.69 44.56) rotate(34.19)">P</text><text class="cls-4" transform="translate(79.43 46.4) rotate(42.44)">u</text><text class="cls-4" transform="matrix(0.66, 0.75, -0.75, 0.66, 82.04, 48.85)">l</text><text class="cls-4" transform="matrix(0.61, 0.79, -0.79, 0.61, 83.04, 49.99)">l</text><text class="cls-4" transform="translate(84 51.12) rotate(58.44)">u</text><text class="cls-4" transform="matrix(0.39, 0.92, -0.92, 0.39, 85.87, 54.12)">p</text><text class="cls-4" transform="translate(86.94 73.47) rotate(115.2)">2</text><text class="cls-4" transform="matrix(-0.55, 0.83, -0.83, -0.55, 85.57, 76.44)">X</text><text class="cls-4" transform="matrix(-0.64, 0.77, -0.77, -0.64, 83.45, 79.52)"> </text><text class="cls-4" transform="matrix(-0.72, 0.7, -0.7, -0.72, 82.67, 80.55)">B</text><text class="cls-4" transform="matrix(-0.81, 0.58, -0.58, -0.81, 80.15, 83.02)">o</text><text class="cls-4" transform="translate(77.3 85.08) rotate(153.1)">d</text><text class="cls-4" transform="translate(74.06 86.71) rotate(161.13)">y</text><text class="cls-4" transform="translate(71.18 87.78) rotate(170.76)">w</text><text class="cls-4" transform="translate(66.52 88.49) rotate(-179.63)">e</text><text class="cls-4" transform="translate(63.27 88.43) rotate(-173.85)">i</text><text class="cls-4" transform="translate(61.84 88.35) rotate(-167.66)">g</text><text class="cls-4" transform="matrix(-0.93, -0.37, 0.37, -0.93, 58.3, 87.6)">h</text><text class="cls-4" transform="translate(55 86.27) rotate(-152.18)">t</text><text class="cls-4" transform="translate(53.12 85.27) rotate(-147.95)"> </text><text class="cls-4" transform="translate(51.97 84.62) rotate(-142.06)">P</text><text class="cls-4" transform="translate(49.34 82.61) rotate(-133.78)">u</text><text class="cls-4" transform="matrix(-0.61, -0.79, 0.79, -0.61, 46.9, 79.99)">l</text><text class="cls-4" transform="matrix(-0.56, -0.83, 0.83, -0.56, 45.97, 78.79)">l</text><text class="cls-4" transform="matrix(-0.47, -0.88, 0.88, -0.47, 45.09, 77.59)">u</text><text class="cls-4" transform="translate(43.43 74.47) rotate(-109.04)">p</text><path class="cls-5" d="M69.53,76s.4-6,2.63-7.08,5.66-3.27,6.15-4,.09-3.52-.29-5.68-.57-2.46-1.24-2.92-1.85.54-2.2.89S76,58.84,76,58.84v4.25a3.69,3.69,0,0,0-3.23,1.68,2.94,2.94,0,0,0-3.1.75c-.81-.9-2.74-.45-2.74-.45a4.8,4.8,0,0,1,0-2.5H63.11a5,5,0,0,1,0,2.5s-1.94-.45-2.75.45a2.94,2.94,0,0,0-3.1-.75A3.69,3.69,0,0,0,54,63.09V58.84s1.73-1.26,1.39-1.61-1.54-1.36-2.2-.89-.87.75-1.24,2.92-.78,5-.29,5.68,3.93,2.86,6.15,4S60.47,76,60.47,76Z"/><path class="cls-5" d="M65,64.39a2.42,2.42,0,0,0,1.81-.78A4.71,4.71,0,0,0,68,60a3,3,0,0,0-6,0,4.71,4.71,0,0,0,1.21,3.59,2.42,2.42,0,0,0,1.81.78Z"/></g></svg>