<svg xmlns="http://www.w3.org/2000/svg" viewBox="0 0 130 130"><defs><style>.cls-1{fill:#6fcee0;}.cls-2{fill:#fec16e;}.cls-2,.cls-3{stroke:#000;stroke-linecap:round;stroke-linejoin:round;stroke-width:0.25px;}.cls-3{fill:#474747;}</style></defs><g id="Layer_2" data-name="Layer 2"><circle class="cls-1" cx="65" cy="65" r="65"/></g><g id="Layer_1" data-name="Layer 1"><path class="cls-2" d="M37.15,48.27a3.67,3.67,0,0,0,4.31-.78l1.18,8.09c-1.1-.09-4.72-.73-6,1.77-.51,1-1,1.88-2.08,1.82a3.57,3.57,0,0,1-2-1c-.74.28-1.69-.51-1.69-.51s-.28,1-1,1.12-1-1.23-1-1.23-.4-1-2.28-1.35a4.52,4.52,0,0,1-2.51-1.12C23.85,42.6,30.43,45.29,37.15,48.27Z"/><path class="cls-3" d="M28.16,52.05s.68-1.24,3.32-.48l.32-.65s-1.89-1.06-1.26-2.39,2.74-.29,2.74-.29,2.94,2.07,4,1.56a2.3,2.3,0,0,0,.61-.4.86.86,0,0,0,0-1.29A16.37,16.37,0,0,1,35.26,45a5.71,5.71,0,0,0-4.1-2.52s-5.64-.52-7.7,4.15a10,10,0,0,0-.05,8,.84.84,0,0,0,1.42.2,2.72,2.72,0,0,0,.54-1.23c.37-1.88,1.26-2.76,2-2.17S28.16,52.05,28.16,52.05Z"/><path class="cls-2" d="M69.46,53.07s-7,2.63-10.12,2.39c-1.48-.11-2.89,1.43-4,2a6.85,6.85,0,0,0,1.19.91c1.37.83,2.68,3,3.42,5a15.52,15.52,0,0,1,.64,5.72c0,1.16,5.77,5.43,6.27,13.22a2.82,2.82,0,0,1,0,.31c.22,2.94.22,3.91.22,3.91a2,2,0,0,1-2,2.2s-.87,2.07-1.77,2-.24-2.2-.24-2.2-2.1,2.09-3.08,1.92.21-1.69.64-2.07c-.53.36-2.6,1.85-3.83,1.79s0-1.14,1.13-1.88a6.21,6.21,0,0,1-2.6.93c-1.23,0-.87-.66-.13-1.16a31.24,31.24,0,0,1,3-1.49,18,18,0,0,1,4.51-1.36v0a7.29,7.29,0,0,0-2.07-4.56c-2.65-2.71-7.44-8-7.53-10.68,0-.18,0-.28,0-.28A21.29,21.29,0,0,1,41.94,56.28c-4.2-4.07-2.14-7.43-2.14-7.43,3.82-6.7,13-6,13-6,10.14-5.95,21.87-2.71,21.87-2.71C77,44.5,75.47,49.54,69.46,53.07Z"/><path class="cls-2" d="M52.74,54.05a9.94,9.94,0,0,1,2.57,3.42"/><path class="cls-2" d="M101.47,73.72h.08a.21.21,0,0,1,0,.06,99.81,99.81,0,0,0-16.91,3.77c-8.37,2.65-10.48,1.58-12.38.27-3.06-2.11-2.11-15.17-2.11-15.17,5.41-6.15,9.81-6.24,13.13.13a20.11,20.11,0,0,1-2.76,7.47l.3-.41s2.8-1.75,8-.66,11-.73,11-.73C101.06,70.13,101.9,71.91,101.47,73.72Z"/><path class="cls-3" d="M84.77,50.73a22.59,22.59,0,0,0-.54,6.32C84.5,60,83.17,67,83.17,67a25.22,25.22,0,0,0-14.15,3s.37-9.12.92-11.71-1-4-.56-5.24c.33-.93,2.05-1.48,2.16-10.48,0,0-.32-4.71,7.86-2.06C86.07,42.61,84.77,50.73,84.77,50.73Z"/><path class="cls-3" d="M112.57,80.72c-1.39-.63-5.2-6.8-11-7h-.08c.43-1.81-.63-3.64-1.65-5.26a3.79,3.79,0,0,0,3.4-.64c1.58-1.27,4-2.85,5.21-1.45.69.81,3.58,7.49,4.22,8.8C114.59,79.16,114,81.35,112.57,80.72Z"/></g></svg>