<svg xmlns="http://www.w3.org/2000/svg" viewBox="0 0 130 130"><defs><style>.cls-1{fill:#6fcee0;}.cls-2{fill:#fec16e;}.cls-2,.cls-3,.cls-4,.cls-5,.cls-6{stroke:#000;stroke-linecap:round;stroke-linejoin:round;stroke-width:0.25px;}.cls-3{fill:#474747;}.cls-4{fill:#ee222b;}.cls-5{fill:#ff7f35;}.cls-6{fill:#c4b098;}</style></defs><g id="Layer_2" data-name="Layer 2"><circle class="cls-1" cx="65" cy="65" r="65"/></g><g id="Layer_1" data-name="Layer 1"><path class="cls-2" d="M43.73,67.88a4.84,4.84,0,0,1-4.14-.48l-.05,0c-1.42-.89-6.88-1-11.29-.29a16.65,16.65,0,0,1-7.44-.34l-.06-.06A1.2,1.2,0,0,1,20,67l-.3,0-.16,0-.17,0-.26,0a5.08,5.08,0,0,0-.52.15l0,0a1.37,1.37,0,0,0-.2.13.17.17,0,0,0-.06.06s0,0,0,0a.31.31,0,0,0,0,.08v.11a4.2,4.2,0,0,0,.19,1.17,16.08,16.08,0,0,0,1.21,2.42c.14.28-.08-.08,0,.22,3.26.64,9.45,1.88,15.21,3.09a58.05,58.05,0,0,0,11.76,1.17L47,67C45.77,67.24,44.64,67.58,43.73,67.88Z"/><path class="cls-3" d="M68.12,65c-1-1-6.7-2.75-12.05.67-1.55,1-9.24,1.19-9.24,1.19a49.17,49.17,0,0,1-.29,5.48c-.38,5.55,1.39,8.13,1.39,8.13,2,.2,6.18-.59,8.88-1.18a20.3,20.3,0,0,1,6.5-.37C66.85,79.32,71,80,72,80Z"/><path class="cls-4" d="M20.33,67a1.34,1.34,0,0,0-.95.48,1.54,1.54,0,0,0,.16,2,11.13,11.13,0,0,0,2.18,1.76s.91.46.33.82l-.29.17a9.28,9.28,0,0,0-2.63,2.28l-.09.13a5.37,5.37,0,0,0-1,3,5.24,5.24,0,0,1-.26,1.93,2.56,2.56,0,0,1-2,.43c-.86-.55-1.14-2.22-1.59-3.91a6.62,6.62,0,0,1,.28-3.59,12.16,12.16,0,0,0,.92-3.28c0-1,.09-3.77.91-3.91,1.35-.23,3.9.77,3.9.77S21.12,66.49,20.33,67Z"/><path class="cls-2" d="M104.55,66.84l-4.7.67,1.5,4.71c1.46.13,1.56,1.61,1.54,2.63a1.87,1.87,0,0,0,1.39,2.06,3.15,3.15,0,0,0,2-.43c.58.42,1.59,0,1.59,0s0,.93.61,1.21,1.17-.83,1.17-.83.57-.76,2.3-.66a4.08,4.08,0,0,0,2.44-.39C117.42,65,111.08,65.8,104.55,66.84Z"/><path class="cls-3" d="M111.13,72.26s-.31-1.24-2.78-1.18l-.13-.65s1.89-.48,1.65-1.78-2.31-.88-2.31-.88-3,1.11-3.84.43a2.36,2.36,0,0,1-.44-.49.79.79,0,0,1,.29-1.13,14.14,14.14,0,0,0,3-2.11,5.18,5.18,0,0,1,4.15-1.25s5,.86,5.73,5.39a9,9,0,0,1-1.8,6.94.75.75,0,0,1-1.28-.15,2.47,2.47,0,0,1-.19-1.19c.12-1.72-.46-2.69-1.2-2.34S111.13,72.26,111.13,72.26Z"/><path class="cls-5" d="M101.15,69.25a10.19,10.19,0,0,0-6.81-5.15,30.43,30.43,0,0,0-9.77-.81s-12.69-.17-16.38,1.82c0,0-1,.24-1.08,8.34,0,3.5,5,6.46,5,6.46s7.16-2.54,9-2.45a12.21,12.21,0,0,1,2.67.49,12.56,12.56,0,0,0,3.81.46,13.08,13.08,0,0,0,5.84-1.23,11.24,11.24,0,0,1,4.05-1.47,4.5,4.5,0,0,0,3.3-2.3A5.32,5.32,0,0,0,101.15,69.25Z"/><path class="cls-6" d="M76,41.33c-1.16,0-2.1,2.14-2.1,4.77s.94,4.77,2.1,4.77,2.1-2.13,2.1-4.77S77.11,41.33,76,41.33Zm0,8.19c-.7,0-1.27-1.53-1.27-3.42s.57-3.42,1.27-3.42,1.27,1.54,1.27,3.42S76.65,49.52,76,49.52Z"/><path class="cls-2" d="M76.28,52.31a4.44,4.44,0,0,1,.1-2c.32-.72.82-1.75,0-1.66,0,0-.53,0-.72.82a5.77,5.77,0,0,0-1.34-.49,1,1,0,0,0-1,.86c-.07.61-.11,3,.54,3.67Z"/><path class="cls-5" d="M97.29,67.68a50.78,50.78,0,0,0-6.5-4.35,19.42,19.42,0,0,1-3.59-2.44c-1.31-1.09-3.11-2.53-4.93-3.75-2.85-1.92-5-3.43-5.75-4.65a.63.63,0,0,0-.74-.28l-1.71.57a.5.5,0,0,0-.33.55A3.77,3.77,0,0,0,74.41,55a43.58,43.58,0,0,0,3.37,3.55,57.68,57.68,0,0,0,4.54,4.72l.91.7a18.87,18.87,0,0,1,3.16,3,40.7,40.7,0,0,0,3.23,3.61c.59.5,2.15,1.59,3.57,2.55a3.5,3.5,0,0,0,4.28-.2A3.42,3.42,0,0,0,97.29,67.68Z"/><path class="cls-6" d="M76.38,35.37v6.5a.36.36,0,0,1-.36.36h0a.36.36,0,0,1-.35-.36v-6.5A.35.35,0,0,1,76,35h0A.36.36,0,0,1,76.38,35.37Z"/></g></svg>