<svg xmlns="http://www.w3.org/2000/svg" xmlns:xlink="http://www.w3.org/1999/xlink" viewBox="0 0 130 130"><defs><style>.cls-1{isolation:isolate;}.cls-2{fill:#cb70ad;}.cls-3{fill:#474747;}.cls-10,.cls-11,.cls-14,.cls-3,.cls-4,.cls-57,.cls-58,.cls-59,.cls-6,.cls-60,.cls-7{stroke:#000;stroke-linecap:round;stroke-linejoin:round;stroke-width:0.25px;}.cls-4{fill:#fff;}.cls-5{opacity:0.5;mix-blend-mode:multiply;fill:url(#linear-gradient);}.cls-6{fill:#fec16e;}.cls-7{fill:#ee222b;}.cls-8{fill:#6b6b6b;}.cls-10,.cls-57,.cls-9{fill:#191919;}.cls-11{fill:#2c3592;}.cls-12{fill:url(#linear-gradient-2);}.cls-13{fill:url(#linear-gradient-3);}.cls-14{fill:#8dc540;}.cls-15{fill:url(#linear-gradient-4);}.cls-16{fill:url(#linear-gradient-5);}.cls-17{fill:url(#linear-gradient-6);}.cls-18{fill:url(#linear-gradient-7);}.cls-19{fill:url(#linear-gradient-8);}.cls-20{fill:url(#linear-gradient-9);}.cls-21{fill:url(#linear-gradient-10);}.cls-22{fill:url(#linear-gradient-11);}.cls-23{fill:url(#linear-gradient-12);}.cls-24{fill:url(#linear-gradient-13);}.cls-25{fill:url(#linear-gradient-14);}.cls-26{fill:url(#linear-gradient-15);}.cls-27{fill:url(#linear-gradient-16);}.cls-28{fill:url(#linear-gradient-17);}.cls-29{fill:url(#linear-gradient-18);}.cls-30{fill:url(#linear-gradient-19);}.cls-31{fill:url(#linear-gradient-20);}.cls-32{fill:url(#linear-gradient-21);}.cls-33{fill:url(#linear-gradient-22);}.cls-34{fill:url(#linear-gradient-23);}.cls-35{fill:url(#linear-gradient-24);}.cls-36{fill:url(#linear-gradient-25);}.cls-37{fill:url(#linear-gradient-26);}.cls-38{fill:url(#linear-gradient-27);}.cls-39{fill:url(#linear-gradient-28);}.cls-40{fill:url(#linear-gradient-29);}.cls-41{fill:url(#linear-gradient-30);}.cls-42{fill:url(#linear-gradient-31);}.cls-43{fill:url(#linear-gradient-32);}.cls-44{fill:url(#linear-gradient-33);}.cls-45{fill:url(#linear-gradient-34);}.cls-46{fill:url(#linear-gradient-35);}.cls-47{fill:url(#linear-gradient-36);}.cls-48{fill:url(#linear-gradient-37);}.cls-49{fill:url(#linear-gradient-38);}.cls-50{fill:url(#linear-gradient-39);}.cls-51{fill:url(#linear-gradient-40);}.cls-52{fill:url(#linear-gradient-41);}.cls-53{fill:url(#linear-gradient-42);}.cls-54{fill:url(#linear-gradient-43);}.cls-55{fill:url(#linear-gradient-44);}.cls-56{fill:url(#linear-gradient-45);}.cls-57{opacity:0.7;mix-blend-mode:screen;}.cls-58{fill:#3a3a3a;}.cls-59{fill:#515151;}.cls-60{fill:#4c4c4c;}</style><linearGradient id="linear-gradient" x1="67.62" y1="62.73" x2="66" y2="64.28" gradientUnits="userSpaceOnUse"><stop offset="0" stop-color="#6b6b6b"/><stop offset="1" stop-color="#545454"/></linearGradient><linearGradient id="linear-gradient-2" x1="46.6" y1="70.77" x2="55.92" y2="79.35" xlink:href="#linear-gradient"/><linearGradient id="linear-gradient-3" x1="46.37" y1="71.02" x2="55.69" y2="79.6" xlink:href="#linear-gradient"/><linearGradient id="linear-gradient-4" x1="56.91" y1="59.62" x2="66.2" y2="68.17" xlink:href="#linear-gradient"/><linearGradient id="linear-gradient-5" x1="128.83" y1="-46.33" x2="53.84" y2="90.39" gradientUnits="userSpaceOnUse"><stop offset="0" stop-color="#f4cba7"/><stop offset="1" stop-color="#f4ad8e"/></linearGradient><linearGradient id="linear-gradient-6" x1="56.88" y1="59.84" x2="66.08" y2="68.3" xlink:href="#linear-gradient"/><linearGradient id="linear-gradient-7" x1="128.82" y1="-46.21" x2="53.9" y2="90.4" xlink:href="#linear-gradient-5"/><linearGradient id="linear-gradient-8" x1="57.15" y1="59.21" x2="66.52" y2="67.83" xlink:href="#linear-gradient"/><linearGradient id="linear-gradient-9" x1="128.72" y1="-46.25" x2="53.81" y2="90.35" xlink:href="#linear-gradient-5"/><linearGradient id="linear-gradient-10" x1="62.05" y1="58.81" x2="68.84" y2="65.06" xlink:href="#linear-gradient"/><linearGradient id="linear-gradient-11" x1="129.15" y1="-45.8" x2="54.35" y2="90.59" xlink:href="#linear-gradient-5"/><linearGradient id="linear-gradient-12" x1="57.34" y1="59.04" x2="66.69" y2="67.64" xlink:href="#linear-gradient"/><linearGradient id="linear-gradient-13" x1="128.59" y1="-46.02" x2="53.83" y2="90.29" xlink:href="#linear-gradient-5"/><linearGradient id="linear-gradient-14" x1="57.52" y1="58.66" x2="66.96" y2="67.35" xlink:href="#linear-gradient"/><linearGradient id="linear-gradient-15" x1="128.71" y1="-46.2" x2="53.82" y2="90.34" xlink:href="#linear-gradient-5"/><linearGradient id="linear-gradient-16" x1="57" y1="59.39" x2="66.36" y2="68" xlink:href="#linear-gradient"/><linearGradient id="linear-gradient-17" x1="128.7" y1="-46.17" x2="53.83" y2="90.34" xlink:href="#linear-gradient-5"/><linearGradient id="linear-gradient-18" x1="58.49" y1="57.73" x2="67.87" y2="66.36" xlink:href="#linear-gradient"/><linearGradient id="linear-gradient-19" x1="128.94" y1="-46.16" x2="54.01" y2="90.46" xlink:href="#linear-gradient-5"/><linearGradient id="linear-gradient-20" x1="55.9" y1="60.7" x2="65.2" y2="69.26" xlink:href="#linear-gradient"/><linearGradient id="linear-gradient-21" x1="73.25" y1="60.09" x2="61.16" y2="82.12" xlink:href="#linear-gradient-5"/><linearGradient id="linear-gradient-22" x1="56.02" y1="60.47" x2="65.37" y2="69.06" xlink:href="#linear-gradient"/><linearGradient id="linear-gradient-23" x1="131.71" y1="-45.13" x2="56.54" y2="91.93" xlink:href="#linear-gradient-5"/><linearGradient id="linear-gradient-24" x1="55.86" y1="60.73" x2="65.17" y2="69.3" xlink:href="#linear-gradient"/><linearGradient id="linear-gradient-25" x1="129.89" y1="-43.86" x2="55.84" y2="91.15" xlink:href="#linear-gradient-5"/><linearGradient id="linear-gradient-26" x1="55.81" y1="60.65" x2="65.18" y2="69.27" xlink:href="#linear-gradient"/><linearGradient id="linear-gradient-27" x1="130.11" y1="-45.42" x2="55.23" y2="91.11" xlink:href="#linear-gradient-5"/><linearGradient id="linear-gradient-28" x1="55.85" y1="60.73" x2="65.16" y2="69.3" xlink:href="#linear-gradient"/><linearGradient id="linear-gradient-29" x1="130.25" y1="-45.09" x2="55.49" y2="91.21" xlink:href="#linear-gradient-5"/><linearGradient id="linear-gradient-30" x1="55.94" y1="60.61" x2="65.26" y2="69.19" xlink:href="#linear-gradient"/><linearGradient id="linear-gradient-31" x1="131.36" y1="-45.25" x2="56.22" y2="91.75" xlink:href="#linear-gradient-5"/><linearGradient id="linear-gradient-32" x1="56.03" y1="60.6" x2="65.31" y2="69.14" xlink:href="#linear-gradient"/><linearGradient id="linear-gradient-33" x1="129.91" y1="-46.09" x2="54.75" y2="90.95" xlink:href="#linear-gradient-5"/><linearGradient id="linear-gradient-34" x1="56.22" y1="60.33" x2="65.53" y2="68.9" xlink:href="#linear-gradient"/><linearGradient id="linear-gradient-35" x1="129.14" y1="-45.6" x2="54.44" y2="90.61" xlink:href="#linear-gradient-5"/><linearGradient id="linear-gradient-36" x1="56.35" y1="60.19" x2="65.66" y2="68.76" xlink:href="#linear-gradient"/><linearGradient id="linear-gradient-37" x1="129.26" y1="-46.2" x2="54.23" y2="90.62" xlink:href="#linear-gradient-5"/><linearGradient id="linear-gradient-38" x1="56.52" y1="60" x2="65.83" y2="68.57" xlink:href="#linear-gradient"/><linearGradient id="linear-gradient-39" x1="128.86" y1="-45.87" x2="54.09" y2="90.44" xlink:href="#linear-gradient-5"/><linearGradient id="linear-gradient-40" x1="56.64" y1="59.87" x2="65.95" y2="68.44" xlink:href="#linear-gradient"/><linearGradient id="linear-gradient-41" x1="129.11" y1="-46.57" x2="53.93" y2="90.51" xlink:href="#linear-gradient-5"/><linearGradient id="linear-gradient-42" x1="56.03" y1="60.42" x2="65.4" y2="69.03" xlink:href="#linear-gradient"/><linearGradient id="linear-gradient-43" x1="129.57" y1="-45.91" x2="54.59" y2="90.8" xlink:href="#linear-gradient-5"/><linearGradient id="linear-gradient-44" x1="55.89" y1="60.63" x2="65.23" y2="69.22" xlink:href="#linear-gradient"/><linearGradient id="linear-gradient-45" x1="129.7" y1="-45.18" x2="55.05" y2="90.93" xlink:href="#linear-gradient-5"/></defs><g class="cls-1"><g id="Layer_2" data-name="Layer 2"><circle class="cls-2" cx="65" cy="65" r="65"/></g><g id="Layer_1" data-name="Layer 1"><path class="cls-3" d="M75.48,54.17a10.69,10.69,0,0,1-.77,3.29,9.34,9.34,0,0,1-2,2.42,6,6,0,0,0,.2-.78c.2-.94.42-2.38.64-3.23a3.15,3.15,0,0,0,0-2.11.83.83,0,0,0-.36-.38,16,16,0,0,1-3.16.07,2.94,2.94,0,0,1-1.64-2.24l0-.21a2.58,2.58,0,0,1,.36-2.14c.23-.09.54,1.14.54,1.14a4.94,4.94,0,0,1,0-1c.07-.13.44.48.49.55s0-.13.17-.27.62.8.62.8a5,5,0,0,1,3.43.62,4,4,0,0,1,1.22,1.69A3.67,3.67,0,0,1,75.48,54.17Z"/><polygon class="cls-4" points="59.94 21.98 64.51 84.78 66.09 83.76 60.97 21.7 59.94 21.98"/><polygon class="cls-4" points="64.79 84.31 59.94 21.98 57.89 21.7 62.37 84.31 64.79 84.31"/><polygon class="cls-4" points="100.61 86.46 100.66 84.97 63.67 72.85 63.86 74.44 100.61 86.46"/><polygon class="cls-4" points="63.95 76.65 102.53 89.44 102.43 87.11 63.86 74.06 63.95 76.65"/><polygon class="cls-4" points="33.48 97.45 44.48 105.84 46.24 105.56 35.53 97.27 33.48 97.45"/><polygon class="cls-4" points="105.23 100.72 106.44 99.97 64.51 82.45 64.79 84.31 105.23 100.72"/><polygon class="cls-4" points="64.82 85.46 105.23 102.48 105.23 100.72 64.82 83.66 64.82 85.46"/><polygon class="cls-4" points="46.9 89.63 81.03 82.23 80.97 79.87 47.86 87.02 46.9 89.63"/><path class="cls-4" d="M41.65,102.11C42.58,100.19,48.17,87,48.17,87l-1.86.43L40,102.3Z"/><polygon class="cls-4" points="46.31 87.39 45.44 86.52 38.73 101.55 39.97 102.3 46.31 87.39"/><polygon class="cls-4" points="80.97 79.87 46.31 87.39 45.44 86.52 78.8 79.19 80.97 79.87"/><polygon class="cls-4" points="76.34 69.03 76.53 70.9 49.13 87.67 48.17 86.96 76.34 69.03"/><polygon class="cls-4" points="33.48 97.45 44.51 105.84 44.52 107.84 33.53 99.74 33.48 97.45"/><path class="cls-5" d="M68.89,64.23l-.11.21-.23.29-.14.13a6.18,6.18,0,0,1-2.47-.64,2.22,2.22,0,0,1-1.17-1.64A18.77,18.77,0,0,1,68.89,64.23Z"/><path class="cls-6" d="M73.57,55.87c-.22.85-.44,2.29-.64,3.23a5.62,5.62,0,0,1-1.53,2,2.8,2.8,0,0,1-.46.3c-1.29.69-3.85,1.22-5.41,0a2.91,2.91,0,0,1-.37-.33,3.64,3.64,0,0,1-.8-1.38,7.5,7.5,0,0,1,.24-5.14A10,10,0,0,1,68,51.14a1.09,1.09,0,0,1,.39-.14l0,.21A3.15,3.15,0,0,0,70,53.45a1.38,1.38,0,0,0,.53,0,6.8,6.8,0,0,0,1.64-.16,2.09,2.09,0,0,1,1,.06C73.73,53.66,73.87,54.71,73.57,55.87Z"/><path class="cls-6" d="M41.17,86c-.66.28-4.06,1-4.06,1C38.32,88.46,40,92.28,39,94.75s-3.26,6.38-3.72,9.46a.62.62,0,0,1-.49.55,2.19,2.19,0,0,1-1.14-.13s-.52-6.9-.61-9-.51-11-.33-11.37,4.87-3.31,5.71-3.77a11,11,0,0,1,2.05,2.7,6.64,6.64,0,0,1,.37.93A5,5,0,0,1,41.17,86Z"/><path class="cls-6" d="M31,81.59A8.32,8.32,0,0,1,32.45,86c0,2.38-1.53,3.21-2.33,4.47s-2.23,7-2.23,7a.75.75,0,0,1-.53.31,2,2,0,0,1-1.15-.4s.33-4.38.47-6.62.28-11.6.7-12.72,3.63-2,4.47-2.14a13.6,13.6,0,0,1,.32,2A16.63,16.63,0,0,0,32.64,80c.28,1,.58,1.87.58,1.87C32.71,81.75,31,81.59,31,81.59Z"/><path class="cls-7" d="M36.09,106.77a6,6,0,0,1-1,.52,20.64,20.64,0,0,1-2.18.79c-.28.08-1.12.15-1.38.2a1,1,0,0,1-.79-1.7c.95-.76,2.49-1.57,2.92-2l.2.06a1.38,1.38,0,0,0,.54,0l.11,0h0l.3-.11a3,3,0,0,0,.34-.17,3,3,0,0,1,.28.33A4.82,4.82,0,0,1,36.09,106.77Z"/><path class="cls-8" d="M68.78,64.44l-.23.28S66,67.15,66,68.58s.56,2.54,2,2.79a2.82,2.82,0,0,0,2.53-.5,20.92,20.92,0,0,1-2.47-1.74C66.92,68.2,68.36,65.24,68.78,64.44Z"/><path class="cls-9" d="M66.43,70.37l0,0Z"/><path class="cls-9" d="M66.29,70.11a.3.3,0,0,1,0,.08A.3.3,0,0,0,66.29,70.11Z"/><path class="cls-9" d="M66.34,67.48a0,0,0,0,0,0,0A0,0,0,0,1,66.34,67.48Z"/><path class="cls-9" d="M66.47,67.25l0,0Z"/><path class="cls-9" d="M66.6,70.61l.05.06Z"/><path class="cls-9" d="M67,71l.07,0Z"/><path class="cls-9" d="M66.18,69.84s0,0,0,0S66.19,69.85,66.18,69.84Z"/><path class="cls-9" d="M66,68.88A.19.19,0,0,0,66,69,.19.19,0,0,1,66,68.88Z"/><path class="cls-9" d="M67.31,71.16l0,0Z"/><path class="cls-9" d="M66.06,68.16v0Z"/><path class="cls-9" d="M66,68.35a.09.09,0,0,1,0,.05A.09.09,0,0,0,66,68.35Z"/><path class="cls-9" d="M66.22,67.71v0Z"/><path class="cls-9" d="M66.1,69.53l0,.09Z"/><path class="cls-9" d="M66.14,67.92l0,0Z"/><path class="cls-9" d="M66,69.24v0Z"/><path class="cls-10" d="M79.79,66.7c-.65.56-12.67,8.48-18.45,12.3-3.33,2.21-7.4,4.75-10.49,6.45-2.28,1.26-4,2.06-4.54,1.94A5.22,5.22,0,0,1,43.9,85.5c-.55-1.55-1-3.4.17-3.75,2.42-.74,8.13-.4,8.69-1.47a12.91,12.91,0,0,1,1.1-1.8s-.38-1.28-.12-.53c-.44-1.49.44-.62.45-.6a46.47,46.47,0,0,1,5.22-2.61,76.37,76.37,0,0,0,7.9-4c1-.56,2.09-.79,2.43-1.21,0,0-.6-1.38-.63-1.4.59-.44,1.11-.23,2-1.45,0,0,2.18-4.17,3.61-6.28.79-1.17,2.35.14,3.28.64a6.34,6.34,0,0,1,1.76,2h0C80.66,64.74,80.25,66.31,79.79,66.7Z"/><path class="cls-9" d="M67.62,71.28l.06,0Z"/><path class="cls-9" d="M66.84,70.85l0,0,0,0Z"/><path class="cls-9" d="M68.12,65.15c.16-.17.29-.29.36-.36l-.07.07Z"/><path class="cls-9" d="M66.76,66.79h0Z"/><path class="cls-9" d="M53.11,77l.26.37c.14.22.27.42.37.6a5.35,5.35,0,0,1,.43.88.3.3,0,0,1,0,.08s4.1-2,6-2.7a67.41,67.41,0,0,0,8.24-3.81,8.45,8.45,0,0,0,2.1-1.5l0,0a2.82,2.82,0,0,1-2.53.5l-.31-.07-.06,0-.07,0-.21-.08,0,0-.21-.11L67,71a1.39,1.39,0,0,1-.19-.15h0l0,0-.14-.14-.05-.06-.14-.19,0,0a1.62,1.62,0,0,1-.1-.18.3.3,0,0,0,0-.08l-.09-.23s0,0,0,0l-.06-.22,0-.09a2.56,2.56,0,0,1,0-.27v0A2.46,2.46,0,0,1,66,69a.19.19,0,0,1,0-.08c0-.1,0-.2,0-.3a1.09,1.09,0,0,1,0-.18.09.09,0,0,0,0-.05l0-.17v0l.06-.2,0,0a1.34,1.34,0,0,1,.07-.18v0l.11-.21a0,0,0,0,1,0,0c0-.07.07-.14.11-.2l0,0c.08-.15.18-.3.28-.45h0a15.34,15.34,0,0,1,1.36-1.64l.29-.29.07-.07.07-.06.23-.29s0,0,0,0l.09-.17a5.48,5.48,0,0,0-1-.52L51.43,75.05A16.82,16.82,0,0,1,53.11,77Z"/><path class="cls-11" d="M70.56,70.9a8.45,8.45,0,0,1-2.1,1.5,67.41,67.41,0,0,1-8.24,3.81c-1.91.7-6,2.7-6,2.7a.3.3,0,0,0,0-.08h0a6.29,6.29,0,0,0-.43-.86c-.1-.18-.23-.38-.37-.6L53.11,77a.76.76,0,0,1-.08-.11,16.5,16.5,0,0,0-1.6-1.82l-.25-.24a26.17,26.17,0,0,0-2.93-2.38,37.64,37.64,0,0,1,3.68-5,25.73,25.73,0,0,1,4.83-3.8c.83-.53,1.41-.86,1.41-.86l.37-.42a5,5,0,0,1,3-.47,9.84,9.84,0,0,1,1.58.24c.43.1,1,.26,1.61.44a31.39,31.39,0,0,1,3.14,1.13,4.9,4.9,0,0,1,1,.52l-.09.17s0,0,0,0l-.23.29-.07.06-.07.07-.29.29-.05.06-.34.37-.08.09-.13.15-.35.42-.08.1a.83.83,0,0,0-.08.12l-.09.11-.1.14-.06.08h0a2.75,2.75,0,0,0-.19.28l-.1.17a3.43,3.43,0,0,0-.42,1l0,.14a.43.43,0,0,0,0,.05s0,.06,0,.09v.24s0,.1,0,.15V69c0,.05,0,.1,0,.14s0,.09,0,.13,0,.09,0,.13a.13.13,0,0,1,0,.06c0,.07,0,.13.05.2l.06.22,0,0,.09.23a.59.59,0,0,1,0,.08,1.62,1.62,0,0,0,.1.18,0,0,0,0,1,0,0l0,0a1.43,1.43,0,0,0,.14.2l.05.06a1.85,1.85,0,0,0,.14.14l0,0h0l.11.09.14.09,0,0,.21.11.15.07.06,0h.1l.06,0,.31.07a2.82,2.82,0,0,0,2.53-.5Z"/><path class="cls-9" d="M53.33,80.49l.86-1.63,0,0a7.76,7.76,0,0,0-1.09-1.62c-.06-.07-.12-.13-.17-.2-.51-.6-1.1-1.22-1.7-1.81l-9.72,6.69s1.4,2.24,1.87,2.89c.12.18.31.44.54.72A37.3,37.3,0,0,0,48,84.59,10.9,10.9,0,0,0,53.33,80.49Z"/><path class="cls-12" d="M51.43,75.05l-.25-.24a26.17,26.17,0,0,0-2.93-2.38s1.47,1.28,3,2.77Z"/><path class="cls-9" d="M53.37,77.35,53.11,77a16.82,16.82,0,0,0-1.68-1.93l-.22.15c.6.59,1.19,1.21,1.7,1.81.05.07.11.13.17.2a7.76,7.76,0,0,1,1.09,1.62,5.35,5.35,0,0,0-.43-.88C53.64,77.77,53.51,77.57,53.37,77.35Z"/><path class="cls-13" d="M53.37,77.35,53.11,77a16.82,16.82,0,0,0-1.68-1.93l-.22.15c.6.59,1.19,1.21,1.7,1.81.05.07.11.13.17.2a7.76,7.76,0,0,1,1.09,1.62,5.35,5.35,0,0,0-.43-.88C53.64,77.77,53.51,77.57,53.37,77.35Z"/><path class="cls-14" d="M54.17,78.83a5.35,5.35,0,0,0-.43-.88c-.1-.18-.23-.38-.37-.6L53.11,77a16.82,16.82,0,0,0-1.68-1.93l-.25-.24a26.17,26.17,0,0,0-2.93-2.38,5.28,5.28,0,0,1-3.78,1.68,123.93,123.93,0,0,0-12.62,1.82A21.26,21.26,0,0,0,32.5,80a14.81,14.81,0,0,0,.61,1.85,12.83,12.83,0,0,0,2.65.18l2.75-1.44s.15.15.37.4a10.32,10.32,0,0,1,2,3.37c0,.11.07.23.09.34a5.64,5.64,0,0,1,.15.82c0,.14,0,.28,0,.43,0,0,1.25-.17,2.78-.45A37.3,37.3,0,0,0,48,84.59a10.9,10.9,0,0,0,5.36-4.1l.86-1.63Z"/><path class="cls-9" d="M66.12,68l-.06.2Z"/><path class="cls-15" d="M66.12,68l-.06.2Z"/><path class="cls-16" d="M66.12,68l-.06.2Z"/><path class="cls-9" d="M66.05,68.18l0,.17Z"/><path class="cls-17" d="M66.05,68.18l0,.17Z"/><path class="cls-18" d="M66.05,68.18l0,.17Z"/><path class="cls-9" d="M66.33,67.5l-.11.21Z"/><path class="cls-19" d="M66.33,67.5l-.11.21Z"/><path class="cls-20" d="M66.33,67.5l-.11.21Z"/><path class="cls-9" d="M68.55,64.73l-.07.06Z"/><path class="cls-21" d="M68.55,64.73l-.07.06Z"/><path class="cls-22" d="M68.55,64.73l-.07.06Z"/><path class="cls-9" d="M66.45,67.28c0,.06-.07.13-.11.2S66.41,67.34,66.45,67.28Z"/><path class="cls-23" d="M66.45,67.28c0,.06-.07.13-.11.2S66.41,67.34,66.45,67.28Z"/><path class="cls-24" d="M66.45,67.28c0,.06-.07.13-.11.2S66.41,67.34,66.45,67.28Z"/><path class="cls-9" d="M66.75,66.8c-.1.15-.2.3-.28.45C66.55,67.1,66.65,67,66.75,66.8Z"/><path class="cls-25" d="M66.75,66.8c-.1.15-.2.3-.28.45C66.55,67.1,66.65,67,66.75,66.8Z"/><path class="cls-26" d="M66.75,66.8c-.1.15-.2.3-.28.45C66.55,67.1,66.65,67,66.75,66.8Z"/><path class="cls-9" d="M66.21,67.74a1.34,1.34,0,0,0-.07.18A1.34,1.34,0,0,1,66.21,67.74Z"/><path class="cls-27" d="M66.21,67.74a1.34,1.34,0,0,0-.07.18A1.34,1.34,0,0,1,66.21,67.74Z"/><path class="cls-28" d="M66.21,67.74a1.34,1.34,0,0,0-.07.18A1.34,1.34,0,0,1,66.21,67.74Z"/><path class="cls-9" d="M68.07,65.21l.05-.06a15.34,15.34,0,0,0-1.36,1.64A14.83,14.83,0,0,1,68.07,65.21Z"/><path class="cls-29" d="M68.07,65.21l.05-.06a15.34,15.34,0,0,0-1.36,1.64A14.83,14.83,0,0,1,68.07,65.21Z"/><path class="cls-30" d="M68.07,65.21l.05-.06a15.34,15.34,0,0,0-1.36,1.64A14.83,14.83,0,0,1,68.07,65.21Z"/><path class="cls-9" d="M67.1,71.05l.21.11Z"/><path class="cls-31" d="M67.1,71.05l.21.11Z"/><path class="cls-32" d="M67.1,71.05l.21.11Z"/><path class="cls-9" d="M67.68,71.3l.31.07Z"/><path class="cls-33" d="M67.68,71.3l.31.07Z"/><path class="cls-34" d="M67.68,71.3l.31.07Z"/><path class="cls-9" d="M66.84,70.85A1.39,1.39,0,0,0,67,71,1.39,1.39,0,0,1,66.84,70.85Z"/><path class="cls-35" d="M66.84,70.85A1.39,1.39,0,0,0,67,71,1.39,1.39,0,0,1,66.84,70.85Z"/><path class="cls-36" d="M66.84,70.85A1.39,1.39,0,0,0,67,71,1.39,1.39,0,0,1,66.84,70.85Z"/><path class="cls-9" d="M66.46,70.42l.14.19Z"/><path class="cls-37" d="M66.46,70.42l.14.19Z"/><path class="cls-38" d="M66.46,70.42l.14.19Z"/><path class="cls-9" d="M66.79,70.81l-.14-.14Z"/><path class="cls-39" d="M66.79,70.81l-.14-.14Z"/><path class="cls-40" d="M66.79,70.81l-.14-.14Z"/><path class="cls-9" d="M67.62,71.28l-.28-.1.21.08Z"/><path class="cls-41" d="M67.62,71.28l-.28-.1.21.08Z"/><path class="cls-42" d="M67.62,71.28l-.28-.1.21.08Z"/><path class="cls-9" d="M66.2,69.88l.09.23Z"/><path class="cls-43" d="M66.2,69.88l.09.23Z"/><path class="cls-44" d="M66.2,69.88l.09.23Z"/><path class="cls-9" d="M66.05,69.26a2.56,2.56,0,0,0,0,.27A2.56,2.56,0,0,1,66.05,69.26Z"/><path class="cls-45" d="M66.05,69.26a2.56,2.56,0,0,0,0,.27A2.56,2.56,0,0,1,66.05,69.26Z"/><path class="cls-46" d="M66.05,69.26a2.56,2.56,0,0,0,0,.27A2.56,2.56,0,0,1,66.05,69.26Z"/><path class="cls-9" d="M66,69a2.46,2.46,0,0,0,0,.28A2.46,2.46,0,0,1,66,69Z"/><path class="cls-47" d="M66,69a2.46,2.46,0,0,0,0,.28A2.46,2.46,0,0,1,66,69Z"/><path class="cls-48" d="M66,69a2.46,2.46,0,0,0,0,.28A2.46,2.46,0,0,1,66,69Z"/><path class="cls-9" d="M66,68.58c0,.1,0,.2,0,.3C66,68.78,66,68.68,66,68.58Z"/><path class="cls-49" d="M66,68.58c0,.1,0,.2,0,.3C66,68.78,66,68.68,66,68.58Z"/><path class="cls-50" d="M66,68.58c0,.1,0,.2,0,.3C66,68.78,66,68.68,66,68.58Z"/><path class="cls-9" d="M66,68.4a1.09,1.09,0,0,0,0,.18A1.09,1.09,0,0,1,66,68.4Z"/><path class="cls-51" d="M66,68.4a1.09,1.09,0,0,0,0,.18A1.09,1.09,0,0,1,66,68.4Z"/><path class="cls-52" d="M66,68.4a1.09,1.09,0,0,0,0,.18A1.09,1.09,0,0,1,66,68.4Z"/><path class="cls-9" d="M66.12,69.62l.06.22Z"/><path class="cls-53" d="M66.12,69.62l.06.22Z"/><path class="cls-54" d="M66.12,69.62l.06.22Z"/><path class="cls-9" d="M66.33,70.19a1.62,1.62,0,0,0,.1.18A1.62,1.62,0,0,1,66.33,70.19Z"/><path class="cls-55" d="M66.33,70.19a1.62,1.62,0,0,0,.1.18A1.62,1.62,0,0,1,66.33,70.19Z"/><path class="cls-56" d="M66.33,70.19a1.62,1.62,0,0,0,.1.18A1.62,1.62,0,0,1,66.33,70.19Z"/><path class="cls-4" d="M100,98.76l2.79-66.07,2-.56s-1.3,38.39-1.49,44.36-.65,23.29-.65,23.29Z"/><path class="cls-4" d="M104.76,32.13l1,.38-1.91,66.43-1.26.84s.6-27.21.93-36.34C103.92,53.1,104.76,32.13,104.76,32.13Z"/><polygon class="cls-4" points="105.23 100.72 106.44 99.97 107.42 100.34 106.21 101.13 105.23 100.72"/><polygon class="cls-4" points="105.23 100.72 105.23 102.48 106.25 102.9 107.51 102.25 107.42 100.34 106.21 101.13 105.23 100.72"/><polygon class="cls-4" points="44.51 105.84 44.52 107.84 45.08 108.26 46.99 107.84 46.99 106.07 46.24 105.56 44.51 105.84"/><path class="cls-6" d="M71.4,61.09c-.71,1-2.36,3.19-2.36,3.19s-.22,0-.56,0a5.41,5.41,0,0,1-1.32-.22c-.88-.28-1.85-.79-1.81-1.07s.07-.57.11-.93.06-.51.07-.61c1.56,1.17,4.12.64,5.41,0A2.8,2.8,0,0,0,71.4,61.09Z"/><path class="cls-57" d="M79.79,66.7c-.65.56-12.67,8.48-18.45,12.3-3.33,2.21-7.4,4.75-10.49,6.45a4.51,4.51,0,0,1-1.31-.79s9.32-5.41,16.4-10.07c6.64-4.37,11.75-8.68,13.8-11.56C80.66,64.74,80.25,66.31,79.79,66.7Z"/><path class="cls-6" d="M61.58,61.9a5,5,0,0,0-3,.47v0l-.36.4s-.58.33-1.41.86l-.33.2c-1.74-3.11-1.12-10.94-1.12-10.94a9.55,9.55,0,0,1,.19-5.59c.81-2.36,3.11-6.15,4.35-8.44l.66.29.89.39c-.68,1-2.48,10.87-2.3,13.23C59.26,54.75,61,60.12,61.58,61.9Z"/><path class="cls-58" d="M51,46.39a7,7,0,0,1-2.79.23A5.82,5.82,0,0,1,44.77,45a9.78,9.78,0,0,1-2.38-8.21c.75-6.08,6.26-8.19,8.7-7.7a7.58,7.58,0,0,1,1.44.43A7.91,7.91,0,0,1,56.47,33a9.54,9.54,0,0,1,1.2,3.65C57.86,38.63,56.62,44.84,51,46.39Z"/><path class="cls-3" d="M51,45.24h0a4.27,4.27,0,0,1-4.6-1.76,8.93,8.93,0,0,1-1.24-6c.62-5,5-6.86,7.2-6.59A7.5,7.5,0,0,1,56.75,37C56.9,38.64,55.85,43.92,51,45.24Z"/><path class="cls-58" d="M50,40.12a2.29,2.29,0,0,1-1.38-1c-1.15-1.71-.15-4.91,2.07-4.56a2.74,2.74,0,0,1,1.4.61C53.9,36.81,52.48,40.74,50,40.12Z"/><path class="cls-6" d="M80.28,44.36l-.8-.26a45.57,45.57,0,0,1-2.92,7.46,17.81,17.81,0,0,0-1.8,5.34s-2.05,2.36-3.42,4.22l-.33.46c-.93,1.23-1.82,2.35-2.23,2.86l-.23.29-.07.06c-.07.07-.2.19-.36.36l-.05.06a14.83,14.83,0,0,0-1.31,1.58h0c-.1.15-.2.3-.28.45l0,0c0,.06-.07.13-.11.2a0,0,0,0,0,0,0l-.11.21v0a1.34,1.34,0,0,0-.07.18l0,0-.06.2v0l0,.17a.09.09,0,0,1,0,.05,1.09,1.09,0,0,0,0,.18c0,.1,0,.2,0,.3A.19.19,0,0,0,66,69a2.46,2.46,0,0,0,0,.28v0a2.56,2.56,0,0,0,0,.27l0,.09.06.22s0,0,0,0l.09.23a.3.3,0,0,1,0,.08,1.62,1.62,0,0,0,.1.18l0,0,.14.19.05.06.14.14,0,0A1.39,1.39,0,0,0,67,71l.07,0,.21.11,0,0,.28.1.06,0,.31.07a2.82,2.82,0,0,0,2.53-.5,11.3,11.3,0,0,0,2.13-2.42,17.73,17.73,0,0,0,3.6-3.72A15.86,15.86,0,0,0,78,61c.3-.91.48-1.67.57-2,0,0,1.61-1.3,2.11-4.85s.75-9.44.75-9.44Z"/><path class="cls-59" d="M85.63,46.56a.47.47,0,0,1-.17,0L50.64,37.94a.66.66,0,0,1-.48-.79.65.65,0,0,1,.79-.48l34.82,8.61a.66.66,0,0,1,.48.79A.65.65,0,0,1,85.63,46.56Z"/><path class="cls-58" d="M94,57.51a15.21,15.21,0,0,1-1.87.11,8.42,8.42,0,0,1-5.6-1.9c-2-1.7-3.06-4.6-3-8.86.16-7.39,6.89-9.22,9.44-9.35a8.85,8.85,0,0,1,2.35.17c3.14.68,5,3.07,5.87,5.73a13.72,13.72,0,0,1,.69,3.45C102.25,51.8,100.23,56.77,94,57.51Z"/><path class="cls-3" d="M94,56.23a12.14,12.14,0,0,1-1.57.08c-3.48-.66-5.68-3.45-5.56-8.89.14-6.22,5.8-7.76,7.95-7.87h.33c3.76.81,5.28,4.57,5.52,7.72C101,51.42,99.29,55.6,94,56.23Z"/><path class="cls-58" d="M92.83,50.8a2.67,2.67,0,0,1-1.33-.47c-2.07-1.52-.63-6,1.77-5.86a2.59,2.59,0,0,1,2,1.14C96.62,47.51,95.72,51.08,92.83,50.8Z"/><path class="cls-60" d="M104,51l-.16,0L93.43,48.45a.65.65,0,0,1,.3-1.26l10.38,2.48a.66.66,0,0,1,.48.79A.65.65,0,0,1,104,51Z"/><path class="cls-6" d="M59.91,39.18a2.74,2.74,0,0,1-.3,1.29.08.08,0,0,1-.12,0,3.13,3.13,0,0,1-.23-1.31,2.62,2.62,0,0,1,.42-1.74.11.11,0,0,1,.07,0C60,37.37,60,38.46,59.91,39.18Z"/><path class="cls-6" d="M60.59,38.74c-.13.73-.28,1.65-.6,1.65l-.08,0c-.19-.1-.07-.68,0-1.4s.1-1.54.42-1.56h0C60.62,37.43,60.72,38,60.59,38.74Z"/><path class="cls-6" d="M61.6,38.52c-.22.87-.84,2.17-1.14,2.08h0c-.19-.09-.16-.9.26-2.13.26-.74.61-.9.81-.71A.79.79,0,0,1,61.6,38.52Z"/><path class="cls-6" d="M62.33,39.34c-.21.7-1.36,1.54-1.52,1.42h0c-.2-.15,0-.58.64-1.59.28-.47.56-.6.73-.51S62.43,39,62.33,39.34Z"/><path class="cls-6" d="M78.87,45.36l-.07,0c-.79-.49-.18-3.46.34-3.16a.17.17,0,0,1,.06.06C79.7,42.82,79.29,45.33,78.87,45.36Z"/><path class="cls-6" d="M80.35,42.57a5,5,0,0,1-.94,2.76.17.17,0,0,1-.19,0c-.25-.15-.21-1.39.1-2.48.23-.77.68-1.15.9-.9A.81.81,0,0,1,80.35,42.57Z"/><path class="cls-6" d="M81.42,42.82c-.06.87-1.08,3.11-1.62,2.73l0,0c-.17-.2-.09-.91.44-2.12.36-.81.78-1.19,1-1.12S81.44,42.51,81.42,42.82Z"/><path class="cls-6" d="M80.45,45.6a.43.43,0,0,1,0-.05c-.12-1.22,1.25-3,1.63-2.5a1.17,1.17,0,0,1,.05.11C82.31,43.8,80.61,46.1,80.45,45.6Z"/><path class="cls-7" d="M28.17,100.09a6.18,6.18,0,0,1-1.09.23,17.66,17.66,0,0,1-2.31.19c-.29,0-1.12-.15-1.38-.17a1,1,0,0,1-.32-1.85c1.12-.48,2.63-.83,3.14-1.08a2.68,2.68,0,0,0,.88.28h.13l.32,0,.37-.07a2.32,2.32,0,0,1,.18.39A4.83,4.83,0,0,1,28.17,100.09Z"/></g></g></svg>