<svg xmlns="http://www.w3.org/2000/svg" viewBox="0 0 130 130"><defs><style>.cls-1{fill:#6fcee0;}.cls-2{fill:#fec16e;}.cls-2,.cls-3,.cls-4,.cls-5{stroke:#000;stroke-linecap:round;stroke-linejoin:round;stroke-width:0.25px;}.cls-3{fill:#474747;}.cls-4{fill:#b9aebc;}.cls-5{fill:#623391;}</style></defs><g id="Layer_2" data-name="Layer 2"><circle class="cls-1" cx="65" cy="65" r="65"/></g><g id="Layer_1" data-name="Layer 1"><path class="cls-2" d="M71.71,93h4.83a26,26,0,0,1-1-4.39c-.24-2.71-.08-5.42-.73-6.92S71,74.86,71,74.86a10.24,10.24,0,0,1,4.69-1.27,13.16,13.16,0,0,0,4.77-1.07l-9.89-7.58s-6.3,3.2-7.23,6.12,2.14,7.83,2.14,7.83,1.79,6.66,3.59,9.06A25.41,25.41,0,0,1,71.71,93Z"/><path class="cls-3" d="M75.6,62.16l-5.13,2.65s1.39,1.48,2.92,2.85C78.54,65.54,82.29,63.51,75.6,62.16Z"/><path class="cls-2" d="M72,37.26a5.72,5.72,0,0,0,.89,4.67l-5.75,1.2c-.49-.87-1.37-2.26-2.56-2.12-1,.12-1.92.18-2.41-.64a3.16,3.16,0,0,1-.24-2c-.59-.41-.48-1.52-.48-1.52s-.88.29-1.34-.18.41-1.39.41-1.39a2.63,2.63,0,0,0-.14-2.39,4.18,4.18,0,0,1-.43-2.44C69.15,24,70.46,30.28,72,37.26Z"/><path class="cls-3" d="M64.31,32.35s1.28-.11,2,2.24l.65-.08s-.16-1.95,1.15-2.15,1.59,1.9,1.59,1.9-.06,3.25.86,3.79a2.08,2.08,0,0,0,.6.25.79.79,0,0,0,1-.64,14,14,0,0,1,1-3.56A5.14,5.14,0,0,0,73,29.76s-2.45-4.48-7-3.67a9,9,0,0,0-6,4,.76.76,0,0,0,.56,1.16,2.41,2.41,0,0,0,1.2-.22c1.59-.67,2.7-.44,2.61.38S64.31,32.35,64.31,32.35Z"/><path class="cls-4" d="M73.19,39.63a2.27,2.27,0,0,0-2.31.88,7,7,0,0,1-2.57,1.94,8.3,8.3,0,0,0-2.48,1.66c-1.5,1.56-2.35,1.31-2.35,1.31A9.25,9.25,0,0,0,66,47.88c1.46.84,3.16,3.56,3.16,3.56s.13-.13-1.17.35a3.84,3.84,0,0,0-1.6.9A26.24,26.24,0,0,0,70.52,58C73.06,60.55,78,64.42,78,64.42s4.15-2.11,6.34-3,6.21-.34,6.21-.34,4.2,1,4.83.64c0,0-2.51-4.77-5.09-5.65s-3.05-1.76-3.05-1.76-3.12-3.29-4-5.23C78.21,40.58,73.19,39.63,73.19,39.63Z"/><path class="cls-2" d="M63.52,45.43a17,17,0,0,0-5.33,1.22s-.75.41-3.32.14a13.19,13.19,0,0,0-5.3.78,11.72,11.72,0,0,1-4.34.71c-2.44-.06-5.63.14-5.63.14s-.67-2.53-1.38-3A3.72,3.72,0,0,0,37,45a1.84,1.84,0,0,0-1.57.43l-.34.31s-1.62.66-1.4,1.2a.66.66,0,0,0,.65.39s-.86.38-.71.95a.49.49,0,0,0,.57.34s-.67.34-.49.84a.41.41,0,0,0,.49.31,1.24,1.24,0,0,0,.62,1.55,5.14,5.14,0,0,0,2.08.68L39,51.86s10.07,1.92,13.59,1.64a14.24,14.24,0,0,0,2.46-.74c.95-.43,3.7.13,3.7.13a50.49,50.49,0,0,0,7.63-.2,11.25,11.25,0,0,0,2.77-1.25C69.4,48.51,67.22,46.64,63.52,45.43Z"/><path class="cls-5" d="M73.68,89.85a1.23,1.23,0,0,1-.58.82c-.53.38-1.24.19-1.85-.4s-1.88-2.89-2.3-2.39a2.35,2.35,0,0,0-.19.25A7.08,7.08,0,0,1,66.46,90l-.13.07a5.2,5.2,0,0,1-2.95.54,4.64,4.64,0,0,0-1.85,0,2.36,2.36,0,0,0-.67,1.84c.41.88,1.94,1.36,3.47,2a6.3,6.3,0,0,0,3.42.2,11.4,11.4,0,0,1,3.2-.44c.93.16,3.57.4,3.81-.35a9.8,9.8,0,0,0-.22-3.77S74.3,89.17,73.68,89.85Z"/><path class="cls-2" d="M72,67.52s-5.22,2.21-6.28,5.09,1.8,7.91,1.8,7.91,1.63,6.55,3.33,9,2,7.12,2,7.12S75.07,100,77,100a1.67,1.67,0,0,0,1.9-1.55,43.29,43.29,0,0,1-1.67-7.76c-.13-2.73.15-5.42-.44-6.95s-3.53-7-3.53-7A10.13,10.13,0,0,1,78,75.67a13.48,13.48,0,0,0,4.81-.87"/><path class="cls-3" d="M78,64.42l-6,3.1s4.18,4.48,6,5.06,5.79,4.61,5.79,4.61c1.58-2.69,5.24-3.92,9.92-7.38a5.81,5.81,0,0,0,1.63-8c-.63.41-4.83-.64-4.83-.64s-4-.5-6.21.34S78,64.42,78,64.42Z"/><path class="cls-5" d="M78.23,98a1.51,1.51,0,0,1-.7,1,1.74,1.74,0,0,1-2.23-.49c-.71-.69-2.27-3.48-2.78-2.88l-.23.3a8.56,8.56,0,0,1-2.77,2.26l-.16.08A6.17,6.17,0,0,1,65.8,99a5.78,5.78,0,0,0-2.23,0,2.84,2.84,0,0,0-.8,2.22c.49,1.07,2.34,1.64,4.18,2.42a7.67,7.67,0,0,0,4.12.25,13.94,13.94,0,0,1,3.87-.54c1.11.2,4.3.49,4.59-.42.47-1.49-.26-4.55-.26-4.55S79,97.22,78.23,98Z"/></g></svg>