<svg xmlns="http://www.w3.org/2000/svg" viewBox="0 0 130 130"><defs><style>.cls-1{fill:#8dc540;}.cls-2{fill:#dadfef;}.cls-2,.cls-3,.cls-4,.cls-5,.cls-6{stroke:#000;stroke-linecap:round;stroke-linejoin:round;stroke-width:0.25px;}.cls-3{fill:#623391;}.cls-4{fill:#fec16e;}.cls-5{fill:#474747;}.cls-6{fill:#ee222b;}</style></defs><g id="Layer_2" data-name="Layer 2"><circle class="cls-1" cx="65" cy="65" r="65"/></g><g id="Layer_1" data-name="Layer 1"><path class="cls-2" d="M52.32,41H26.6a.89.89,0,0,0-.89.88v0a.89.89,0,0,0,.89.89H52.32Z"/><path class="cls-2" d="M103.4,41H78.21V42.8H103.4a.89.89,0,0,0,.89-.89v0A.89.89,0,0,0,103.4,41Z"/><path class="cls-3" d="M62.91,101.79a1.59,1.59,0,0,1-.2.24,1.55,1.55,0,0,1-2.3,0,4,4,0,0,1-.84-1.45,38.47,38.47,0,0,1-.4-5.45l4.22,0a19.56,19.56,0,0,0,.06,4.64A2.91,2.91,0,0,1,62.91,101.79Z"/><path class="cls-3" d="M67.09,101.79a1.59,1.59,0,0,0,.2.24,1.55,1.55,0,0,0,2.3,0,4,4,0,0,0,.84-1.45,38.47,38.47,0,0,0,.4-5.45l-4.22,0a19.56,19.56,0,0,1-.06,4.64A2.91,2.91,0,0,0,67.09,101.79Z"/><path class="cls-4" d="M63.68,85.22s.73,3.5-.29,5.24A5.88,5.88,0,0,1,64,93.83c-.12.82-1.27,2.31-2.05,2.35h-.8a4.26,4.26,0,0,1-2.65-1.73c-.46-.79-.36-3.77-.36-3.77-2-1.54-1.84-5.56-1.84-5.56"/><path class="cls-4" d="M66.32,85.22s-.73,3.5.29,5.24A5.88,5.88,0,0,0,66,93.83c.12.82,1.27,2.31,2.05,2.35h.8a4.26,4.26,0,0,0,2.65-1.73c.46-.79.36-3.77.36-3.77,2-1.54,1.84-5.56,1.84-5.56"/><path class="cls-4" d="M80.37,58.66a1,1,0,0,1-.63,1.12A3.61,3.61,0,0,1,75.1,57.6,20.2,20.2,0,0,0,73.42,54l0-.06c-4.63-.64-7.33-2.14-8.39-4.36-1.06,2.22-3.76,3.72-8.39,4.36l0,.07A20.72,20.72,0,0,0,54.9,57.6a3.61,3.61,0,0,1-4.64,2.18,1,1,0,0,1-.63-1.12,3.94,3.94,0,0,1-.79-3.91,28.77,28.77,0,0,1,1.62-4.41L54,46.64c.37-2.5,2.45-2.91,3.78-3h.79a2.19,2.19,0,0,0,1.17-.42,4.65,4.65,0,0,0,.91-.81,2.88,2.88,0,0,0,2.15-2.81,2.57,2.57,0,0,0,4.38,0,2.88,2.88,0,0,0,2.15,2.81,4.65,4.65,0,0,0,.91.81,2.19,2.19,0,0,0,1.17.42h.78c1.33.06,3.42.46,3.79,3l3.55,3.7a28.77,28.77,0,0,1,1.62,4.41A3.94,3.94,0,0,1,80.37,58.66Z"/><path class="cls-5" d="M72.3,66.19s1.14-.28,1.41,3a19.23,19.23,0,0,0,.37,2.66A24.29,24.29,0,0,1,74.72,77c0,3.18-.08,7.41-.82,7.94-1.19.86-8.21.47-8.21.47s.13-3-.66-4.11H65c-.79,1.06-.66,4.11-.66,4.11s-7,.39-8.21-.47c-.74-.53-.84-4.76-.82-7.94a24.29,24.29,0,0,1,.64-5.16,19.23,19.23,0,0,0,.37-2.66c.27-3.31,1.41-3,1.41-3C64.1,67.91,68.7,67.61,72.3,66.19Z"/><path class="cls-6" d="M73.42,54a18.81,18.81,0,0,1-.88,4.67c-1.09,3-.24,7.55-.24,7.55-4.11,2.87-8.81,3.5-14.61,0,0,0,.85-4.52-.24-7.56A18,18,0,0,1,56.58,54c-.11-1.51-.08-2.65-.08-2.65a14.38,14.38,0,0,0,1.29-7.67h.79a2.19,2.19,0,0,0,1.17-.42l0,.1a5.56,5.56,0,0,0,10.43,0,.36.36,0,0,1,0-.11,2.19,2.19,0,0,0,1.17.42h.78a14.23,14.23,0,0,0,1.29,7.67S73.52,52.46,73.42,54Z"/><path class="cls-5" d="M69.44,34.92l-.06.09-.65.93v-.23c0-.48,0-1.5,0-2.26-.08-1-.85-1.63-1.37-.92a2.61,2.61,0,0,1-1.19.76,3.1,3.1,0,0,1-2.32,0,2.65,2.65,0,0,1-1.2-.76c-.5-.71-1.29-.06-1.36.92,0,.76,0,1.78,0,2.26a1.8,1.8,0,0,1,0,.23L60.64,35l-.06-.09A7.84,7.84,0,0,1,60,31.74a5,5,0,0,1,10,0A7.64,7.64,0,0,1,69.44,34.92Z"/><path class="cls-4" d="M69,37.41a6.81,6.81,0,0,1-.48,2.23.63.63,0,0,1-.1.2A7.38,7.38,0,0,1,66,42.17a5.61,5.61,0,0,1-1,.07h-.12a5,5,0,0,1-.92-.07,7.57,7.57,0,0,1-2.36-2.35l-.06-.1a6.29,6.29,0,0,1-.5-2.31c-.87-.19-1.77-1.85-1.1-2.39a.56.56,0,0,1,.69,0l.66,1a1.68,1.68,0,0,0,0-.23c0-.5,0-1.5,0-2.28.08-1,.86-1.63,1.36-.92a2.66,2.66,0,0,0,1.2.77,3,3,0,0,0,2.32,0,2.68,2.68,0,0,0,1.19-.77c.52-.71,1.29-.06,1.37.92,0,.78,0,1.78,0,2.28V36l.65-1a.56.56,0,0,1,.67,0C70.73,35.56,69.84,37.22,69,37.41Z"/><rect class="cls-2" x="52.41" y="40.99" width="23.79" height="1.81"/><path class="cls-4" d="M56.61,53.92A21.5,21.5,0,0,0,54.9,57.6a3.59,3.59,0,0,1-4.63,2.18,1,1,0,0,1-.63-1.12,4,4,0,0,1-.8-3.91,27.75,27.75,0,0,1,1.63-4.4s1.12-3.08.76-4.84S49.62,44,49.62,42.83h.67v-2.5a.65.65,0,0,1,.38-.61c.23-.09.53,0,.81.54,0,0,.18-1.11,1-.73,0,0,.33.09.48.71,0,0,.18-.86.94-.61a.68.68,0,0,1,.34.6.69.69,0,0,1,1.2.13c.53.9,0,4,0,4a8.43,8.43,0,0,0-1.28,4.41c.17,2.14.3,5.39.3,5.39"/><path class="cls-4" d="M73.39,53.92A21.5,21.5,0,0,1,75.1,57.6a3.59,3.59,0,0,0,4.63,2.18,1,1,0,0,0,.63-1.12,4,4,0,0,0,.8-3.91,27.75,27.75,0,0,0-1.63-4.4s-1.12-3.08-.76-4.84,1.61-1.56,1.61-2.68h-.67V40.27a.71.71,0,0,0-.17-.46c-.23-.24-.65-.47-1,.45,0,0-.18-1.11-1-.73,0,0-.33.09-.48.71,0,0-.18-.86-.94-.61a.68.68,0,0,0-.34.6.69.69,0,0,0-1.2.13c-.53.9,0,4,0,4a8.43,8.43,0,0,1,1.28,4.41c-.17,2.14-.3,5.39-.3,5.39"/></g></svg>