<svg xmlns="http://www.w3.org/2000/svg" viewBox="0 0 130 130"><defs><style>.cls-1{fill:#848dc6;}.cls-2{fill:#fec16e;}.cls-2,.cls-3,.cls-4,.cls-5,.cls-6{stroke:#000;stroke-linecap:round;stroke-linejoin:round;stroke-width:0.25px;}.cls-3{fill:#474747;}.cls-4{fill:#623391;}.cls-5{fill:#6fcee0;}.cls-6{fill:#dadfef;}</style></defs><g id="Layer_2" data-name="Layer 2"><circle class="cls-1" cx="65" cy="65" r="65"/></g><g id="Layer_1" data-name="Layer 1"><path class="cls-2" d="M67.61,41.14A3.57,3.57,0,0,1,67,38.07H63.42a3.57,3.57,0,0,1-.57,3.07Z"/><path class="cls-3" d="M68.32,35.18l0,.06-.46.65v-.16c0-.34,0-1.33,0-1.86-.16-2.13-5-2.13-5.19,0,0,.53,0,1.52,0,1.86,0,.09,0,.16,0,.16l-.45-.66,0-.06A5.48,5.48,0,0,1,61.76,33a3.51,3.51,0,0,1,6.94,0A5.28,5.28,0,0,1,68.32,35.18Z"/><path class="cls-2" d="M68,36.92a2.68,2.68,0,0,1-.36,1l0,.07A5.19,5.19,0,0,1,66,39.67c-.11,0-.47,0-.73,0s-.61,0-.74,0A5.28,5.28,0,0,1,62.85,38a.25.25,0,0,1,0-.07,2.91,2.91,0,0,1-.36-1,1,1,0,0,1-.69-1.39c.1-.18.27-.39.42-.3a1.3,1.3,0,0,1,.46.66s0-.07,0-.16c0-.35,0-1.33,0-1.86.08-1,1.37-1.56,2.59-1.6s2.52.56,2.6,1.6c0,.53,0,1.51,0,1.86,0,.09,0,.16,0,.16a1.18,1.18,0,0,1,.45-.66c.15-.09.31.12.41.3A1,1,0,0,1,68,36.92Z"/><path class="cls-2" d="M66.81,40.75A3.06,3.06,0,0,0,68,40.37c1-.58,2.7-1.79,3.32-1.7a8.34,8.34,0,0,1,4.62-3.13s.87-.24.93-1A24.66,24.66,0,0,0,75.5,29c-.44-.86-1-1.08-1.28-1.57s-.26-.5-.45-.65a.3.3,0,0,1,0-.47h0a.32.32,0,0,1,.3,0,2,2,0,0,1,.65.49.36.36,0,0,0,.5-.18c.16-.28,1.33-2.22,1.85-2.2s-.16,1.06-.16,1.06.64-1,1.06-.69-.33,1.05-.33,1.05.63-.91,1-.68-.48,1.14-.48,1.14.63-.79,1-.49S78.4,27,78.4,27a7.83,7.83,0,0,1-.5,1,1.66,1.66,0,0,0-.26,1,3.41,3.41,0,0,0,.19,1c.21.57,2.8,4,2.36,6s-3.84,5-7.23,7.14a6.87,6.87,0,0,1-1.14,3.73c-1.18,1.61-1.52,5.27-1.52,5.27a14.24,14.24,0,0,0,.7,3.5l-11.45.16a14.68,14.68,0,0,0,.68-3.66s-.35-3.66-1.52-5.27a6.87,6.87,0,0,1-1.14-3.73c-3.39-2.18-6.33-5.22-6.77-7.19s.16-7.8.37-8.38a3.82,3.82,0,0,0,.2-1,1.84,1.84,0,0,0-.26-1,7.83,7.83,0,0,1-.5-1s-1.17-1-.82-1.3,1,.5,1,.5-.9-.91-.48-1.15,1.05.69,1.05.69-.71-.74-.33-1,1.06.69,1.06.69-.82-1-.16-1.07,1.66,1.95,1.85,2.2a.32.32,0,0,0,.43.12,1.87,1.87,0,0,1,.64-.49.33.33,0,0,1,.32.05h0a.37.37,0,0,1,0,.56,4,4,0,0,0-.4.61c-.31.49-.84.71-1.28,1.57s-.28,4.44-.28,4.44c.61,1.07.4,2.93.46,3.64s.93,1,.93,1a8.34,8.34,0,0,1,4.62,3.13c.62-.09,2.32,1.12,3.32,1.7a3,3,0,0,0,1.17.38"/><path class="cls-2" d="M59.84,67a8.15,8.15,0,0,0,.7,3.08c.69,1.48.23,4.93.23,4.93a12.4,12.4,0,0,0,.28,4.88,37.87,37.87,0,0,1,1,6.56c.89,1.53,1.73,1.71,2.48,0V82.78A7,7,0,0,1,64.73,81a11.5,11.5,0,0,0,.52-3.37c-.18-1-.93-2.39-.84-2.76a16.44,16.44,0,0,0,.72-3.13c0-.87.8-4.63-.9-6.64"/><path class="cls-2" d="M72.38,67a8.15,8.15,0,0,1-.7,3.08C71,71.54,71.44,75,71.44,75a12.51,12.51,0,0,1-.27,4.88,37.87,37.87,0,0,0-1,6.56c-.86,1.41-1.7,2.34-2.48,0V82.78A7,7,0,0,0,67.48,81,11.84,11.84,0,0,1,67,77.64c.19-1,.93-2.39.84-2.76a17.34,17.34,0,0,1-.71-3.13c0-.87-.81-4.63.9-6.64"/><path class="cls-3" d="M66,62.94s.09,4.28.93,4.6,3.4-.46,4.65-.28l.21,0a1.16,1.16,0,0,0,1.51-1.14,60.71,60.71,0,0,0-.62-8c-.62-3-2.51-2.76-2.51-2.76L60,55.4s-.87-.19-1.49,2.85a64.3,64.3,0,0,0-.69,7.66,1.16,1.16,0,0,0,1.51,1.15l.16,0c1.25-.19,4.65.84,5.49.51s.93-4.6.93-4.6"/><path class="cls-4" d="M64.44,86.39a1.25,1.25,0,0,1,.93,1.25c0,1-.37,1.7-.12,2.31a6.31,6.31,0,0,1,.22,3.26,1.26,1.26,0,0,1-.73.74C60.8,95,61,87.41,62,86.43,63.19,87.48,63.89,87.17,64.44,86.39Z"/><path class="cls-4" d="M67.72,86.39a1.24,1.24,0,0,0-.93,1.25c0,1,.37,1.7.11,2.31a6.41,6.41,0,0,0-.22,3.26,1.28,1.28,0,0,0,.74.74c3.94,1.08,3.79-6.54,2.71-7.52C69,87.48,68.26,87.17,67.72,86.39Z"/><rect class="cls-5" x="45.61" y="36.21" width="38.25" height="1.79"/><rect class="cls-6" x="44.66" y="29.52" width="3.37" height="78.6"/><rect class="cls-6" x="81.96" y="29.52" width="3.37" height="78.6"/></g></svg>