<svg xmlns="http://www.w3.org/2000/svg" viewBox="0 0 130 130"><defs><style>.cls-1{fill:#6fcee0;}.cls-2{fill:#fec16e;}.cls-2,.cls-3,.cls-6,.cls-7{stroke:#000;stroke-linecap:round;stroke-linejoin:round;stroke-width:0.25px;}.cls-3{fill:#ee222b;}.cls-4{fill:#7c411e;}.cls-5{fill:#1a1a1a;}.cls-6{fill:#fff;}.cls-7{fill:#474747;}</style></defs><g id="Layer_2" data-name="Layer 2"><circle class="cls-1" cx="65" cy="65" r="65"/></g><g id="Layer_1" data-name="Layer 1"><path class="cls-2" d="M85.64,34.29c.1,2.8.48,5.35,0,8.16-.2,1.1-.41,2.88-1.7,3.19a14.32,14.32,0,0,1-5.74,5.92,17.4,17.4,0,0,1-1.68.78h0a7.72,7.72,0,0,1-1.62.72,4.12,4.12,0,0,1-1,.22c-.89.08-1.38-1.12-1.86-1.89a2.73,2.73,0,0,1-.57-2,1.89,1.89,0,0,1,.35-.84A2.13,2.13,0,0,1,73,47.7c.3-.1.61-.16.89-.23,1-.21,1.36-.9,2.09-1.59,0,0,0,0,0,0l0,0a11.47,11.47,0,0,1,3.64-2.38c.53-.2,1-.4,1.52-.62h0c-.56-2.68.91-5.17,1.59-7.73A8.83,8.83,0,0,0,83,32.7a2.92,2.92,0,0,0-.22-.67c-.32-.6-.9-.75-1-1.67,0,0-.13-1.57,1-1.71a1,1,0,0,1,.52-.69.68.68,0,0,1,.33-.09h.05a.48.48,0,0,1,.24.09.37.37,0,0,1,.25-.1.34.34,0,0,1,.29.17c.92-.21,1.51,1.94,1.44,2.7A26.07,26.07,0,0,0,85.64,34.29Z"/><path class="cls-2" d="M60.73,47a4.28,4.28,0,0,0-2.45-1.21,5,5,0,0,0-2,.06l0,0c-.26-.24-.52-.47-.79-.68a10.14,10.14,0,0,0-2.85-1.69c-.53-.21-1-.41-1.52-.62h0c.57-2.68-.91-5.17-1.59-7.74a8.24,8.24,0,0,1-.12-2.39A2.2,2.2,0,0,1,49.6,32c.32-.59.9-.76,1-1.67A1.93,1.93,0,0,0,50,28.5h0a.72.72,0,0,0-.56-.13c-.23-.38-.6-.61-1-.42a.41.41,0,0,0-.24-.08.4.4,0,0,0-.33.17c-.92-.23-1.51,1.94-1.44,2.7a29.7,29.7,0,0,1,.23,3.56c-.11,2.8-.49,5.36,0,8.16.2,1.1.42,2.88,1.71,3.18h0a13.93,13.93,0,0,0,7.41,6.7h0a8.38,8.38,0,0,0,1.33.62,5,5,0,0,0,1.32.32c.89.08,1.38-1.11,1.87-1.89a2.84,2.84,0,0,0,.57-2,1.64,1.64,0,0,0,.4-.8A1.84,1.84,0,0,0,60.73,47Z"/><path class="cls-2" d="M59.37,99.28a7.23,7.23,0,0,0,.27-2.72h0c0-.14,0-.26,0-.39v0a7.46,7.46,0,0,1,.22-2.83A5.62,5.62,0,0,0,61,90.93h0c0-.08.07-.16.1-.25l1.51-6h0c.19-.6.37-1.2.54-1.79a10.75,10.75,0,0,0,.46-2.15h0a6.47,6.47,0,0,0-5.67-3.21,32.2,32.2,0,0,0-1.43,5.11c0,.12-.05.24-.07.37-.1.52-.16.85-.16.9a12.61,12.61,0,0,0-.17,2.32,6.58,6.58,0,0,0,.5,2.9,3.18,3.18,0,0,0-.14.37,2.37,2.37,0,0,0,.21,1.72A25.17,25.17,0,0,1,55,94.7a17.36,17.36,0,0,0-1.22,7,58.48,58.48,0,0,0,.53,6.72c.1.91.1,1.59,1.14,1.76s1.1-.64,1.19-1.52c.16-1.71,0-3.32.61-5S58.85,100.91,59.37,99.28Z"/><path class="cls-2" d="M72.76,99.38a7.22,7.22,0,0,1-.25-2.72h0c0-.14,0-.26,0-.39v0a7.31,7.31,0,0,0-.18-2.82A5.63,5.63,0,0,1,71.22,91h0a2.67,2.67,0,0,1-.09-.26l-1.44-6.05h0c-.18-.61-.35-1.21-.52-1.8a12.5,12.5,0,0,1-.43-2.16h0a6.42,6.42,0,0,1,5.71-3.13,32.22,32.22,0,0,1,1.37,5.12l.06.37c.1.53.15.86.15.9a12.8,12.8,0,0,1,.14,2.33,6.52,6.52,0,0,1-.54,2.88c0,.12.1.25.14.38a2.37,2.37,0,0,1-.23,1.72,23.86,23.86,0,0,0,1.63,3.54,17.56,17.56,0,0,1,1.12,7,61,61,0,0,1-.61,6.72c-.11.9-.12,1.58-1.17,1.74s-1.09-.66-1.16-1.54c-.15-1.71.06-3.32-.55-5S73.25,101,72.76,99.38Z"/><path class="cls-2" d="M74.87,53.05a17,17,0,0,1-2.07,6.87,29.06,29.06,0,0,0-1.17,7.43,16.07,16.07,0,0,1-11.24,0,23.81,23.81,0,0,0-.31-3.68,29.6,29.6,0,0,0-.86-3.75,16.67,16.67,0,0,1-2.06-7,19.82,19.82,0,0,1,0-2.82c0-.74.11-1.17.11-1.17a9.26,9.26,0,0,1,1.9-1.33A8.17,8.17,0,0,1,60.73,47a8.82,8.82,0,0,1,2.41-.33,2.16,2.16,0,0,0,.34-.51,4.83,4.83,0,0,0,.41-2.51c0-.2,0-.37-.06-.52a.09.09,0,0,1,0-.05c0-.32-.1-.51-.1-.51L66,42v0h.14v0l2.3.62-.08.4v0a4.23,4.23,0,0,0-.07.57A4.83,4.83,0,0,0,68.62,46a2.46,2.46,0,0,0,.41.65,9.16,9.16,0,0,1,2.5.4A7.64,7.64,0,0,1,73,47.7,8.19,8.19,0,0,1,74.81,49s.07.46.13,1.24A24.34,24.34,0,0,1,74.87,53.05Z"/><path class="cls-3" d="M78.17,51.56a15,15,0,0,1-1.3-2.2A7.79,7.79,0,0,1,76,45.88s0,0,0,0a5.11,5.11,0,0,0-2-.05,4.3,4.3,0,0,0-2.52,1.28L71,46.92c-.51,1.3-1.89,3.83-4.9,3.83s-4.42-2.57-4.92-3.86l-.45.11a4.28,4.28,0,0,0-2.45-1.21,5,5,0,0,0-2,.06l0,0c-.26-.24-.52-.47-.79-.68,0,.31-.06.69-.12,1.1a13.11,13.11,0,0,1-.58,2.37,10.64,10.64,0,0,1-1.27,2.55,14.06,14.06,0,0,0,2.33,1.16h0a8.38,8.38,0,0,0,1.33.62,16.82,16.82,0,0,0,2.06,7,30.78,30.78,0,0,1,.85,3.75,22.61,22.61,0,0,1,.32,3.68,16.16,16.16,0,0,0,11.25,0,29.29,29.29,0,0,1,1.16-7.43,17,17,0,0,0,2.07-6.86,8.33,8.33,0,0,0,1.62-.73h0A14.46,14.46,0,0,0,78.17,51.56Z"/><path class="cls-4" d="M62.22,37.64l0,0v-.06Z"/><path class="cls-3" d="M56.54,110.54l-.36,1.74a1.85,1.85,0,0,1-1.28,1.38L50.61,115a1.74,1.74,0,0,1-1.57-.3l0,0a1.71,1.71,0,0,1,.24-2.84l5.28-2.57a8.05,8.05,0,0,0,2,.4Z"/><path class="cls-3" d="M75.52,110.62l.36,1.74a1.84,1.84,0,0,0,1.26,1.39l4.29,1.33A1.71,1.71,0,0,0,83,114.8l0,0a1.7,1.7,0,0,0-.23-2.84l-5.26-2.6a8.25,8.25,0,0,1-2,.39Z"/><path class="cls-5" d="M73,71.33c-.18-.76-.37-1.42-.55-2v0h0a19.63,19.63,0,0,0-.71-1.9l0,0a16.15,16.15,0,0,1-5.46.84h-.46a16.48,16.48,0,0,1-5.36-.8h0a10.08,10.08,0,0,0-.39,1h0a28.93,28.93,0,0,0-1.41,5.68c-.53,2.11-1,4.13-1.21,4.71,0,0,4.61,1,6.21,2l.91-1.25h0l0-.07a.75.75,0,0,1,.44-.26,1.42,1.42,0,0,1,.5,0,2.29,2.29,0,0,0,1.37,0h0a.84.84,0,0,1,1,.27l.86,1.32s3.93-1.44,6.48-1.09C75.21,79.71,73.79,74.37,73,71.33Z"/><rect class="cls-6" x="29.25" y="29.61" width="74.74" height="1.49"/><rect class="cls-7" x="40.98" y="22.95" width="2.8" height="15.01"/><rect class="cls-7" x="38.32" y="24.56" width="2.8" height="11.8"/><rect class="cls-7" x="35.52" y="26.23" width="2.8" height="8.97"/><rect class="cls-7" x="89.34" y="22.95" width="2.8" height="15.01"/><rect class="cls-7" x="91.99" y="24.56" width="2.8" height="11.8"/><rect class="cls-7" x="94.8" y="26.23" width="2.8" height="8.97"/><path class="cls-2" d="M61.51,37.49a1.86,1.86,0,0,0-.29,1c0,.81.46,1.46,1,1.46V37.84C62,37,61.52,37.48,61.51,37.49Z"/><path class="cls-2" d="M70.55,37.49a1.86,1.86,0,0,1,.29,1c0,.81-.46,1.46-1,1.46V37.84C70.06,37,70.54,37.48,70.55,37.49Z"/><path class="cls-2" d="M70,38.72c0,.17,0,.36,0,.54A6,6,0,0,1,68.43,43l-.06,0a3.28,3.28,0,0,1-2.32,1,3.21,3.21,0,0,1-2.22-.92l-.06-.06a6.1,6.1,0,0,1-1.66-4.35c0-.3,0-2.14,0-3.34,0-.13.34-1.34,2.51-1.82l.69-.09.32-.07c.14,0,.27,0,.42,0s.27,0,.41,0l.32.07.69.09c1.85.42,2.36,1.36,2.48,1.7v2.83Q70,38.39,70,38.72Z"/><path class="cls-7" d="M70,37.57a9.42,9.42,0,0,0,.26-1.33,4.61,4.61,0,0,0-.32-2.76,5.13,5.13,0,0,0-3.67-1.93,5.31,5.31,0,0,0-3.76,1.53,2.08,2.08,0,0,0-.74,1.68h0a6.72,6.72,0,0,0,.11,1.38,3.76,3.76,0,0,0,.1.6,5.86,5.86,0,0,0,.31.88,1.87,1.87,0,0,1,.21-1.06h0a3.23,3.23,0,0,0,.63-2.37c.69,1.92,3.64,1.06,5.51,1.47a2.67,2.67,0,0,1,1,2.56A5.75,5.75,0,0,0,70,37.57Z"/></g></svg>