<svg xmlns="http://www.w3.org/2000/svg" viewBox="0 0 130 130"><defs><style>.cls-1{fill:#8dc540;}.cls-2{fill:#fec16e;}.cls-2,.cls-3,.cls-4,.cls-5,.cls-6,.cls-7{stroke:#000;stroke-linecap:round;stroke-linejoin:round;stroke-width:0.25px;}.cls-3{fill:#623391;}.cls-4{fill:#474747;}.cls-5{fill:#ff7f35;}.cls-6{fill:#e2eaf4;}.cls-7{fill:#fff;}</style></defs><g id="Layer_2" data-name="Layer 2"><circle class="cls-1" cx="65" cy="65" r="65"/></g><g id="Layer_1" data-name="Layer 1"><path class="cls-2" d="M60.49,65.79a17.55,17.55,0,0,1-1.73,4.77s1.68,5,1.16,8.77a40.57,40.57,0,0,1-.69,4.22L61.43,94c-.94,3.31-2.61,1.85-4.49-1,0,0-2.67-5.12-2.55-9.38a35.48,35.48,0,0,1-2.18-10.91l.71-9.58C56.57,62.66,59.39,63.22,60.49,65.79Z"/><path class="cls-3" d="M61.43,94a8.33,8.33,0,0,1,.2,3.68c-.43,1.43-3.74,3.75-5.32,3.94a2.17,2.17,0,0,1-2.47-1.9c.14-1.26,2.56-2.23,3-4.77.12-1.56.12-2,.12-2s1.42-.51,2,.52,1.21,1.52,1.77,1.31A1.37,1.37,0,0,0,61.43,94Z"/><path class="cls-2" d="M69.51,65.79a17.55,17.55,0,0,0,1.73,4.77s-1.68,5-1.16,8.77a40.57,40.57,0,0,0,.69,4.22L68.57,94c1,5.18,2.81,1.46,4.49-1,0,0,2.67-5.12,2.55-9.38a35.48,35.48,0,0,0,2.18-10.91l-.36-9.58C74.19,63.13,71.06,63.32,69.51,65.79Z"/><path class="cls-3" d="M68.57,94a8.33,8.33,0,0,0-.2,3.68c.43,1.43,3.74,3.75,5.32,3.94a2.17,2.17,0,0,0,2.47-1.9c-.14-1.26-2.56-2.23-3-4.77-.12-1.56-.12-2-.12-2s-1.42-.51-2,.52S69.87,95,69.31,94.79A1.37,1.37,0,0,1,68.57,94Z"/><path class="cls-4" d="M79.25,60.6l-2.57,3.51c-4.14-.81-8.17,2.36-8.17,2.36A20.32,20.32,0,0,1,64.31,60a48.61,48.61,0,0,0-2.82,6.51s-4-3.17-8.17-2.36L50.75,60.6l3.64-9.34a10.68,10.68,0,0,0,1.91,2,12.36,12.36,0,0,0,12.31,1.85,25.66,25.66,0,0,0,7-3.89Z"/><path class="cls-2" d="M53.32,64.11s.36,4.79-.77,7.55c-1.38,3.38-.78,10-.78,10L48,82.17a37.52,37.52,0,0,1-.16-18s-.09-3.63-.07-7.83c.63.46,2.6,1.55,6.84,1.3A43.72,43.72,0,0,1,53.32,64.11Z"/><path class="cls-5" d="M74,49.43s.26,1,.56,2.51a49.54,49.54,0,0,1,.77,5.61c4.39.32,6.27-.73,6.84-1.13,0-1.54,0-3.15-.07-4.7a55.45,55.45,0,0,0-.83-8.1,6.58,6.58,0,0,0-1.38-3.16C76.2,35.93,69.2,34.53,69.2,34.53H60.8s-7,1.4-10.72,5.93a6.58,6.58,0,0,0-1.38,3.16,55.45,55.45,0,0,0-.83,8.1c0,1.51,0,3.08-.07,4.58.63.46,2.6,1.55,6.84,1.3h0a47.69,47.69,0,0,1,.69-5.21c.33-1.76.64-3,.64-3,0,.21-.53,2.4-.64,3,6,7.34,14.5,5.21,19.26-.45C74.45,51.26,74.21,50.17,74,49.43Z"/><path class="cls-2" d="M82,82.17l-3.74-.51s.6-6.62-.78-10c-1.13-2.76-.77-7.55-.77-7.55a45,45,0,0,1-1.32-6.56c4.39.32,6.27-.73,6.84-1.13,0,4.16-.09,7.72-.09,7.72A37.33,37.33,0,0,1,82,82.17Z"/><path class="cls-6" d="M60.28,33.21a2.75,2.75,0,0,1,0,.29l-.83-1.19a2.66,2.66,0,0,1,.77.9Z"/><path class="cls-6" d="M70.54,32.33l-.82,1.17v-.29h0A2.82,2.82,0,0,1,70.54,32.33Z"/><path class="cls-6" d="M69.7,33.21a2.75,2.75,0,0,0,0,.29l.82-1.19a2.71,2.71,0,0,0-.76.9Z"/><path class="cls-6" d="M59.44,32.33l.82,1.17v-.29H60.2A2.73,2.73,0,0,0,59.44,32.33Z"/><path class="cls-2" d="M69.49,37.9a6.37,6.37,0,0,1,0,2.46c-.3.82-1.55,2.67-2.85,2.8a13.84,13.84,0,0,1-3.28,0c-1.29-.13-2.54-2-2.84-2.8a6.17,6.17,0,0,1,0-2.46"/><path class="cls-4" d="M70.62,32.21l-.08.12-.82,1.17v-.29c0-.62,0-2,0-3-.1-1.25-1.08-.91-1.73,0a3.42,3.42,0,0,1-1.51,1,3.84,3.84,0,0,1-2.94,0,3.36,3.36,0,0,1-1.51-1c-.64-.91-1.63-1.25-1.73,0-.06,1,0,2.37,0,3a2.75,2.75,0,0,1,0,.29l-.83-1.19-.07-.12a10,10,0,0,1-.69-4C59,26.59,60.05,24,65,24s6,2.55,6.29,4.14A9.65,9.65,0,0,1,70.62,32.21Z"/><path class="cls-2" d="M70,35.36a7.5,7.5,0,0,1-.71,3.06c-.65,1-1.76,2.79-2.6,2.94a9,9,0,0,1-1.5.11h-.42a9,9,0,0,1-1.5-.11c-.84-.15-1.95-1.92-2.61-3a7.68,7.68,0,0,1-.71-3c-1.09-.25-2.22-2.34-1.38-3a.72.72,0,0,1,.88,0l.83,1.19a2.75,2.75,0,0,0,0-.29c0-.62,0-2,0-3,.1-1.25,1.09-.91,1.73,0a3.36,3.36,0,0,0,1.51,1,3.84,3.84,0,0,0,2.94,0,3.42,3.42,0,0,0,1.51-1c.65-.91,1.63-1.25,1.73,0,0,1,0,2.37,0,3v.29l.82-1.17a.68.68,0,0,1,.86,0C72.25,33,71.14,35.11,70,35.36Z"/><path class="cls-4" d="M40.44,85.22c0,5.27-.72,9.52-1.62,9.52s-1.63-4.25-1.63-9.52.73-9.51,1.63-9.51S40.44,80,40.44,85.22Z"/><path class="cls-4" d="M38.82,75.71c-.9,0-1.63,4.25-1.63,9.51s.73,9.52,1.63,9.52H32.18c-.9,0-1.63-4.25-1.63-9.52s.73-9.51,1.63-9.51Z"/><path class="cls-4" d="M89.56,85.22c0,5.27.72,9.52,1.62,9.52s1.63-4.25,1.63-9.52-.73-9.51-1.63-9.51S89.56,80,89.56,85.22Z"/><path class="cls-4" d="M91.18,75.71c.9,0,1.63,4.25,1.63,9.51s-.73,9.52-1.63,9.52h6.64c.9,0,1.63-4.25,1.63-9.52s-.73-9.51-1.63-9.51Z"/><path class="cls-7" d="M90.94,85.22a.9.9,0,0,1-.9.9H39.73a.9.9,0,1,1,0-1.8H90A.9.9,0,0,1,90.94,85.22Z"/><path class="cls-2" d="M51.77,81.66A10.64,10.64,0,0,0,54,84c1,.6.12,1.86-.78,1.61,0,0,.35,2.07-.94,2.5a12.73,12.73,0,0,1-4,.08,1,1,0,0,1-.89-.81c-.27-1.37-.64-4.27.65-5.2Z"/><path class="cls-2" d="M78.23,81.66A10.64,10.64,0,0,1,76.05,84c-1,.6-.12,1.86.78,1.61,0,0-.35,2.07.94,2.5a12.73,12.73,0,0,0,4,.08,1,1,0,0,0,.89-.81c.27-1.37.64-4.27-.65-5.2Z"/></g></svg>