<svg xmlns="http://www.w3.org/2000/svg" viewBox="0 0 130 130"><defs><style>.cls-1{fill:#8dc540;}.cls-2{fill:#dadfef;}.cls-2,.cls-3,.cls-4,.cls-5,.cls-6,.cls-7{stroke:#000;stroke-linecap:round;stroke-linejoin:round;stroke-width:0.25px;}.cls-3{fill:#fec16e;}.cls-4{fill:#474747;}.cls-5{fill:#623391;}.cls-6{fill:#ee222b;}.cls-7{fill:none;}</style></defs><g id="Layer_2" data-name="Layer 2"><circle class="cls-1" cx="65" cy="65" r="65"/></g><g id="Layer_1" data-name="Layer 1"><path class="cls-2" d="M106.64,92.37V63.58a10,10,0,0,0-10-10h-63a10,10,0,0,0-10,10V92.37H20.74V63.58A13,13,0,0,1,33.67,50.64h63a13,13,0,0,1,12.94,12.94V92.37Z"/><path class="cls-3" d="M73,32.61s-9.7.23-11.41,2.52-.65,11.43-.65,11.43l.42,3.93s-.13,2.19,1.16,2.52c.68.17,1.18,1,1.5,1.78a1.26,1.26,0,0,0,1.59.68c.44-.17.91-.31,1.24-.41a1.22,1.22,0,0,0,.83-.76,2.9,2.9,0,0,0-.3-2.23A4.42,4.42,0,0,0,64,49.9,33.27,33.27,0,0,1,65,41.8a8,8,0,0,0,.2-5,3.78,3.78,0,0,1,.29,1.76c2.22,1,6.54,1.08,6.54,1.08a2.71,2.71,0,0,1,2.91.13"/><path class="cls-3" d="M70,77.22a4.33,4.33,0,0,1-3.62.84h-.05c-1.47-.32-6.1,1.24-9.59,3.18a14.94,14.94,0,0,1-6.38,2l-.06,0a1.11,1.11,0,0,1-.51.47l-.24.12-.14.06-.13.08-.2.12a3.58,3.58,0,0,0-.39.29s0,0,0,0l-.13.17,0,.07s0,0,0,0v.1l0,.07a3.5,3.5,0,0,0,.51.92,14,14,0,0,0,1.76,1.68c.2.19-.09,0,.09.17,2.94-.44,8.53-1.28,13.75-2a78.09,78.09,0,0,0,12.58-3.16c3.46-2.14,1.74-5.8-.67-8.44C75.6,74.57,70.69,76.68,70,77.22Z"/><path class="cls-4" d="M69.68,55.34c-3.37,1.29-5.8,13.16-1.36,17.32,1.2,1.12,1.44,6.68,1.44,6.68A6.19,6.19,0,0,0,76,78c4.24,1.35,5,.41,5,.41a24.23,24.23,0,0,0-.57-7.29,14.75,14.75,0,0,1-.72-4.41c0-3.4.55-8,.45-9.13Z"/><path class="cls-5" d="M50.25,83.77a1.17,1.17,0,0,0-.55.77c-.17.59.22,1.16.94,1.52s3.14.77,2.83,1.3l-.16.24a6.82,6.82,0,0,0-1,2.63v.13a4.83,4.83,0,0,0,.44,2.8,4.39,4.39,0,0,1,.58,1.64c-.09.55-1.2,1.19-1.43,1.17-.91-.09-1.81-1.3-2.86-2.46a6,6,0,0,1-1.25-3,10.92,10.92,0,0,0-.6-3c-.44-.77-1.47-3-.88-3.49a9.17,9.17,0,0,1,3.42-1S50.66,83,50.25,83.77Z"/><path class="cls-3" d="M72.78,29.66a4.88,4.88,0,0,1-.77,4l4.9,1c.42-.74,1.17-1.92,2.18-1.8.86.1,1.63.15,2-.55a2.75,2.75,0,0,0,.21-1.71c.5-.35.4-1.29.4-1.29s.75.24,1.14-.16S82.55,28,82.55,28a2.25,2.25,0,0,1,.11-2A3.51,3.51,0,0,0,83,23.86C75.18,18.37,74.07,23.73,72.78,29.66Z"/><path class="cls-4" d="M79.3,25.49s-1.08-.1-1.73,1.9L77,27.32s.14-1.66-1-1.83-1.35,1.62-1.35,1.62,0,2.76-.73,3.22a1.72,1.72,0,0,1-.52.22A.68.68,0,0,1,72.6,30a11.94,11.94,0,0,0-.86-3,4.4,4.4,0,0,1,.15-3.69s2.09-3.82,6-3.13a7.71,7.71,0,0,1,5.1,3.4.65.65,0,0,1-.48,1,2.1,2.1,0,0,1-1-.19c-1.36-.57-2.3-.38-2.22.32A6.59,6.59,0,0,1,79.3,25.49Z"/><path class="cls-6" d="M72.47,33.58s-2.87.77-4.14,4.76c-.36,1.12-.64,2.23-.87,3.26A37.82,37.82,0,0,0,67,49.35a69.72,69.72,0,0,0,1.81,12.27s-.7-1.88,5.66-1.45c2.75.19,5.3-3.65,5.3-3.65s1.74-6.4-.49-12.3a10.22,10.22,0,0,0-.71-4.63,8.64,8.64,0,0,1-1-3.24,3.37,3.37,0,0,0-1.87-2.51A4.3,4.3,0,0,0,72.47,33.58Z"/><path class="cls-3" d="M74,34.35a2.84,2.84,0,0,1,2.51,3.07c-.19,2.75-2.18,9.23-5.25,9.84s-3-5.53-3-5.53.19-6,2.84-7A5,5,0,0,1,74,34.35Z"/><path class="cls-7" d="M66.32,56.9a3.62,3.62,0,0,1,1.26,1.76"/><path class="cls-7" d="M67.17,56.39a3.74,3.74,0,0,1,1.26,1.77"/><path class="cls-7" d="M68,55.92a3.7,3.7,0,0,1,1.26,1.76"/><path class="cls-2" d="M113.11,98.2V69.4a10,10,0,0,0-10-10h-63a10,10,0,0,0-10,10V98.2H27.21V69.4A12.94,12.94,0,0,1,40.14,56.47h63A12.94,12.94,0,0,1,116,69.4V98.2Z"/><path class="cls-3" d="M70,35.41s-7.68,5.94-7.69,8.8,6.25,9.6,6.25,9.6l2.67,2.91s1.2,1.83,2.43,1.33a2.86,2.86,0,0,1,2.26.55,1.24,1.24,0,0,0,1.68-.4c.26-.39.55-.79.76-1.06a1.21,1.21,0,0,0,.22-1.1A2.9,2.9,0,0,0,77,54.42a4.42,4.42,0,0,0-4,.24,33,33,0,0,1-4-7.07,8,8,0,0,0-2.84-4.2,3.83,3.83,0,0,1,1.28,1.25c2.4-.48,5.9-3,5.9-3A2.72,2.72,0,0,1,75.75,40"/></g></svg>