<svg xmlns="http://www.w3.org/2000/svg" viewBox="0 0 130 130"><defs><style>.cls-1{fill:#19ab9e;}.cls-2{fill:#fec16e;}.cls-2,.cls-3,.cls-4{stroke:#000;stroke-linecap:round;stroke-linejoin:round;stroke-width:0.25px;}.cls-3{fill:#474747;}.cls-4{fill:#dadfef;}</style></defs><g id="Layer_2" data-name="Layer 2"><circle class="cls-1" cx="65" cy="65" r="65"/></g><g id="Layer_1" data-name="Layer 1"><path class="cls-2" d="M66.34,71.55s.25,6.56.14,8.54a2.17,2.17,0,0,1-.56,1.52,2.35,2.35,0,0,1-1.63.74,15.89,15.89,0,0,1-4.32,0c-1-.19-1.51-.22-1.55-.83a.75.75,0,0,1,.78-.79c.6,0,.52,0,1.74-.37a19.21,19.21,0,0,1,2.57-.66,1.2,1.2,0,0,0,.25-.89,4,4,0,0,0-.45-1.78A34.08,34.08,0,0,1,61.38,71"/><path class="cls-2" d="M36.49,55.78a3.74,3.74,0,0,0,3.67-2.5l4.45,7c-1.06.38-4.68,1.28-4.83,4.14-.06,1.14-.17,2.15-1.18,2.54a3.58,3.58,0,0,1-2.27-.12c-.57.57-1.78.23-1.78.23s.15,1-.46,1.46-1.46-.72-1.46-.72-.77-.74-2.68-.31a4.6,4.6,0,0,1-2.79,0C21.8,56,29,55.79,36.49,55.78Z"/><path class="cls-3" d="M29.72,63s.11-1.44,2.88-1.83l0-.74s-2.2-.2-2.16-1.69,2.42-1.4,2.42-1.4,3.58.69,4.36-.21a2.94,2.94,0,0,0,.4-.63.9.9,0,0,0-.53-1.21,15.51,15.51,0,0,1-3.75-1.81,5.84,5.84,0,0,0-4.85-.64s-5.44,1.86-5.42,7a10.15,10.15,0,0,0,3.26,7.41.85.85,0,0,0,1.4-.4,2.7,2.7,0,0,0,0-1.36c-.44-1.9,0-3.08.92-2.83S29.72,63,29.72,63Z"/><path class="cls-2" d="M69.58,87.11a2.57,2.57,0,0,1-.67,1.8,2.76,2.76,0,0,1-1.94.88,18.68,18.68,0,0,1-5.14,0c-1.24-.22-1.79-.25-1.84-1a.88.88,0,0,1,.93-.94c.7,0,.61,0,2.07-.44A21.08,21.08,0,0,1,66,86.66a1.39,1.39,0,0,0,.3-1,4.67,4.67,0,0,0-.54-2.13,40,40,0,0,1-2.29-7.23c-2.49-1.7-3.92-6.45-3.92-6.45-5.89-1.75-7-4.7-7-4.7a10.12,10.12,0,0,1-8.4-4c-5.47-2.35-4.72-6.28-4.72-6.28C40.66,47.09,49.6,44.41,49.6,44.41c7.46-9.3,19.78-10.48,19.78-10.48,3.82,3.3-1.49,11.51-2.88,17.66A16.42,16.42,0,0,1,60.84,55a8.14,8.14,0,0,0-3.54,2.43,7.65,7.65,0,0,0,1.46.43c1.6.29,3.44,2.06,4.86,3.69a15.39,15.39,0,0,1,2.88,5A29.5,29.5,0,0,0,67.89,70c1,2.07,1.52,6.91,1.52,6.91S69.71,84.74,69.58,87.11Z"/><path class="cls-2" d="M50.33,52.28c.59,1.27,4.07,4,7,5.11"/><path class="cls-2" d="M77.42,58.42s.79,1.29,4.24,1.29a66.36,66.36,0,0,0,8.94-1c1.21,1.32,1.06,2.75.23,4.24A11.9,11.9,0,0,0,84.89,64c-3.09,1.43-6.13,6.59-9.54,5.16s-5.11-5.9-5.11-5.9Z"/><path class="cls-4" d="M90.6,58.74a3.92,3.92,0,0,0,2.53-.92c1.3-1,5.4-2.53,6.46-.69a13.38,13.38,0,0,1,1.33,4.52s-1.47,4.6-1.8,4.6-2.25-3.87-4.74-3.73a17.24,17.24,0,0,0-3.55.46A3.57,3.57,0,0,0,90.6,58.74Z"/><path class="cls-2" d="M65.4,57s-1,13.27,2.14,15.41c1.93,1.33,4.08,2.42,12.58-.28a71.18,71.18,0,0,1,14.65-3.31c.66-1.94.91-3.78-.21-5.33a24.91,24.91,0,0,1-10.16.14c-5.32-1.1-8.17.68-8.17.68l-1.5,2.09a20,20,0,0,0,4-9.26C75.36,50.7,70.89,50.79,65.4,57Z"/><path class="cls-4" d="M94.56,63.53A3.84,3.84,0,0,0,98,62.89c1.61-1.29,4.1-2.9,5.3-1.47a45.75,45.75,0,0,1,2.82,4.77,12.33,12.33,0,0,1,1.45,4.17,3.4,3.4,0,0,0,1,2c1.52,1.43,1.11,4.66-.32,4s-7.61-7.41-13.55-7.55A8.56,8.56,0,0,0,94.56,63.53Z"/><path class="cls-4" d="M80.33,44.81a23.38,23.38,0,0,0-.56,6.42,13.69,13.69,0,0,1-1,6A13.42,13.42,0,0,0,65.4,57a9.4,9.4,0,0,1-.14-4.61c.55-2.63,1-3.73.41-4.88s-2.76-6.91-.59-10.88c0,0,3-4.51,9.79-2.3S80.33,44.81,80.33,44.81Z"/></g></svg>