<svg xmlns="http://www.w3.org/2000/svg" viewBox="0 0 130 130"><defs><style>.cls-1{fill:#6fcee0;}.cls-2{fill:#fec16e;}.cls-2,.cls-3,.cls-4,.cls-5,.cls-6,.cls-7,.cls-8,.cls-9{stroke:#000;stroke-linecap:round;stroke-linejoin:round;stroke-width:0.25px;}.cls-3{fill:none;}.cls-4{fill:#474747;}.cls-5{fill:#ee222b;}.cls-6{fill:#2d3077;}.cls-7{fill:#3a3a3a;}.cls-8{fill:#515151;}.cls-9{fill:#4c4c4c;}</style></defs><g id="Layer_2" data-name="Layer 2"><circle class="cls-1" cx="65" cy="65" r="65"/></g><g id="Layer_1" data-name="Layer 1"><path class="cls-2" d="M85.22,53.35a13,13,0,0,1-1.16.7,18.46,18.46,0,0,1-10.66,2.1A16.46,16.46,0,0,1,71,55.73h0a10,10,0,0,1-2.3-.42,6.65,6.65,0,0,1-1.28-.54c-1-.58-.65-2.24-.6-3.45a3.75,3.75,0,0,1,.89-2.58,2.66,2.66,0,0,1,1-.64,2.89,2.89,0,0,1,2,0c.39.12.77.28,1.13.43,1.19.48,2.13,0,3.44-.16h.11a14.89,14.89,0,0,1,5.72.17,16.86,16.86,0,0,1,2.1.47,3.65,3.65,0,0,1,2,4.33Z"/><path class="cls-2" d="M69.85,41.14c-.84-.55-3.72-1.18-4,0a.48.48,0,0,0-.38.25.45.45,0,0,0,0,.34.7.7,0,0,0-.25.23h0a.85.85,0,0,0-.12.5,1.34,1.34,0,0,0,.47,1c-.53,1.45,1.36,2.27,1.36,2.27,1.14.42,1.68-.16,2.56-.17a3.81,3.81,0,0,1,.92.15,11.21,11.21,0,0,1,2.7,1.61C75.64,49.72,77.66,53,81.18,54c1.51.4,4,.59,4.69-1.15s-1.33-3.26-2.56-4.22c-2.94-2.3-6.15-3.41-9.47-5A37.54,37.54,0,0,1,69.85,41.14Z"/><path class="cls-3" d="M69.44,64.92a1.53,1.53,0,0,0,0,.3"/><path class="cls-4" d="M72.23,58s-1.5,1.24-1.47,2.54a.89.89,0,0,1,0,.22,68.66,68.66,0,0,0-8.43.82,8.31,8.31,0,0,1-6.57-1.84h0a48.14,48.14,0,0,0-.87-6.35,3.9,3.9,0,0,0,4.47,1.16c1.59-.64,2.58-2,3.94-2.47,1.91-.73,7.91-1.06,9.81-1.15A4.85,4.85,0,0,1,72.23,58Z"/><path class="cls-2" d="M70.73,60.78c-.31,1.29-3.29,3.5-3.31,5.52a6.76,6.76,0,0,1-1.25,3.39,2.19,2.19,0,0,0-.41,1.78c-.44-.2-.73-.3-.73-.3s-5.82-.6-8-2.42A22.42,22.42,0,0,0,51.66,66c1.93-1.58,3.91-2.64,4.06-4.55a12.68,12.68,0,0,0,0-1.64A8.31,8.31,0,0,0,62.3,61.6,68.66,68.66,0,0,1,70.73,60.78Z"/><path class="cls-2" d="M84.82,83c-.69,2.54-3.09,5.1-4.08,6.91a5.8,5.8,0,0,0-.67,3.56c-1.48-.14-2,1.53-3.29,2s-1.15-2-1.15-2,1.58-5.51,1-9.72a7.93,7.93,0,0,1-.07-1c0-3.89,3.07-7.67,3.07-7.67s.2,3.27,5.79,3A17.36,17.36,0,0,1,84.82,83Z"/><path class="cls-5" d="M85.43,78.32C80,79.67,79.14,76.5,79.14,76.5l-5.51,1.13a20.37,20.37,0,0,1-5.8,2A8.23,8.23,0,0,0,68,77.75c-.12-2.08-2.19-3.26-3.33-3.74A2.18,2.18,0,0,1,65,72.23a6.85,6.85,0,0,0,1.17-3.43l11.1-.9a12.75,12.75,0,0,1,4.35.34c1.6.43,3.36,1.25,4,2.86A10.79,10.79,0,0,1,85.43,78.32Z"/><path class="cls-6" d="M84.89,101.87c-3.93.21-4.85-1.39-6.75-1.49l-2.8-.14a1.06,1.06,0,0,1-1-1.07c.06-1.83.29-5.53,1.28-5.74,0,0-.1,2.48,1.15,2s1.81-2.14,3.29-2a5.66,5.66,0,0,0,2.37,3.16c1,.5,1.44.72,2,1A5.64,5.64,0,0,0,86.6,98c.92,0,2.19.08,2.38.66C89.34,99.7,89.25,101.65,84.89,101.87Z"/><path class="cls-6" d="M68.64,104.81c-2,1.51-5.3,1.16-7,.85a5.29,5.29,0,0,1-1.85-.72,17.66,17.66,0,0,1-2-1.4,3.4,3.4,0,0,1-1.38-3.1l.09-1.74A3.68,3.68,0,0,1,58.36,96c-.07.2-1,2.77.16,2.63s.8-1.14,1.17-1.38a10.74,10.74,0,0,1,3.46-1.06c.05.77.31,3.51,1.42,4.44a7.23,7.23,0,0,0,3.22,1.27S70.11,102.84,68.64,104.81Z"/><path class="cls-2" d="M66.25,86.62c-2.78,3.8-3.59,8.23-3.11,9.37,0,0,0,.08,0,.2a10.74,10.74,0,0,0-3.46,1.06c-.37.24-.06,1.26-1.17,1.38s-.23-2.43-.16-2.63h0a12.88,12.88,0,0,0,.9-1.88c.44-1.77.37-8,.88-11.53a10.3,10.3,0,0,1,2.1-5.22s1,3,6,3A12.11,12.11,0,0,1,66.25,86.62Z"/><path class="cls-3" d="M61.68,75.08a6.78,6.78,0,0,1-1.43,2.28"/><path class="cls-3" d="M79.23,75.46a3,3,0,0,1-.63,1.6"/><path class="cls-7" d="M84.22,48.84a7.53,7.53,0,0,0,2.85.64,6.16,6.16,0,0,0,3.78-1.23c2.19-1.6,3.59-4.63,3.64-8.16.11-6.42-5.3-9.4-7.9-9.24a9.11,9.11,0,0,0-1.56.24,8.21,8.21,0,0,0-4.59,3.07,9.84,9.84,0,0,0-1.77,3.6C78.19,39.79,78.58,46.41,84.22,48.84Z"/><path class="cls-4" d="M84.31,47.63a6.22,6.22,0,0,0,2.43.55c2.79-.82,4.71-4,4.77-7.78.09-5.29-4.23-7.84-6.51-7.86a7.8,7.8,0,0,0-5.41,5.67C79.18,39.94,79.51,45.57,84.31,47.63Z"/><path class="cls-7" d="M86.15,42.47a2.45,2.45,0,0,0,1.58-.79c1.44-1.62.85-5.07-1.49-5a2.86,2.86,0,0,0-1.54.43C82.55,38.48,83.46,42.76,86.15,42.47Z"/><path class="cls-8" d="M48.26,44h.18l37.34-3.91a.68.68,0,0,0-.15-1.36L48.3,42.68a.67.67,0,0,0-.61.75A.68.68,0,0,0,48.26,44Z"/><path class="cls-4" d="M38.05,54.18a16.4,16.4,0,0,0,1.93.38,8.81,8.81,0,0,0,6.08-1.16c2.27-1.48,3.83-4.33,4.35-8.76C51.3,37,44.59,34.08,42,33.58a9.56,9.56,0,0,0-2.46-.15c-3.35.24-5.58,2.46-6.9,5.09A14.67,14.67,0,0,0,31.38,42C30.28,47.06,31.66,52.5,38.05,54.18Z"/><path class="cls-4" d="M38.19,52.84a12.19,12.19,0,0,0,1.62.32c3.7-.19,6.38-2.76,7-8.42.75-6.47-4.9-8.88-7.11-9.3a3.43,3.43,0,0,0-.34-.06c-4,.3-6.13,4-6.83,7.21C31.64,46.85,32.8,51.43,38.19,52.84Z"/><path class="cls-7" d="M40.18,47.39a2.71,2.71,0,0,0,1.45-.31c2.36-1.27,1.52-6.15-1-6.33a2.73,2.73,0,0,0-2.28.89C36.73,43.43,37.14,47.26,40.18,47.39Z"/><path class="cls-9" d="M28.63,46h.16L39.9,44.87a.7.7,0,0,0,.62-.75.68.68,0,0,0-.75-.61L28.66,44.59a.69.69,0,0,0-.62.75A.7.7,0,0,0,28.63,46Z"/><polygon class="cls-2" points="71.21 50.47 70.55 44.54 68.89 42.17 64.01 43.16 63.75 47.1 63.1 48.49 66.28 51.36 71.21 50.47"/><path class="cls-4" d="M67.33,29.52s-2.1-3.28-6.1-.8a6,6,0,0,0-2.53,4.93,11.74,11.74,0,0,0,1.13,5.68c1,2.24,2.6,6.6.31,8.81a4.13,4.13,0,0,0,4.21-.76c2.16-1.73,2-4.86,2-4.86"/><path class="cls-4" d="M74.28,33.62s0,0,0,0l-.28.24h0a3.45,3.45,0,0,1-1.4.44c-1.38.18-2.81-1.41-4.2-.54s-2,3.87-2,5c0,0-.11-2.29-1.63-1.74-.67.25-.73,1.14-.59,2.06A6.3,6.3,0,0,0,65,41.47a6.9,6.9,0,0,1-2.28-3.31S60.55,31,66.67,29.65,74.28,33.62,74.28,33.62Z"/><path class="cls-2" d="M74.79,36c.1.6.19,1.21.22,1.66.07,1.38.23,6.06-2.5,7.38-2.38.8-4.66-.63-6.11-1.91A7.57,7.57,0,0,1,65,41.47a6.3,6.3,0,0,1-.87-2.35c-.14-.92-.08-1.81.59-2.06,1.52-.55,1.63,1.74,1.63,1.74,0-1.14.59-4.14,2-5s2.82.72,4.2.54a3.45,3.45,0,0,0,1.4-.44h0a1.73,1.73,0,0,0,.28-.24s0,0,0,0S74.57,34.8,74.79,36Z"/><path class="cls-2" d="M72.88,52.52a13.19,13.19,0,0,1-1.16.71,18.46,18.46,0,0,1-10.66,2.1,17.93,17.93,0,0,1-2.39-.42h0a10.07,10.07,0,0,1-2.3-.42,6.56,6.56,0,0,1-1.27-.54c-1-.58-.65-2.24-.6-3.45a3.76,3.76,0,0,1,.89-2.59,2.77,2.77,0,0,1,1-.63,2.84,2.84,0,0,1,2,0c.39.12.76.28,1.12.43,1.19.48,2.14,0,3.45-.16h.11a14.89,14.89,0,0,1,5.72.17,17.56,17.56,0,0,1,2.1.46,3.88,3.88,0,0,1,1.94,2.2A3.78,3.78,0,0,1,72.88,52.52Z"/><path class="cls-2" d="M57.6,40.23c-.83-.55-3.69-1.23-4,0a.46.46,0,0,0-.39.24.42.42,0,0,0,0,.33.7.7,0,0,0-.25.23h0a.79.79,0,0,0-.13.5,1.35,1.35,0,0,0,.45,1c-.55,1.44,1.33,2.29,1.33,2.29,1.13.43,1.68-.13,2.56-.13a3.72,3.72,0,0,1,.91.16,10.68,10.68,0,0,1,2.68,1.65c2.56,2.42,4.52,5.74,8,6.73,1.5.43,4,.65,4.71-1.07s-1.29-3.28-2.5-4.26c-2.91-2.34-6.09-3.51-9.39-5.15A35.91,35.91,0,0,1,57.6,40.23Z"/><path class="cls-5" d="M70,73.75a8.23,8.23,0,0,1-.14,1.89,21.43,21.43,0,0,1-1.7,5c-4.92,1-6.46-1.79-6.46-1.79S54,80.46,51,78.45s-3.15-7.31-1-10.86a11.22,11.22,0,0,1,2.46-2.77,22.5,22.5,0,0,1,5.45,2.68c2.2,1.76,8,2.23,8,2.23a7.54,7.54,0,0,1,.74.28C67.78,70.49,69.85,71.67,70,73.75Z"/></g></svg>