<svg xmlns="http://www.w3.org/2000/svg" viewBox="0 0 130 130"><defs><style>.cls-1,.cls-6{fill:#c4b098;}.cls-2{fill:#fec16e;}.cls-2,.cls-3,.cls-4,.cls-5,.cls-6{stroke:#000;stroke-linecap:round;stroke-linejoin:round;stroke-width:0.25px;}.cls-3{fill:#474747;}.cls-4{fill:#623391;}.cls-5{fill:#6fcee0;}</style></defs><g id="Layer_2" data-name="Layer 2"><circle class="cls-1" cx="65" cy="65" r="65"/></g><g id="Layer_1" data-name="Layer 1"><path class="cls-2" d="M42.67,73.43a4.74,4.74,0,0,0-4.07.62l0,0c-1.37.92-6.74,1.23-11.1.68a55,55,0,0,1-9.24-2.19s-1.31-.18-1.33-.16c-.2-.16,1.37.17,1.1.15l-.3,0h-.16l-.16,0-.26,0a4.25,4.25,0,0,1-.51-.14l-.05,0-.2-.12-.06-.06s0,0,0,0l0-.08v-.1a4.3,4.3,0,0,1,.15-1.16,14.77,14.77,0,0,1,1.11-2.43c.12-.28-.08.08,0-.22,6.22.52,10.63.41,16.25-1a57.74,57.74,0,0,1,11.54-1.56l.64,8.68C44.7,74,43.57,73.69,42.67,73.43Z"/><path class="cls-3" d="M65.58,80.1c-1,1-6.5,2.94-11.88-.24-1.56-.92-9.14-.84-9.14-.84a49,49,0,0,0-.48-5.4c-.57-5.44,1.08-8,1.08-8,2-.27,6.1.36,8.78.84a20,20,0,0,0,6.42.14c3.47-.49,7.48-1.32,8.54-1.33Z"/><path class="cls-4" d="M18.27,72.49a1.3,1.3,0,0,1-.95-.44,1.51,1.51,0,0,1,.09-2,11.09,11.09,0,0,1,2.09-1.82s.87-.47.29-.81a1.59,1.59,0,0,0-.29-.15,9.47,9.47,0,0,1-2.67-2.16L16.74,65a5.35,5.35,0,0,1-1.08-2.92,4.91,4.91,0,0,0-.32-1.89,2.46,2.46,0,0,0-2-.36c-.83.58-1,2.23-1.43,3.9a6.57,6.57,0,0,0,.4,3.53,12.09,12.09,0,0,1,1,3.19c0,1,.21,3.72,1,3.83a10.11,10.11,0,0,0,3.81-.9S19.07,73,18.27,72.49Z"/><path class="cls-2" d="M101.78,76.68l-4.67,0,.75-4.81c1.4-.35,1.28-1.81,1.1-2.79A1.86,1.86,0,0,1,100,66.91a3.15,3.15,0,0,1,2,.12c.5-.49,1.55-.19,1.55-.19s-.13-.91.41-1.26,1.27.63,1.27.63a2.59,2.59,0,0,0,2.33.29,4,4,0,0,1,2.44,0C114.59,76.55,108.29,76.71,101.78,76.68Z"/><path class="cls-3" d="M107.37,70.41s-.11,1.25-2.52,1.57l0,.64s1.92.19,1.88,1.49-2.12,1.21-2.12,1.21-3.12-.63-3.8.16a2.2,2.2,0,0,0-.36.54.79.79,0,0,0,.45,1.06,13.4,13.4,0,0,1,3.27,1.6,5.07,5.07,0,0,0,4.22.59s4.76-1.59,4.77-6.11a8.86,8.86,0,0,0-2.8-6.49.74.74,0,0,0-1.22.34,2.36,2.36,0,0,0,0,1.19c.37,1.66,0,2.69-.82,2.46S107.37,70.41,107.37,70.41Z"/><path class="cls-5" d="M98,74.78a10,10,0,0,1-6.52,5.3,28.28,28.28,0,0,1-3.7.82,19.8,19.8,0,0,1-8.28-.54A31.65,31.65,0,0,0,65.65,80s-1-.21-1.36-8.18C64.12,68.39,69,65.3,69,65.3s14,.65,15.26.63a33.87,33.87,0,0,1,6.08.57A12.58,12.58,0,0,1,94,67.68a9.4,9.4,0,0,1,3.48,3A5.2,5.2,0,0,1,98,74.78Z"/><path class="cls-6" d="M69.08,41.19v6.4a.35.35,0,0,1-.35.35h0a.35.35,0,0,1-.35-.35v-6.4a.35.35,0,0,1,.35-.34h0A.35.35,0,0,1,69.08,41.19Z"/><path class="cls-6" d="M68.66,47.06c-1.14,0-2.07,2.11-2.07,4.7s.93,4.7,2.07,4.7,2.06-2.1,2.06-4.7S69.8,47.06,68.66,47.06Zm0,8.07c-.69,0-1.25-1.51-1.25-3.37s.56-3.37,1.25-3.37,1.25,1.51,1.25,3.37S69.35,55.13,68.66,55.13Z"/><path class="cls-2" d="M71,57.24s-.82-1.57-1.6-1.52-1.64,0-1.16-1c0,0,2.21-2.34,3.24-1.23.41.45,1.79,1.7,1.88,2.65Z"/><path class="cls-5" d="M94,71.08a50.43,50.43,0,0,0-6.41-4.29,19.69,19.69,0,0,1-3.54-2.4,59.57,59.57,0,0,0-4.85-3.69c-2.81-1.9-5-3.38-5.67-4.58a.6.6,0,0,0-.73-.28l-1.68.55a.52.52,0,0,0-.33.55,3.79,3.79,0,0,0,.66,1.64,42.8,42.8,0,0,0,3.32,3.51,57.88,57.88,0,0,0,4.47,4.64l.9.69a18.67,18.67,0,0,1,3.11,3A39.35,39.35,0,0,0,86.45,74c.58.5,2.12,1.57,3.52,2.51a3.44,3.44,0,0,0,4.21-.19A3.38,3.38,0,0,0,94,71.08Z"/></g></svg>