<svg xmlns="http://www.w3.org/2000/svg" viewBox="0 0 130 130"><defs><style>.cls-1{fill:#8dc540;}.cls-2{fill:#fec16e;}.cls-2,.cls-3,.cls-4,.cls-5{stroke:#000;stroke-linecap:round;stroke-linejoin:round;stroke-width:0.25px;}.cls-3{fill:#474747;}.cls-4{fill:#623391;}.cls-5{fill:#b9aebc;}</style></defs><g id="Layer_2" data-name="Layer 2"><circle class="cls-1" cx="65" cy="65" r="65"/></g><g id="Layer_1" data-name="Layer 1"><path class="cls-2" d="M94.78,68.54l-2.17,1.95-1-1.61a9.52,9.52,0,0,0-.92-4.55s-.35-1.4-.86-2.84a3.61,3.61,0,0,0,2.93-.32,7.07,7.07,0,0,1,2-1.12C94.87,62.54,94.85,65.38,94.78,68.54Z"/><path class="cls-3" d="M94.8,60.05a7.07,7.07,0,0,0-2,1.12,3.61,3.61,0,0,1-2.93.32A10.73,10.73,0,0,0,88.7,59a12,12,0,0,1-1.55-3.24C92.33,44.07,94.48,47.49,94.8,60.05Z"/><path class="cls-4" d="M98,67.79a3,3,0,0,1-.62-.6,3.92,3.92,0,0,0-.25-.32c-.53-.63-.72,1.39-1.46,2.12a2,2,0,0,1-2.36.51,3.75,3.75,0,0,1-1.22-1c-.44-.83-.79.67-.79.67s-.59,3.26-.09,4.84c.3,1,3.66.65,4.83.44a6.55,6.55,0,0,1,2,.11Z"/><path class="cls-2" d="M99.9,68.39l-4.69,4.1L93.85,69a60.42,60.42,0,0,0-.76-6.53c.83.33,3.23,1.19,4.51.18a7.05,7.05,0,0,1,.8-.54c0,1.28,0,2.77,0,3.55A4.31,4.31,0,0,0,99.9,68.39Z"/><path class="cls-3" d="M98.41,59.77s0,1.06,0,2.33a7.05,7.05,0,0,0-.8.54c-1.28,1-3.68.15-4.51-.18a.28.28,0,0,0,0-.13,15.67,15.67,0,0,0-1.76-4.85,8.7,8.7,0,0,1-.91-3.92l1.76-3.44a23.19,23.19,0,0,0-1.64,3.13C89.75,55,87,57.05,87,57.05a31.4,31.4,0,0,1-3.8,3.06,8.27,8.27,0,0,0-2.68,3.27,10.81,10.81,0,0,1-4.69,5C72.7,69.79,68.44,68,68.44,68l-1-11.78c1.55-1.5,5.39-2.9,5.39-2.9a34.09,34.09,0,0,1,11.52-8.62,31.39,31.39,0,0,1,7.17-3.22c3-.68,5.14,1.8,5.93,3.73s-.06,4.63.68,6.38S98.41,59.77,98.41,59.77Z"/><path class="cls-4" d="M94.23,69a3.85,3.85,0,0,0,1.22,1,2,2,0,0,0,2.36-.52c.74-.73.93-2.75,1.46-2.11a2.6,2.6,0,0,1,.25.31c.64.9,2.65,1.76,3.64,2.27l.16.08c1.16.59,3.19.45,4.48.3a2.34,2.34,0,0,1,1.57.14,2.23,2.23,0,0,1,.84,2.34c-.55,1.11-1.68,1.58-3.62,2.4a8.08,8.08,0,0,1-4.34.26,14.64,14.64,0,0,0-4.07-.57c-1.17.21-4.53.52-4.83-.44-.5-1.57.09-4.84.09-4.84S93.79,68.15,94.23,69Z"/><path class="cls-2" d="M36.11,73.43l4.8-.17-.14-6.53c-1.25.56-2.1.32-2.13-1.19,0-1-.25-1.92-1.18-2.22a3.23,3.23,0,0,0-2,.21c-.54-.48-1.6-.12-1.6-.12s.08-.94-.49-1.28-1.26.71-1.26.71-.66.71-2.39.41a4.2,4.2,0,0,0-2.5.13C22.94,73.91,29.42,73.77,36.11,73.43Z"/><path class="cls-3" d="M30.07,67.26s.17,1.28,2.66,1.49l.07.66s-2,.29-1.86,1.62,2.23,1.14,2.23,1.14,3.18-.8,3.92,0a2.41,2.41,0,0,1,.39.54.81.81,0,0,1-.42,1.11,14.24,14.24,0,0,0-3.27,1.8,5.22,5.22,0,0,1-4.31.8s-5-1.4-5.19-6a9.09,9.09,0,0,1,2.57-6.8.76.76,0,0,1,1.27.29,2.49,2.49,0,0,1,.06,1.22c-.3,1.72.17,2.76.95,2.49A7.81,7.81,0,0,1,30.07,67.26Z"/><path class="cls-5" d="M67.46,56.23A21,21,0,0,0,60.8,57.7a22.22,22.22,0,0,0-13.25,4.18,17,17,0,0,0-3.84,3.5,3.64,3.64,0,0,1-2.34,1.09,4.53,4.53,0,0,0-1.88,3.16,10.09,10.09,0,0,0,0,3.69s2,2.56,4.22,3.05,4.48-.15,6.17.34a5.12,5.12,0,0,0,2.68.19,5.48,5.48,0,0,1-.34-4.07,14.39,14.39,0,0,1,2.29-3.76l-3.35-1.32,4.26,1.69,5.34,2.15a6.71,6.71,0,0,0,3.47-1.35C65.28,69.11,68.44,68,68.44,68,70.87,64.16,67.74,60.69,67.46,56.23Z"/><path class="cls-2" d="M52.52,76.9a20.63,20.63,0,0,0,3.53-.51,7.9,7.9,0,0,1,4,.46,4.35,4.35,0,0,0,1.34.25,114.63,114.63,0,0,0,11.87,0A20.63,20.63,0,0,0,78,75.88l1.36.88a2.25,2.25,0,0,0,.73.3,18.9,18.9,0,0,0,4.94.23c3.47-.22,4.49-.31,4.46-1.41s-4.29-2.07-4.29-2.07-2.63-.84-4.38-1.2a21.57,21.57,0,0,0-4-.34s-2.8-.09-4.55-.17A29.27,29.27,0,0,1,66.86,71c-2.34-.57-7.14-.2-7.14-.2a32.53,32.53,0,0,0-5.25-1.73,14.39,14.39,0,0,0-2.29,3.76A5.48,5.48,0,0,0,52.52,76.9Z"/></g></svg>