<svg xmlns="http://www.w3.org/2000/svg" viewBox="0 0 130 130"><defs><style>.cls-1{fill:#848dc6;}.cls-2,.cls-3{fill:#fec16e;}.cls-2,.cls-4,.cls-5,.cls-6{stroke:#000;stroke-linecap:round;stroke-linejoin:round;stroke-width:0.25px;}.cls-4{fill:#623391;}.cls-5{fill:#ee222b;}.cls-6{fill:#474747;}</style></defs><g id="Layer_2" data-name="Layer 2"><circle class="cls-1" cx="65" cy="65" r="65"/></g><g id="Layer_1" data-name="Layer 1"><path class="cls-2" d="M80.22,99.25c-.44,2.84-1.64,5.16-2.66,7.8a28,28,0,0,0-1,3.47c-.18.74-1.45,2.62-2.25,2.12a.41.41,0,0,1-.34.06.38.38,0,0,1-.21-.18.42.42,0,0,1-.25,0,.56.56,0,0,1-.34-.21,1,1,0,0,1-.27-.82c-1.07-.53-.44-2-.44-2,.42-.83,1-.8,1.53-1.26a2.72,2.72,0,0,0,.43-.56,8.44,8.44,0,0,0,.66-2.33c.2-2.69-.41-5.59,1.06-8l.2-.3,0-.06c-.35-.42-.7-.83-1.08-1.25A11.49,11.49,0,0,1,73.08,92v0s0,0,0,0c-.33-1-.37-1.77-1.13-2.39-.23-.2-.48-.39-.7-.62a2.15,2.15,0,0,1-.75-1.34,2.27,2.27,0,0,1,.07-.92A2.87,2.87,0,0,1,72,85.09c.79-.48,1.78-1.32,2.55-.84a4.23,4.23,0,0,1,.82.67,7.79,7.79,0,0,1,1.13,1.39,14,14,0,0,1,1.15,1.47,14.12,14.12,0,0,1,2.43,8A2.44,2.44,0,0,1,80,96C80.66,96.86,80.36,98.29,80.22,99.25Z"/><path class="cls-2" d="M72.08,37.21A7.37,7.37,0,0,0,71.8,40h0c0,.14,0,.26,0,.39v0a7.55,7.55,0,0,1-.22,2.85,5.71,5.71,0,0,0-1.18,2.4h0c0,.09-.07.17-.1.26L68.82,52h0c-.18.61-.37,1.22-.54,1.81A11.18,11.18,0,0,0,67.82,56h0a6.49,6.49,0,0,0,5.72,3.23A31.65,31.65,0,0,0,75,54.05c0-.12,0-.25.08-.37.1-.53.15-.87.16-.92a14.9,14.9,0,0,0,.17-2.34,6.68,6.68,0,0,0-.51-2.92,1.57,1.57,0,0,0,.14-.38,2.37,2.37,0,0,0-.21-1.74,26.16,26.16,0,0,1,1.69-3.55,17.51,17.51,0,0,0,1.23-7.09A59.52,59.52,0,0,0,77.2,28c-.11-.92-.11-1.6-1.16-1.78s-1.11.65-1.19,1.54c-.17,1.72,0,3.35-.62,5S72.6,35.56,72.08,37.21Z"/><path class="cls-2" d="M58.56,37.11a7.34,7.34,0,0,1,.25,2.74v0a2.45,2.45,0,0,0,0,.38v0A7.63,7.63,0,0,0,59,43.14a5.66,5.66,0,0,1,1.15,2.41h0a2.67,2.67,0,0,1,.09.26l1.46,6.11h0c.18.61.35,1.22.52,1.82a10.91,10.91,0,0,1,.43,2.18h0a6.5,6.5,0,0,1-5.76,3.16,32.29,32.29,0,0,1-1.38-5.17c0-.13,0-.25-.07-.37-.09-.54-.14-.87-.15-.92a15.07,15.07,0,0,1-.14-2.35,6.66,6.66,0,0,1,.55-2.91,1.57,1.57,0,0,1-.14-.38,2.43,2.43,0,0,1,.23-1.74,25.89,25.89,0,0,0-1.64-3.57,17.54,17.54,0,0,1-1.14-7.11,59.72,59.72,0,0,1,.62-6.78c.11-.92.12-1.6,1.18-1.76s1.1.66,1.17,1.55c.15,1.73-.06,3.35.56,5S58.06,35.45,58.56,37.11Z"/><path class="cls-3" d="M62.93,94.07H63A8.55,8.55,0,0,1,67.58,94h0l-.06-.06c0-.15,0-.33-.06-.53a3.12,3.12,0,0,0-4.45.07Z"/><path class="cls-2" d="M73.73,80.59A28.65,28.65,0,0,0,72.22,77,15.62,15.62,0,0,1,73.73,80.59Z"/><path class="cls-2" d="M60.36,87.27a2.11,2.11,0,0,1-.67,1.38c-.21.23-.45.45-.66.65-.72.68-.72,1.47-1,2.45,0,0,0,0,0,0v0a11.58,11.58,0,0,1-2,3.92c-.36.44-.69.88-1,1.31l-.2.28,0,0c1.47,2.39.87,5.29,1.06,8a8,8,0,0,0,.67,2.33,2.4,2.4,0,0,0,.42.56c.51.46,1.11.43,1.53,1.26,0,0,.62,1.45-.43,2a1.07,1.07,0,0,1-.28.82.54.54,0,0,1-.33.21.46.46,0,0,1-.26,0,.49.49,0,0,1-.2.18.4.4,0,0,1-.34-.06c-.8.5-2.07-1.38-2.26-2.12a28,28,0,0,0-1-3.47c-1-2.64-2.22-5-2.65-7.8-.16-1.06-.51-2.71.42-3.46a14.14,14.14,0,0,1,2-7.9,12.81,12.81,0,0,1,1.07-1.52,7,7,0,0,1,1-1.45,4.42,4.42,0,0,1,.79-.71c.73-.53,1.76.27,2.59.69a2.91,2.91,0,0,1,1.51,1.46A2,2,0,0,1,60.36,87.27Z"/><path class="cls-3" d="M53.44,89.55a2.13,2.13,0,0,1,1-1.94,4.53,4.53,0,0,1,2-.85l.15,0a3.79,3.79,0,0,1,3.41.86,1.49,1.49,0,0,1,.4.8,1.85,1.85,0,0,1-.52,1.53,4.35,4.35,0,0,1-2.54,1.29,4.83,4.83,0,0,1-2,0h0A2.26,2.26,0,0,1,53.44,89.55Z"/><path class="cls-2" d="M77.15,86.73a4.63,4.63,0,0,0-2.88,1.11,1.06,1.06,0,0,0,0,.17l-.59.48a4.59,4.59,0,0,0-.92,2.77L70.7,90a4.2,4.2,0,0,1-.45.11,8.26,8.26,0,0,1-2,.23,1.89,1.89,0,0,0-.34.51,4.94,4.94,0,0,0-.42,2.53c0,.2,0,.38.06.53a.09.09,0,0,1,0,0l.1.52-2.32.62v0l-.06,0-.08,0v0l-2.33-.62s0-.16.09-.42v0c0-.16.06-.36.08-.58A4.94,4.94,0,0,0,62.73,91a2.1,2.1,0,0,0-.41-.65,9.45,9.45,0,0,1-2-.26,5.44,5.44,0,0,1-.54-.15c-.78,1.28-1.29,1.51-1.62,1.46-.72-.11-.74-1.53-1.9-2.86A5.61,5.61,0,0,0,54,87a4.45,4.45,0,0,1,2.42-3.09A17.08,17.08,0,0,1,58.51,77a29.53,29.53,0,0,0,1.18-7.51c5.64-2.35,11.36,0,11.36,0a24.47,24.47,0,0,0,.31,3.73A32.76,32.76,0,0,0,72.22,77a28.65,28.65,0,0,1,1.51,3.64,31.81,31.81,0,0,1,.92,3.51Z"/><path class="cls-3" d="M69.2,99.44l0,0s0,0,0,.06Z"/><path class="cls-4" d="M74.93,25.83l.37-1.74a1.84,1.84,0,0,1,1.28-1.4l4.34-1.33a1.76,1.76,0,0,1,1.58.3l0,0a1.73,1.73,0,0,1-.25,2.87L77,27.15a8.19,8.19,0,0,0-2-.4Z"/><path class="cls-4" d="M55.77,25.76,55.41,24a1.88,1.88,0,0,0-1.28-1.4l-4.32-1.35a1.74,1.74,0,0,0-1.59.29l0,0a1.73,1.73,0,0,0,.23,2.88l5.31,2.61a8.08,8.08,0,0,1,2-.38Z"/><path class="cls-5" d="M58.36,65.43c.19.76.38,1.43.56,2v0h0a18.17,18.17,0,0,0,.72,1.93l0,0a16,16,0,0,1,5.51-.85h.46A16.06,16.06,0,0,1,71,69.4h0s.16-.36.39-1h0a29.3,29.3,0,0,0,1.42-5.73c.53-2.13,1.05-4.17,1.22-4.75,0,0-4.65-1-6.27-2l-.91,1.26h0l0,.06a.68.68,0,0,1-.44.27,1.47,1.47,0,0,1-.51,0,2.21,2.21,0,0,0-1.37,0h0a.85.85,0,0,1-1-.27l-.87-1.33s-4,1.45-6.55,1.09C56.08,57,57.52,62.36,58.36,65.43Z"/><path class="cls-6" d="M61.36,98.36c0-.18,0-.37,0-.56a6,6,0,0,1,1.55-3.73L63,94a3.15,3.15,0,0,1,4.58-.12l.06.06a6.14,6.14,0,0,1,1.68,4.4c0,.29,0,2.16,0,3.36,0,.13-.35,1.36-2.54,1.84l-.7.1-.31.06c-.14,0-.28,0-.43,0s-.28,0-.42,0l-.31-.06-.7-.1c-1.87-.42-2.39-1.37-2.51-1.72V99C61.37,98.79,61.36,98.57,61.36,98.36Z"/><path class="cls-2" d="M69.91,99.59a1.87,1.87,0,0,0,.3-1c0-.82-.47-1.48-1-1.48v2.16C69.42,100.13,69.9,99.6,69.91,99.59Z"/><path class="cls-2" d="M60.79,99.59a1.86,1.86,0,0,1-.29-1c0-.82.46-1.48,1-1.48v2.16C61.28,100.13,60.8,99.6,60.79,99.59Z"/></g></svg>