<svg xmlns="http://www.w3.org/2000/svg" viewBox="0 0 130 130"><defs><style>.cls-1{fill:#c4b098;}.cls-2{fill:#fec16e;}.cls-2,.cls-3,.cls-4{stroke:#000;stroke-linecap:round;stroke-linejoin:round;stroke-width:0.25px;}.cls-3{fill:#623391;}.cls-4{fill:#474747;}</style></defs><g id="Layer_2" data-name="Layer 2"><circle class="cls-1" cx="65" cy="65" r="65"/></g><g id="Layer_1" data-name="Layer 1"><path class="cls-2" d="M59.64,40.86c-.21-2.35-.72-7.16-1.33-8.65,0,0-.39-5.93,0-7.49.3-1.09.59-2.24.73-2.83a.92.92,0,0,0-.15-.79,3.2,3.2,0,0,0-3.08-1.45,7,7,0,0,0-1.19.3.82.82,0,0,0-.45,1.14l.17.32a3.81,3.81,0,0,1,.39,1.69l0,2.83a9.38,9.38,0,0,1-.12,1.29A47.65,47.65,0,0,0,53.88,33a79.06,79.06,0,0,0,.36,8.41A38.38,38.38,0,0,1,55,49.09c-.13,2.63-.72,6.27-.46,7.91l2.65,1.41L63,53.8s-1.53-5.46-1.41-6.67A8.77,8.77,0,0,0,60.35,43,5.16,5.16,0,0,1,59.64,40.86Z"/><path class="cls-2" d="M70.36,40.85c.21-2.34.72-7.15,1.33-8.64,0,0,.39-5.93,0-7.49-.3-1.09-.59-2.23-.73-2.83a.92.92,0,0,1,.16-.8,3.19,3.19,0,0,1,3.07-1.44,7,7,0,0,1,1.19.3.82.82,0,0,1,.45,1.14l-.17.32a3.81,3.81,0,0,0-.39,1.69l0,2.83a9.38,9.38,0,0,0,.12,1.29A47.65,47.65,0,0,1,76.12,33a79.06,79.06,0,0,1-.36,8.41A38.38,38.38,0,0,0,75,49.09c.13,2.63.72,6.27.46,7.91l-2.65,1.41L67,53.8s1.53-5.46,1.41-6.67A8.81,8.81,0,0,1,69.65,43,5.16,5.16,0,0,0,70.36,40.85Z"/><path class="cls-2" d="M72.94,71.56a24.9,24.9,0,0,1-.32,5.82,9.65,9.65,0,0,0,.2,4.76,19.62,19.62,0,0,1,3.2,7.3s7-.83,10.77,1.78,2.11,4.7,2.11,4.7l-1.83,5a54,54,0,0,1-2.75,5.21,2.89,2.89,0,0,0-.23,2l.34.56a.69.69,0,0,1-.23.94h0a.69.69,0,0,1-.91-.16l-.63-.83s.24,1.65-.63,1.7c-.47,0-1.07-.69-.84-1.82,0,0-.16,1.62-1,1.66s-.83-1.64-.41-2.42c0,0-.68,2-1.75,1.85s.25-2.24.25-2.24a3.77,3.77,0,0,1-2.1.9c-1,0-.38-1.36.43-1.66a29.88,29.88,0,0,0,3.24-.83,2.85,2.85,0,0,0,.9-.77,6.72,6.72,0,0,0,1.43-3.43L82.61,98a.56.56,0,0,0-.57-.63,9.07,9.07,0,0,1-3.79-.88,1.29,1.29,0,0,0-1.42.21c-.64.52-3.53.9-5.86-.14a2.92,2.92,0,0,0-2.7,0,1.87,1.87,0,0,0-.6.55c-.58.88.39,4.16.39,4.16H61.94s1-3.28.39-4.16a1.87,1.87,0,0,0-.6-.55,2.92,2.92,0,0,0-2.7,0c-2.33,1-5.22.66-5.86.14a1.29,1.29,0,0,0-1.42-.21,9.07,9.07,0,0,1-3.79.88.56.56,0,0,0-.57.63l.46,3.65a6.72,6.72,0,0,0,1.43,3.43,2.85,2.85,0,0,0,.9.77,29.88,29.88,0,0,0,3.24.83c.81.3,1.46,1.63.43,1.66a3.77,3.77,0,0,1-2.1-.9s1.32,2.14.25,2.24-1.75-1.85-1.75-1.85c.42.78.46,2.46-.41,2.42s-1-1.66-1-1.66c.23,1.13-.37,1.81-.84,1.82-.87-.05-.63-1.7-.63-1.7l-.63.83a.69.69,0,0,1-.91.16h0a.69.69,0,0,1-.23-.94l.34-.56a2.89,2.89,0,0,0-.23-2A54,54,0,0,1,42.93,101l-1.83-5s-1.64-2.08,2.11-4.7S54,89.44,54,89.44a19.62,19.62,0,0,1,3.2-7.3,9.65,9.65,0,0,0,.2-4.76,24.9,24.9,0,0,1-.32-5.82Z"/><path class="cls-3" d="M66.61,72.93c5.66-.16,7.15-1.88,7.15-1.88,1.45-.26,2.29-2.18,1.68-2.92a2.1,2.1,0,0,1-.63-1.88s.66-.23.35-2.61,1.37-5.47,1.37-5.47c-2-3.12-5.43-4.29-9.53-4.64,0,0-.54,3.24-1.13,4a8.25,8.25,0,0,0-1,2.3h0a5.6,5.6,0,0,0-.74-2.3c-.59-.74-1.13-4-1.13-4-4.1.35-7.56,1.52-9.53,4.64,0,0,1.68,3.09,1.37,5.47s.35,2.61.35,2.61a2.1,2.1,0,0,1-.63,1.88c-.61.74.23,2.66,1.68,2.92,0,0,1.49,1.72,7.15,1.88Z"/><path class="cls-2" d="M61.07,102.73c-.08.72-.57,1.26-1.09,1.2s-.87-.69-.79-1.41.57-1.27,1.09-1.21S61.15,102,61.07,102.73Z"/><path class="cls-2" d="M69.12,102.73c.08.72.56,1.26,1.08,1.2s.88-.69.79-1.41-.56-1.27-1.08-1.21S69,102,69.12,102.73Z"/><path class="cls-4" d="M69.83,104.94a16,16,0,0,1-1.56,3.83,4.06,4.06,0,0,1-4,1.51A3.94,3.94,0,0,1,61,108.06a16.51,16.51,0,0,1-.83-4.06s-.23-3.2,1.51-5.23a4.33,4.33,0,0,1,4.06-1.49h0a4.27,4.27,0,0,1,3.61,2.23C70.65,101.83,69.83,104.94,69.83,104.94Z"/></g></svg>