<svg xmlns="http://www.w3.org/2000/svg" viewBox="0 0 130 130"><defs><style>.cls-1{fill:#cb70ad;}.cls-2{fill:#fec16e;}.cls-2,.cls-3,.cls-4,.cls-5,.cls-6{stroke:#000;stroke-linecap:round;stroke-linejoin:round;stroke-width:0.25px;}.cls-3{fill:#623391;}.cls-4{fill:#ff7f35;}.cls-5{fill:#474747;}.cls-6{fill:#dadfef;}</style></defs><g id="Layer_2" data-name="Layer 2"><circle class="cls-1" cx="65" cy="65" r="65"/></g><g id="Layer_1" data-name="Layer 1"><path class="cls-2" d="M46.07,61.35a44.17,44.17,0,0,0-6.43-.56,16,16,0,0,1-6-.83,16.71,16.71,0,0,0-4.75-.53c-.76-1-.75-2,.74-2.55a30.85,30.85,0,0,0,3.77-.2c4-1,14-.37,14-.37"/><path class="cls-3" d="M30.34,59.74c.09-.14,0-.32-.43-.37s-1,0-1.05-.58c0,0,1.43-.17,1.1-1.19a1.46,1.46,0,0,0-1.09-1.11l-2.55-.72a3.92,3.92,0,0,0-2.26-.63,1.75,1.75,0,0,0-1.69,1.93,2.54,2.54,0,0,0,1.12,1.73,4.81,4.81,0,0,0,1.94.48h.06l.08.05a7,7,0,0,0,2.51.77C29.21,60.23,30,60.17,30.34,59.74Z"/><path class="cls-2" d="M46.59,64.57a47.3,47.3,0,0,1-6.45-.15,15.78,15.78,0,0,0-6.09.25,16.82,16.82,0,0,1-4.78.07c-.86,1-.94,1.89.49,2.61a30.94,30.94,0,0,1,3.74.56c3.93,1.33,13.88,1.81,13.88,1.81"/><path class="cls-3" d="M30.78,64.57c.08.16,0,.32-.46.33s-1-.13-1.1.48c0,0,1.41.31,1,1.29a1.46,1.46,0,0,1-1.19,1l-2.61.47a3.91,3.91,0,0,1-2.31.41,1.76,1.76,0,0,1-1.5-2.09,2.52,2.52,0,0,1,1.28-1.61,4.71,4.71,0,0,1,2-.29h.06l.09,0A6.87,6.87,0,0,1,28.57,64C29.7,64,30.47,64.11,30.78,64.57Z"/><path class="cls-4" d="M46.6,70.48c-.29-.52-1.53-5-.87-5.82h0A3,3,0,0,1,47.57,63h0a3.69,3.69,0,0,1-1.87-1.54h0c-.66-.84.79-5.29,1.08-5.81s1.69-.46,1.69-.46c1.23-.12,10.17.05,12.9.31a14.06,14.06,0,0,1,1.39.27,3.21,3.21,0,0,0-.14,2.84,14.67,14.67,0,0,1,1,2.55c.27,1.6-.6,3.16-.76,4.76a5.47,5.47,0,0,0,1.38,4.1c-3.84.92-14.36.89-15.73.76C48.54,70.82,46.89,71,46.6,70.48Z"/><path class="cls-2" d="M102.61,77.94c.12.66-.17,2.94-.65,3a5.5,5.5,0,0,1-3.35-1.35,3.36,3.36,0,0,0-2.3-1.33c-.6,0-3.32.23-7.11-2.12a17.27,17.27,0,0,0-3.6-1.8,6.2,6.2,0,0,1-4.58-3,13.41,13.41,0,0,1-4.85-1.26h0a9.32,9.32,0,0,1-2.92-.54,8.4,8.4,0,0,0-3.85-.4,24.13,24.13,0,0,1-3.41.22h-.11c-1.71.76-2.49,1-2.84.93a5.68,5.68,0,0,1-1-1.6.23.23,0,0,1-.05-.11,7.49,7.49,0,0,1-.32-1,6.83,6.83,0,0,1-.11-1.09,2.91,2.91,0,0,1,0-.3.89.89,0,0,1,0-.23c.16-1.68,1.08-3.33.8-5a15.13,15.13,0,0,0-1.07-2.68,2.89,2.89,0,0,1,.07-2.73c2,.27,4.66.94,4.66.94a23.64,23.64,0,0,1,3.23.18,8.76,8.76,0,0,0,3.9-.42l.54-.16a10.11,10.11,0,0,1,2.54-.32A13.19,13.19,0,0,1,81,54.46a6.24,6.24,0,0,1,4.58-3,17.27,17.27,0,0,0,3.6-1.8c3.79-2.34,6.51-2.16,7.11-2.12a3.36,3.36,0,0,0,2.3-1.33A5.65,5.65,0,0,1,102,44.83c.48.08.77,2.35.65,3s-2.39,2.66-3,2.2A4,4,0,0,0,98,49.46s-3.07.61-4.18,1.8-3.67,1.4-3.67,1.4c-1.13,2.49-5,3.6-5,3.6a5.82,5.82,0,0,1-1.8,2.64h0a9.73,9.73,0,0,1-1.32,1c-.24.16-.65.4-.76.45h.13l0,0v0a3.71,3.71,0,0,1,2,.37l0,0,.26,3.93-.09.06a3.85,3.85,0,0,1-2.09.54v0a.13.13,0,0,1,0,.07,1.83,1.83,0,0,0,.23.28h0c.6.34,3,1.88,3.45,3.86,0,0,3.85,1.1,5,3.59,0,0,2.53.23,3.67,1.41S98,76.34,98,76.34a3.93,3.93,0,0,0,1.66-.62C100.22,75.27,102.51,77.27,102.61,77.94Z"/><path class="cls-2" d="M61.91,68.59a6.36,6.36,0,0,1-.32-1A7.49,7.49,0,0,0,61.91,68.59Z"/><path class="cls-2" d="M76.17,70.1l-.6,0,.57,0S76.16,70.1,76.17,70.1Z"/><path class="cls-5" d="M92.34,62.66a3.53,3.53,0,0,1-3.08,3.87,10.46,10.46,0,0,1-6-1.23,5.75,5.75,0,0,1-1.73-1.85,5.32,5.32,0,0,1-.05-.81v-.09a4.13,4.13,0,0,1,.05-.71,1.77,1.77,0,0,1,.37-.57,5.93,5.93,0,0,1,2.67-1.77,12.58,12.58,0,0,1,4.71-.72C90.2,58.85,92.34,59.61,92.34,62.66Z"/><path class="cls-6" d="M100,100.5v-71a.85.85,0,0,1,.84-.84h0a.85.85,0,0,1,.84.84v71a.85.85,0,0,1-.84.84h0A.85.85,0,0,1,100,100.5Z"/><path class="cls-2" d="M99.64,75.72c.57-.45,2.87,1.55,3,2.22s-.18,2.94-.67,3a5.63,5.63,0,0,1-3.34-1.36"/><path class="cls-2" d="M98.61,46.19A5.57,5.57,0,0,1,102,44.83c.49.08.77,2.36.67,3s-2.41,2.66-3,2.2"/></g></svg>