<svg xmlns="http://www.w3.org/2000/svg" viewBox="0 0 130 130"><defs><style>.cls-1{fill:#c6b29a;}.cls-2{fill:#474747;}.cls-2,.cls-3,.cls-4,.cls-6,.cls-7,.cls-8{stroke:#000;stroke-linecap:round;stroke-linejoin:round;stroke-width:0.25px;}.cls-3,.cls-5{fill:#fec16e;}.cls-4{fill:#b9aebc;}.cls-6{fill:none;}.cls-7{fill:#ee222b;}.cls-8{fill:#6fcee0;}</style></defs><g id="Layer_2" data-name="Layer 2"><circle class="cls-1" cx="65" cy="65" r="65"/></g><g id="Layer_1" data-name="Layer 1"><polygon class="cls-2" points="44.23 12.82 40.18 52.22 41.4 52.16 45.63 13.08 44.23 12.82"/><polygon class="cls-2" points="86.17 12.21 90.22 51.61 89 51.55 84.77 12.47 86.17 12.21"/><path class="cls-3" d="M56.88,57.24l-1.39-2.07a5.53,5.53,0,0,0-4.11.38s-4.23-1.78-7.68-1.24c-1.26.2-3.42-1-3.42-1a1.52,1.52,0,0,1-.85-.84c-.23-.53-1.75-.4-2.14-.06a2.61,2.61,0,0,0-.45,2.13c.25.29.45.54,1.45.42a2.61,2.61,0,0,1,2.05.33c.33.32,2.15.84,5.33,2.22,1.95.85,8,2.59,9.47,2.13Z"/><path class="cls-4" d="M40.93,51.48c-1.46-.6-2.94.36-3.33,2.15a3.81,3.81,0,0,0,1.92,4.3c1.45.6,2.94-.36,3.33-2.14A3.84,3.84,0,0,0,40.93,51.48Zm-.21.93a2.74,2.74,0,0,1,1.36,3.07A1.78,1.78,0,0,1,39.72,57a2.75,2.75,0,0,1-1.36-3.07A1.78,1.78,0,0,1,40.72,52.41Z"/><path class="cls-5" d="M39.58,55l.69-1.67h0s2.16,1.17,3.42,1a8.63,8.63,0,0,1,1.15-.1L43.8,56.76a25.45,25.45,0,0,1-3.46-1.44A1.34,1.34,0,0,0,39.58,55Z"/><path class="cls-6" d="M40.27,53.33h0s2.16,1.17,3.42,1a8.63,8.63,0,0,1,1.15-.1"/><path class="cls-6" d="M43.8,56.76a25.45,25.45,0,0,1-3.46-1.44,1.34,1.34,0,0,0-.76-.32"/><path class="cls-3" d="M38.49,54.41a.25.25,0,0,1-.28.23l-.68-.11a.25.25,0,0,1-.19-.31.26.26,0,0,1,.28-.23l.68.12A.25.25,0,0,1,38.49,54.41Z"/><path class="cls-3" d="M38.71,53.93a.27.27,0,0,1-.32.21L37.61,54a.26.26,0,0,1-.21-.31.27.27,0,0,1,.32-.21l.78.15A.27.27,0,0,1,38.71,53.93Z"/><path class="cls-3" d="M38.85,53.37a.27.27,0,0,1-.31.21l-.79-.16a.27.27,0,0,1,.11-.53l.78.16A.27.27,0,0,1,38.85,53.37Z"/><path class="cls-3" d="M39.05,52.87a.27.27,0,0,1-.32.21L38,52.92a.26.26,0,0,1-.21-.31.27.27,0,0,1,.32-.21l.78.15A.27.27,0,0,1,39.05,52.87Z"/><path class="cls-3" d="M62.69,90.54a71.56,71.56,0,0,0,0,8.12,17.15,17.15,0,0,1-.39,6.6,18.2,18.2,0,0,0-.18,5.19c-1.08.91-2.08,1-2.82-.58a34.73,34.73,0,0,0-.53-4.08c-1.37-4.3-1.65-16.22-1.65-16.22"/><path class="cls-7" d="M62.23,108.6c-.18-.06-.34.09-.28.55s.3,1.06-.35,1.26c0,0-.54-1.47-1.54-.86a1.58,1.58,0,0,0-.89,1.43l-.1,2.89a4.2,4.2,0,0,0-.09,2.54,1.91,1.91,0,0,0,2.47,1.29A2.72,2.72,0,0,0,63,116.07a5.23,5.23,0,0,0,0-2.17.06.06,0,0,1,0-.06.54.54,0,0,1,0-.1,7.82,7.82,0,0,0,.17-2.85C63,109.67,62.78,108.87,62.23,108.6Z"/><path class="cls-3" d="M66.33,90.54a69.25,69.25,0,0,1,0,8.12,17.15,17.15,0,0,0,.4,6.6,41.08,41.08,0,0,1,.18,5.19c1.08.91,2.07,1,2.82-.58a34.73,34.73,0,0,1,.53-4.08c1.36-4.3,1.67-16.31,1.67-16.31"/><path class="cls-7" d="M67,108.07c.18,0,.33.11.25.57s-.36,1,.28,1.27c0,0,.63-1.43,1.58-.77a1.59,1.59,0,0,1,.81,1.49l-.07,2.88a4.19,4.19,0,0,1-.06,2.54,2,2,0,0,1-2.64,1.18,2.62,2.62,0,0,1-1.34-1.74,5.19,5.19,0,0,1,.12-2.17v-.06s0-.06,0-.11a7.59,7.59,0,0,1,0-2.85C66.12,109.1,66.42,108.31,67,108.07Z"/><path class="cls-2" d="M73.33,89.17c-.56.31-6.08,2-7,1.27l-.93-.71-.8-8-.79,8-.92.71c-.91.71-6.43-1-7-1.27s0-2.06,0-2.06c-.13-1.34.21-7.91.5-10.88a11.74,11.74,0,0,1,.29-1.51,3.53,3.53,0,0,0,3.08.16,15.67,15.67,0,0,1,2.77-1.1c1.74-.29,3.44.66,5.17.83a5.91,5.91,0,0,0,4.46-1.5,69.63,69.63,0,0,1,1.1,14S73.9,88.85,73.33,89.17Z"/><path class="cls-8" d="M72.11,72.78c-.06-.25-.14-.49-.21-.72s-.61-2.67-.61-2.67a49.58,49.58,0,0,0-.6-6.77,8.36,8.36,0,0,0,1.37-4.78c-.07.07-.07.15-1.89-1.79-1.65-1.76-1.38-2.18-1.38-2.18a3.26,3.26,0,0,1-1.13-1H61.85a3.36,3.36,0,0,0-2.28,2.75,13.79,13.79,0,0,1-2,4.8h0a7.91,7.91,0,0,0,.3.9,7.3,7.3,0,0,1,.4,3.47c-.1.82-.2,1.78-.25,2.73a15.36,15.36,0,0,1-.63,3.57,31.23,31.23,0,0,0-.64,3.59c.79.58,5,1.15,11,1,1.63,0,3.32-1.5,4.51-2.58Z"/><path class="cls-3" d="M73.06,56.83l1.43-2a5.59,5.59,0,0,1,4.1.47s4.28-1.69,7.71-1.08c1.25.23,3.43-.9,3.43-.9a1.55,1.55,0,0,0,.88-.82c.24-.52,1.75-.36,2.13,0s.68,1.86.41,2.14-.46.53-1.45.39a2.64,2.64,0,0,0-2.06.29c-.34.31-2.17.79-5.38,2.1-2,.81-8.07,2.42-9.51,1.93Z"/><path class="cls-4" d="M87.12,55.68c.35,1.79,1.82,2.78,3.28,2.22a3.84,3.84,0,0,0,2-4.27c-.35-1.79-1.81-2.78-3.28-2.22A3.84,3.84,0,0,0,87.12,55.68Zm4.52-1.76a2.73,2.73,0,0,1-1.42,3,1.77,1.77,0,0,1-2.33-1.57,2.74,2.74,0,0,1,1.43-3A1.77,1.77,0,0,1,91.64,53.92Z"/><path class="cls-5" d="M90.4,55l-.65-1.68h0s-2.18,1.13-3.43.9a8.61,8.61,0,0,0-1.15-.12l1,2.57a27.67,27.67,0,0,0,3.5-1.36A1.34,1.34,0,0,1,90.4,55Z"/><path class="cls-6" d="M89.75,53.28h0s-2.18,1.13-3.43.9a8.61,8.61,0,0,0-1.15-.12"/><path class="cls-6" d="M86.14,56.63a27.67,27.67,0,0,0,3.5-1.36A1.34,1.34,0,0,1,90.4,55"/><path class="cls-3" d="M91.5,54.4a.26.26,0,0,0,.28.23l.69-.1a.26.26,0,0,0,.19-.3.25.25,0,0,0-.27-.23l-.69.1A.26.26,0,0,0,91.5,54.4Z"/><path class="cls-3" d="M91.3,53.91a.27.27,0,0,0,.31.22l.78-.14a.27.27,0,0,0,.22-.32.27.27,0,0,0-.31-.21l-.79.14A.26.26,0,0,0,91.3,53.91Z"/><path class="cls-3" d="M91.16,53.34a.27.27,0,0,0,.32.22l.78-.14a.27.27,0,0,0-.09-.53l-.79.14A.28.28,0,0,0,91.16,53.34Z"/><path class="cls-3" d="M91,52.84a.28.28,0,0,0,.31.22l.79-.14a.27.27,0,0,0,.21-.31.26.26,0,0,0-.31-.22l-.78.14A.26.26,0,0,0,91,52.84Z"/><path class="cls-8" d="M69,59.48l2.69.87,3.89-.85a3.12,3.12,0,0,1-1.43-1.89,3.23,3.23,0,0,1,.8-2.81,16.27,16.27,0,0,0-3.83-1.54,16.62,16.62,0,0,0-4-.52h-5a24.72,24.72,0,0,0-4.36,1,26.21,26.21,0,0,0-3.36,1.37,2.53,2.53,0,0,1-1,4.48l3.14,1.09,3.15-.35"/><path class="cls-3" d="M66.53,50.84c.74,1.14.81,3.23-.18,4.17a3.06,3.06,0,0,1-2.89.85,1.59,1.59,0,0,1-.88-.74,4.43,4.43,0,0,1-.19-4l0,0,4.06-.27Z"/><path class="cls-2" d="M68.59,47.27l-.06.07-.58.8v-.2c0-.41,0-1.28,0-1.94-.07-.84-.77-1.4-1.23-.79a2.42,2.42,0,0,1-1.08.65,2.9,2.9,0,0,1-2.09,0,2.38,2.38,0,0,1-1.07-.65c-.46-.61-1.16-.05-1.23.79,0,.66,0,1.53,0,1.94a1.35,1.35,0,0,1,0,.2l-.59-.81,0-.08a6.56,6.56,0,0,1-.5-2.72c.2-1.08,1-3.1,4.49-3.1s4.3,2,4.48,3.1A6.36,6.36,0,0,1,68.59,47.27Z"/><path class="cls-3" d="M68.17,49.4a5.59,5.59,0,0,1-.43,1.92.46.46,0,0,1-.09.17,6.43,6.43,0,0,1-2.13,2,4.94,4.94,0,0,1-.93.06h-.1a4.73,4.73,0,0,1-.84-.06,6.7,6.7,0,0,1-2.12-2l-.06-.08a5.28,5.28,0,0,1-.45-2c-.78-.16-1.59-1.58-1-2a.51.51,0,0,1,.62,0l.59.81a1.25,1.25,0,0,0,0-.2c0-.43,0-1.29,0-2,.07-.85.78-1.41,1.23-.8a2.39,2.39,0,0,0,1.07.66,2.8,2.8,0,0,0,2.09,0,2.43,2.43,0,0,0,1.08-.66c.47-.61,1.16-.05,1.23.8,0,.66,0,1.52,0,2v.2l.59-.81a.5.5,0,0,1,.6,0C69.75,47.82,69,49.24,68.17,49.4Z"/></g></svg>