<svg xmlns="http://www.w3.org/2000/svg" viewBox="0 0 130 130"><defs><style>.cls-1{fill:#cb70ad;}.cls-2{fill:#fec16e;}.cls-2,.cls-3,.cls-4,.cls-5{stroke:#000;stroke-linecap:round;stroke-linejoin:round;stroke-width:0.25px;}.cls-3{fill:#474747;}.cls-4{fill:#623391;}.cls-5{fill:#6fcee0;}</style></defs><g id="Layer_2" data-name="Layer 2"><circle class="cls-1" cx="65" cy="65" r="65"/></g><g id="Layer_1" data-name="Layer 1"><path class="cls-2" d="M65.23,71.72a73.33,73.33,0,0,0-19.76-2.43c-10.58.24-23,.86-23,.86s-.93,1.61-1.53,2.67c-1.89,3.32,1.57,6.54,4.86,3.59A20.72,20.72,0,0,1,35,77.7c5.24,1.88,11.94,3,13.88,2.23l.07,0a6,6,0,0,1,5.18.36,35.92,35.92,0,0,0,9.63,3.84"/><path class="cls-3" d="M77.3,73.6s-8.07-2.27-12.07-1.88c0,0-2.2,3.22-1.73,10.11s1.57,9.1,1.57,9.1,10.66-.71,12.94-.47,7.92,1.55,12-.79c4.78-2.74,4.94-11.74,4.94-11.74C90.06,73.46,84.69,70.44,77.3,73.6Z"/><path class="cls-4" d="M25.44,76.26a2.33,2.33,0,0,1-1.8.62c-.93-.19-1.73-1.44-2-2.6s.9-4,.9-4,.66-1.24-.3-1.19l-.45,0A8,8,0,0,1,18,68.78l-.19-.07a7.55,7.55,0,0,1-3.55-2.59,6.9,6.9,0,0,0-1.86-2,2.48,2.48,0,0,0-2.15.86,15.47,15.47,0,0,0,.9,6,9.29,9.29,0,0,0,3.23,3.82s3,1.8,3.71,2.94,3.16,4.19,4.2,3.68c1.7-.84,3.77-4,3.77-4S26.78,76.24,25.44,76.26Z"/><path class="cls-2" d="M91,43.77,90.44,45l-6.87,1c.28-1.8-1.49-2.37-2.72-2.64a2.34,2.34,0,0,1-2.08-2.3,4,4,0,0,1,1.1-2.25c-.33-.82.53-1.9.53-1.9s-1.12-.29-1.28-1.1,1.36-1.16,1.36-1.16,1.08-.47,1.47-2.59a5.06,5.06,0,0,1,1.19-2.83C97.09,28.75,94.22,36.19,91,43.77Z"/><path class="cls-3" d="M86.65,33.25s1.41.73.62,3.7l.73.35s1.15-2.14,2.65-1.47.38,3.06.38,3.06-1.82,2.35-1.23,3.53S91,43.77,91,43.77A29.44,29.44,0,0,1,94.74,41a6.4,6.4,0,0,0,2.73-4.65s.45-6.32-4.82-8.53a11.15,11.15,0,0,0-9.82.59s.14,1.37,2.09,1.71c2.11.37,3.11,1.35,2.47,2.14S86.65,33.25,86.65,33.25Z"/><path class="cls-5" d="M89.94,44.89a12.65,12.65,0,0,1,6.41,8.47,37.55,37.55,0,0,1,1,12.17s.06,7.82-2.41,12.4c0,0-8.52-3.88-12.88-3.94s-4.46-.29-4.46-.29,2.23-1.59,2.11-3.94a15.62,15.62,0,0,0-.6-3.32,15.87,15.87,0,0,1-.58-4.75c.06-2.32.38-5.37,1.54-7.28a13.76,13.76,0,0,0,1.82-5,5.6,5.6,0,0,1,2.87-4.11A6.55,6.55,0,0,1,89.94,44.89Z"/><path class="cls-2" d="M83.06,59.84s-.74,6.24,1.06,11.25a93.35,93.35,0,0,0,.08,11.76c.47,5.57,1.51,8,0,9.37s-7.47,1.18-8.06,2.94S84,96.28,85.89,96s2.52-1.88,2.64-3.23.88-6.47.88-6.47a77.66,77.66,0,0,0,1.12-8.64c-.06-2-.12-4.59-.12-4.59A90.27,90.27,0,0,0,92.06,64a24.28,24.28,0,0,0-.25-4"/><path class="cls-5" d="M92.71,60.88c-2.42,1.65-5.68,2-10.35,0V56.12a5.17,5.17,0,0,1,5.17-5.18h0a5.18,5.18,0,0,1,5.18,5.18Z"/></g></svg>