<svg xmlns="http://www.w3.org/2000/svg" viewBox="0 0 130 130"><defs><style>.cls-1{fill:#848dc6;}.cls-2{fill:#c4b098;}.cls-2,.cls-3,.cls-4,.cls-5{stroke:#000;stroke-linecap:round;stroke-linejoin:round;stroke-width:0.25px;}.cls-3{fill:#fec16e;}.cls-4{fill:#ee222b;}.cls-5{fill:#474747;}</style></defs><g id="Layer_2" data-name="Layer 2"><circle class="cls-1" cx="65" cy="65" r="65"/></g><g id="Layer_1" data-name="Layer 1"><path class="cls-2" d="M56.17,52.12C54.58,52,53.1,54.17,52.85,57s.8,5.3,2.39,5.44,3-2.07,3.31-4.93S57.74,52.26,56.17,52.12Zm-.81,9c-.91-.09-1.49-1.84-1.3-3.94s1.07-3.71,2-3.63,1.49,1.84,1.3,3.93S56.26,61.16,55.36,61.08Z"/><path class="cls-3" d="M33.75,69.06a11.19,11.19,0,0,0,5.51-2.64,5.33,5.33,0,0,1,3.3-1.08c2.11,0,3.91-2.08,3.91-2.08l3.76-1.92a3,3,0,0,1,2.11-.23,1.31,1.31,0,0,0,1.55-.64,4.81,4.81,0,0,0,.7-2.7s-1.49,1-1.9.12.87-1.66.87-1.66l-.42-.7s-.34-.16-1.55,1a2.14,2.14,0,0,0-1.78,1.86,4.44,4.44,0,0,1-2,1.28c-1.18.35-6,.39-7.81,1.82s-5.95,1.15-5.95,1.15l-2,.11a.58.58,0,0,0-.42.81A14.23,14.23,0,0,0,33.75,69.06Z"/><path class="cls-4" d="M57.42,43.5l-.79,8.89a.49.49,0,0,1-.53.44h0a.48.48,0,0,1-.44-.53l.8-8.88A.47.47,0,0,1,57,43h0A.47.47,0,0,1,57.42,43.5Z"/><path class="cls-3" d="M27.29,62.05l4.7.54-.72,5.72c-1,.2-1.88.51-2.11,1.68-.19,1-.4,1.87-1.33,2.09a3.17,3.17,0,0,1-2-.37c-.57.43-1.58,0-1.58,0s0,.92-.58,1.21-1.19-.8-1.19-.8-.59-.74-2.31-.58a4.08,4.08,0,0,1-2.44-.33C14.41,60.55,20.76,61.19,27.29,62.05Z"/><path class="cls-5" d="M20.88,67.64s.27-1.25,2.73-1.26l.12-.65S21.83,65.3,22,64s2.29-.94,2.29-.94,3.05,1,3.84.32a2,2,0,0,0,.42-.5.79.79,0,0,0-.32-1.12,14.13,14.13,0,0,1-3.07-2A5.15,5.15,0,0,0,21,58.61s-5,1-5.56,5.54a9,9,0,0,0,2,6.87.75.75,0,0,0,1.27-.19,2.45,2.45,0,0,0,.16-1.2c-.16-1.71.38-2.69,1.13-2.36S20.88,67.64,20.88,67.64Z"/><path class="cls-3" d="M98.55,61.52s-14.44-.52-16.69.42a7.07,7.07,0,0,0-1.48.83,2.68,2.68,0,0,1-1.43.5l-8.12-.09.6,9.56,5.21-1.65a9.91,9.91,0,0,0,5.73-1.5s10.23-3.15,14.88-3S103,69.25,103,69.25s1.2,2.46,2.29,2a1.28,1.28,0,0,0,.67-1.43l-1-5.23s-1.42-.95-1.27-2.14-.64-3-2-2.67A10.65,10.65,0,0,0,98.55,61.52Z"/><path class="cls-3" d="M101.73,61.94s-15.13-.31-17.41.54a33.26,33.26,0,0,0-3.78,1.65l-6.91.13,1,8.9,5.21-1.65A9.82,9.82,0,0,0,85.54,70s10.24-3.15,14.89-3a12.63,12.63,0,0,1,7.44,2.7s2.25,2,3.37,1.59,1.22-.84,1.22-.84A2,2,0,0,0,111.24,69a2.85,2.85,0,0,0-.62-1.74A18.61,18.61,0,0,0,108.14,65s-1.42-1-1.27-2.14-.64-3-2-2.67A10.65,10.65,0,0,0,101.73,61.94Z"/><path class="cls-5" d="M73.68,62.67a11.85,11.85,0,0,1,.64,6s1.4,4.23.6,6.26c0,0-.85.8-6.13,1.18A34.91,34.91,0,0,1,60.9,76l-2-11,.51-2.88s4.45-.81,6.65.89C66,63,71,62.14,73.68,62.67Z"/><path class="cls-3" d="M48.59,87.38l.08,0a.47.47,0,0,1,.09-.06l.13-.08.07,0"/><path class="cls-3" d="M50.77,87.45s0,0,0,0l0,0"/><path class="cls-4" d="M60.79,64.77s0-3.43-2.53-3.15-4.64,1.85-6.77,1.81A17.21,17.21,0,0,1,46.28,62a6.15,6.15,0,0,0-2.68-.32S35,59.05,32.32,62.1s-1.69,4.13-1.69,4.13l1.18,2.67A8.11,8.11,0,0,0,36,73.06a22.83,22.83,0,0,0,10.08,1.67s5.42-1,8.31,0,4.62,2,5.93,1.28.68-2.93.68-2.93Z"/><path class="cls-2" d="M60.82,55.79c-1.59-.08-3,2.18-3.11,5.05s1,5.26,2.62,5.33,3-2.2,3.1-5.06S62.4,55.86,60.82,55.79Zm-.42,9c-.92,0-1.58-1.77-1.48-3.88s.92-3.75,1.84-3.7,1.55,1.77,1.46,3.86S61.3,64.82,60.4,64.77Z"/><path class="cls-3" d="M34.5,69.42a14.77,14.77,0,0,0,6.84-1.78,7.06,7.06,0,0,1,4-.57,8,8,0,0,0,4.88-1.47l4.68-1.33a4.07,4.07,0,0,1,2.49.1,1.67,1.67,0,0,0,1.9-.4,4.43,4.43,0,0,0,1.25-2.58s-1.89.75-2.22-.17S59.6,59.7,59.6,59.7l-.37-.76s-.37-.21-2,.73a2.5,2.5,0,0,0-2.37,1.57,5.49,5.49,0,0,1-2.48,1c-1.43.16-7-.54-9.37.6s-7.09.23-7.09.23l-2.3-.19a.59.59,0,0,0-.62.73A12.68,12.68,0,0,0,34.5,69.42Z"/><path class="cls-4" d="M61.71,47.13,61.29,56a.48.48,0,0,1-.51.46h0a.48.48,0,0,1-.46-.51l.42-8.91a.48.48,0,0,1,.51-.46h0A.48.48,0,0,1,61.71,47.13Z"/></g></svg>