<svg xmlns="http://www.w3.org/2000/svg" viewBox="0 0 130 130"><defs><style>.cls-1{fill:#ff7f35;}.cls-2{fill:#fec16e;}.cls-2,.cls-3,.cls-4,.cls-5{stroke:#000;stroke-linecap:round;stroke-linejoin:round;stroke-width:0.25px;}.cls-3{fill:#474747;}.cls-4{fill:#6fcee0;}.cls-5{fill:#623391;}</style></defs><g id="Layer_2" data-name="Layer 2"><circle class="cls-1" cx="65" cy="65" r="65"/></g><g id="Layer_1" data-name="Layer 1"><path class="cls-2" d="M60.27,80s-1.53,4.43-3.39,6.16A14.09,14.09,0,0,0,54,90.46a1.19,1.19,0,0,0-.07.72c.19.83.56,2.83-.09,3.1a17.12,17.12,0,0,1-2.95.58.89.89,0,0,1-.87-.4,4,4,0,0,1-.69-1.68,3,3,0,0,1,1.14-2.35,2.11,2.11,0,0,0,.62-.71l2-4.14a1.08,1.08,0,0,0,.11-.4c.06-.77.38-3.59,1.87-5.28"/><path class="cls-2" d="M70.09,67.89,66.45,68l-.57-3.17a3.23,3.23,0,0,0,2-2.75,1.43,1.43,0,0,1,.79-1.73,2.42,2.42,0,0,1,1.54.07c.39-.38,1.21-.16,1.21-.16s-.11-.7.31-1,1,.48,1,.48a2,2,0,0,0,1.82.21,3.09,3.09,0,0,1,1.89,0C80.05,67.69,75.15,67.86,70.09,67.89Z"/><path class="cls-3" d="M75.15,62.84s.16,1-1.59,1.67l.1.49s1.48-.22,1.7.77S74,67.08,74,67.08s-2.47.13-2.83.85a2,2,0,0,0-.17.48.61.61,0,0,0,.55.71,10.58,10.58,0,0,1,2.76.58,3.94,3.94,0,0,0,3.3-.37s3.28-2.11,2.42-5.52a6.89,6.89,0,0,0-3.36-4.35.57.57,0,0,0-.85.49,1.83,1.83,0,0,0,.22.9c.6,1.18.49,2-.14,2S75.15,62.84,75.15,62.84Z"/><path class="cls-4" d="M70.52,77.14a11.33,11.33,0,0,0,1.23-4.49,10.08,10.08,0,0,0-1.23-5.19s-1.4-2.35-5.23-2.76-8,1.11-8.94.79-.91-1-1.53-.42c-.66,7.83-2.84,12.3-7,12.4,0,0,3.54,2.89,11.37,2.56,0,0,3.58,0,4.9-1.69l.8-1.7.75.18Z"/><path class="cls-2" d="M55.05,50A10.4,10.4,0,0,0,61,49.49,32.86,32.86,0,0,1,70,48.35a85.3,85.3,0,0,0,8.81-1.48,5.4,5.4,0,0,1,5.27,1.32,1.69,1.69,0,0,1-.29,2.74,19.23,19.23,0,0,0-8.33,1.24,32.06,32.06,0,0,1-7.54,2.21l-3.59.82s-5,2.62-7.3,1.95C55.4,54.37,53.19,51.37,55.05,50Z"/><path class="cls-5" d="M82.59,46.79a5.55,5.55,0,0,1,1.93-2.45c1.14-.56,3.72,2.24,3.72,2.24a7.91,7.91,0,0,0,2.47,2.18c1.38.66,3.82,1.94,4.41,3.63s-1.65,1.55-1.65,1.55h0A7,7,0,0,0,90,52.74c-1.63-.13-3.92-.49-4.8-1.45"/><path class="cls-2" d="M56.21,53a10.48,10.48,0,0,0,5.85-1A32.84,32.84,0,0,1,71,50,77.87,77.87,0,0,0,82,46.87c4,1.64,4.38,3.17,3.07,4.44a19.21,19.21,0,0,0-8.17,2,30.93,30.93,0,0,1-7.26,2.86l-3.48,1.14s-4.6,3-7.05,2.58C56.87,57.44,54.76,55,56.21,53Z"/><path class="cls-3" d="M42.69,75S38.21,69,40.45,64.32,52.7,49.67,52.7,49.67s9,8.7,12.12,9.67a19.41,19.41,0,0,1-4.16,5.21c-2.42,2-5.09,3.82-4.76,5.08C51.25,78.41,46.85,80.11,42.69,75Z"/><path class="cls-2" d="M70.52,77.14a14.8,14.8,0,0,1-2.06,6.76,7,7,0,0,0-.74,4,8.07,8.07,0,0,1-1.67,4.82l-1.53,4.62a4,4,0,0,0,0,2.49,1.66,1.66,0,0,1-.48,1.88,4.48,4.48,0,0,1-2.63,1.15s.83-1.86-.08-2.23-1.56,1.22-1.56,1.22l-.75-.4s-.2-.38.81-1.93a2.51,2.51,0,0,1,1.67-2.31,5.48,5.48,0,0,0,1.08-2.44c.21-1.42-.25-7,1-9.33s.52-7.07.52-7.07L64,76a.59.59,0,0,1,.76-.59A12.78,12.78,0,0,1,70.52,77.14Z"/></g></svg>