<svg xmlns="http://www.w3.org/2000/svg" viewBox="0 0 130 130"><defs><style>.cls-1{fill:#c4b098;}.cls-2,.cls-3{fill:#fec16e;}.cls-10,.cls-2,.cls-4,.cls-6,.cls-7,.cls-9{stroke:#000;stroke-linecap:round;stroke-width:0.25px;}.cls-2,.cls-4,.cls-6,.cls-7,.cls-9{stroke-linejoin:round;}.cls-4{fill:#ee222b;}.cls-5{fill:#7c411e;}.cls-6{fill:#474747;}.cls-7{fill:#623391;}.cls-8{fill:#1a1a1a;}.cls-10,.cls-9{fill:#dadfef;}.cls-10{stroke-miterlimit:10;}</style></defs><g id="Layer_2" data-name="Layer 2"><circle class="cls-1" cx="65" cy="65" r="65"/></g><g id="Layer_1" data-name="Layer 1"><path class="cls-2" d="M101.92,33.91a19.11,19.11,0,0,1-.83,4.18,14.76,14.76,0,0,0-.25,1.84c0,.4-.57,1.44-1,1.24a.2.2,0,0,1-.17,0,.21.21,0,0,1-.11-.07.29.29,0,0,1-.32-.07.54.54,0,0,1-.2-.4c-.58-.2-.35-1-.35-1,.15-.45.47-.48.69-.75a1,1,0,0,0,.18-.32,4.31,4.31,0,0,0,.19-1.23c-.08-1.4-.59-2.84,0-4.17v0c-.1-.18-.2-.36-.31-.53s-.31-.47-.49-.71A6.09,6.09,0,0,1,98,29.89v0c-.12-.52-.1-.93-.46-1.29-.1-.11-.22-.23-.32-.36a1.11,1.11,0,0,1-.31-.73A1.26,1.26,0,0,1,97,27a1.54,1.54,0,0,1,.82-.72c.44-.2,1-.58,1.36-.29a2.4,2.4,0,0,1,.39.39,4.73,4.73,0,0,1,.5.78,6.52,6.52,0,0,1,.51.82,7.34,7.34,0,0,1,.82,4.14C102,32.43,101.93,33.34,101.92,33.91Z"/><path class="cls-2" d="M93.22,53.4A3.9,3.9,0,0,0,93,52h0a1.07,1.07,0,0,1-.07-.19v0a3.81,3.81,0,0,1-.26-1.45A3,3,0,0,0,93,49h0a.68.68,0,0,0,0-.14l0-3.25h0c0-.33,0-.66,0-1a6.15,6.15,0,0,0-.06-1.15h0a3.37,3.37,0,0,0-3.29-.87,17.46,17.46,0,0,0,0,2.77c0,.06,0,.13,0,.19,0,.28,0,.46,0,.48a7.41,7.41,0,0,0,.22,1.2,3.47,3.47,0,0,0,.64,1.39,1.49,1.49,0,0,0,0,.21,1.26,1.26,0,0,0,.33.84,13.18,13.18,0,0,1-.38,2,9.15,9.15,0,0,0,.32,3.71,32.62,32.62,0,0,0,1.16,3.32c.17.45.26.79.81.74s.47-.47.4-.93a9,9,0,0,1-.35-2.59C92.83,55.06,93.18,54.29,93.22,53.4Z"/><path class="cls-2" d="M94.7,53.48a4.14,4.14,0,0,1,.24-1.41h0c0-.07,0-.13.07-.19v0a3.72,3.72,0,0,0,.28-1.45,2.94,2.94,0,0,1-.25-1.36h0c0-.05,0-.1,0-.15l.08-3.24h0c0-.33,0-.66,0-1a7.18,7.18,0,0,1,.07-1.15h0a3.37,3.37,0,0,1,3.3-.81,15.91,15.91,0,0,1,0,2.76c0,.07,0,.13,0,.2,0,.28,0,.45,0,.48a7.38,7.38,0,0,1-.24,1.19,3.54,3.54,0,0,1-.66,1.38,1.49,1.49,0,0,1,0,.21,1.26,1.26,0,0,1-.35.84,13.57,13.57,0,0,0,.35,2,9.11,9.11,0,0,1-.38,3.7A30.44,30.44,0,0,1,96,58.8c-.18.45-.28.79-.83.73s-.46-.48-.38-.94A9,9,0,0,0,95.15,56C95.07,55.15,94.73,54.37,94.7,53.48Z"/><path class="cls-2" d="M96.25,26.62l-2.41,2-.09-.25v.25l-2.4-2a1.38,1.38,0,0,0,.92-.47,1,1,0,0,0,.17-.27,2.56,2.56,0,0,0,.22-1.31l0-.27a0,0,0,0,1,0,0l0-.26,1.2-.33h.07L95,24s0,.08,0,.21v0a2,2,0,0,0,0,.3,2.4,2.4,0,0,0,.17,1.27,1.2,1.2,0,0,0,.21.34A1.38,1.38,0,0,0,96.25,26.62Z"/><path class="cls-2" d="M95.83,22c0,.09,0,.19,0,.28a3.1,3.1,0,0,1-.8,1.93l0,0a1.72,1.72,0,0,1-1.22.54,1.66,1.66,0,0,1-1.15-.48l0,0A3.17,3.17,0,0,1,91.72,22c0-.16,0-1.12,0-1.74,0-.07.18-.7,1.31-1l.36,0,.17,0H94l.16,0,.37,0c1,.21,1.23.71,1.29.89v1.47C95.82,21.78,95.83,21.89,95.83,22Z"/><path class="cls-2" d="M98.38,29.48a8.93,8.93,0,0,1-1.08,3.59A15.16,15.16,0,0,0,96.69,37a8.4,8.4,0,0,1-5.87,0A13.1,13.1,0,0,0,90.66,35a17.05,17.05,0,0,0-.45-2,9,9,0,0,1-1.08-3.64,10.63,10.63,0,0,1,0-1.47,5.68,5.68,0,0,1,.06-.61,4.62,4.62,0,0,1,1-.69,4.57,4.57,0,0,1,.85-.34,4.76,4.76,0,0,1,1.26-.17,5.58,5.58,0,0,1,1.5.21,5.62,5.62,0,0,1,1.57-.21,4.76,4.76,0,0,1,1.3.21,3.58,3.58,0,0,1,.79.33,4.55,4.55,0,0,1,.93.66,6.22,6.22,0,0,1,.06.65A11,11,0,0,1,98.38,29.48Z"/><path class="cls-3" d="M87.75,28.5a1.11,1.11,0,0,1,.49-1,2.52,2.52,0,0,1,1-.44h.08a2,2,0,0,1,1.77.44.82.82,0,0,1,.2.42.92.92,0,0,1-.27.79,2.28,2.28,0,0,1-1.31.67,2.71,2.71,0,0,1-1,0h0A1.14,1.14,0,0,1,87.75,28.5Z"/><path class="cls-4" d="M99.16,29a2.31,2.31,0,0,1,1.6-.58,3.6,3.6,0,0,0-1.9-2.57,2.43,2.43,0,0,0-1.58-.11,2.36,2.36,0,0,0-.92.54,2.64,2.64,0,0,1-5.13,0A2.4,2.4,0,0,0,90,25.79a2.54,2.54,0,0,0-1.5.38A4.33,4.33,0,0,0,86.54,29a2.2,2.2,0,0,1,1.49.37A2.42,2.42,0,0,1,89,31.41l.35-.69c0,.15.08.31.13.46a10.33,10.33,0,0,0,.77,1.89,17.05,17.05,0,0,1,.45,2A13.1,13.1,0,0,1,90.82,37a8.4,8.4,0,0,0,5.87,0,15.16,15.16,0,0,1,.61-3.88,3.55,3.55,0,0,0,.77-1.86c0-.17,0-.51.1-.53s.21.25.3.49A2.52,2.52,0,0,1,99.16,29Z"/><path class="cls-2" d="M91.41,21.36a.92.92,0,0,0-.16.53c0,.43.24.77.54.77V21.54C91.66,21.08,91.41,21.35,91.41,21.36Z"/><path class="cls-2" d="M96.12,21.36a.92.92,0,0,1,.15.53c0,.43-.23.77-.53.77V21.54C95.87,21.08,96.12,21.35,96.12,21.36Z"/><path class="cls-5" d="M91.78,21.44v0Z"/><path class="cls-6" d="M95.81,21.4a4.73,4.73,0,0,0,.14-.7,2.38,2.38,0,0,0-.16-1.43,2.54,2.54,0,0,0-3.88-.21,1.07,1.07,0,0,0-.39.87h0a3.93,3.93,0,0,0,.06.72,3.06,3.06,0,0,0,.05.32,3,3,0,0,0,.17.46.92.92,0,0,1,.11-.56h0a1.69,1.69,0,0,0,.33-1.23c.35,1,1.89.55,2.87.76a1.41,1.41,0,0,1,.55,1.34A3,3,0,0,0,95.81,21.4Z"/><path class="cls-7" d="M93.29,59.46l0,.92a1,1,0,0,1-.45.87l-2,1.23a.87.87,0,0,1-.83.06h0a.9.9,0,0,1-.25-1.47l2.33-2A4.29,4.29,0,0,0,93.18,59Z"/><path class="cls-7" d="M94.59,59.52l0,.92a1,1,0,0,0,.45.88l2,1.24a.91.91,0,0,0,.83.07h0a.9.9,0,0,0,.26-1.47l-2.31-2a4,4,0,0,1-1.07-.08Z"/><path class="cls-8" d="M97.38,39c0-.08-.12-.49-.29-1v0h0a8.76,8.76,0,0,0-.37-1l0,0a8.22,8.22,0,0,1-2.85.44h-.24a8.39,8.39,0,0,1-2.8-.42h0s-.08.18-.2.51h0c-.1.29-.23.7-.38,1.2a18.28,18.28,0,0,0-.54,2.11A11,11,0,0,0,89.57,43a10,10,0,0,1,1.61.24,9.28,9.28,0,0,1,1.75.61l.06-.55h0l0,0a.33.33,0,0,1,.23-.13.74.74,0,0,1,.26,0,1.23,1.23,0,0,0,.71,0h0a.44.44,0,0,1,.51.14l.45.69a9.21,9.21,0,0,1,3.39-.57c0-.14,0-.39,0-.7A18.56,18.56,0,0,0,97.38,39Z"/><rect class="cls-9" x="20.4" y="40.22" width="94.73" height="1.3" transform="translate(135.53 81.74) rotate(-180)"/><rect class="cls-10" x="19.84" y="39.07" width="1.38" height="67.71"/><rect class="cls-10" x="110.42" y="39.07" width="1.38" height="67.71"/><path class="cls-2" d="M45.29,43a19,19,0,0,1,0,4.26c-.1.57-.21,1.5-.89,1.66a7.31,7.31,0,0,1-3.87,3.5h0a4.33,4.33,0,0,1-.69.33,2.49,2.49,0,0,1-.69.17c-.47,0-.72-.58-1-1a1.45,1.45,0,0,1-.29-1,.77.77,0,0,1-.21-.42,1,1,0,0,1,.3-.83A2.28,2.28,0,0,1,39.24,49a2.5,2.5,0,0,1,1,0l0,0,.41-.35a5.41,5.41,0,0,1,1.49-.89l.79-.32h0c-.3-1.4.47-2.7.83-4a4.12,4.12,0,0,0,.06-1.25,1.31,1.31,0,0,0-.11-.35c-.17-.31-.47-.4-.54-.87a1,1,0,0,1,.33-1h0a.35.35,0,0,1,.29-.07c.13-.19.32-.32.51-.22a.21.21,0,0,1,.12,0,.22.22,0,0,1,.17.09c.48-.12.79,1,.76,1.41A12.64,12.64,0,0,0,45.29,43Z"/><path class="cls-2" d="M32.84,51.32a1.48,1.48,0,0,1-.3,1c-.25.4-.51,1-1,1a2.08,2.08,0,0,1-.54-.11,4.26,4.26,0,0,1-.85-.38,7,7,0,0,1-.87-.4,7.35,7.35,0,0,1-3-3.09h0c-.67-.15-.79-1.08-.89-1.66a18.31,18.31,0,0,1,0-4.25,16.14,16.14,0,0,0-.12-1.86c0-.4.27-1.53.75-1.41a.19.19,0,0,1,.15-.09.21.21,0,0,1,.13,0,.29.29,0,0,1,.13,0,.45.45,0,0,1,.19,0,.55.55,0,0,1,.28.36c.6.08.54.89.54.89-.06.48-.36.56-.53.87a1.43,1.43,0,0,0-.12.35,4.68,4.68,0,0,0,.07,1.25c.36,1.34,1.13,2.65.83,4l.8.32a6,6,0,0,1,1.9,1.24h0l0,0c.38.36.59.72,1.09.83l.46.11a1.12,1.12,0,0,1,.66.45A1.07,1.07,0,0,1,32.84,51.32Z"/><path class="cls-2" d="M35,76.7a3.81,3.81,0,0,0-.22-1.4h0l-.06-.19v0a3.89,3.89,0,0,1-.26-1.46,2.9,2.9,0,0,0,.27-1.35h0s0-.1,0-.15l0-3.24h0c0-.33,0-.66,0-1a5.45,5.45,0,0,0,0-1.15h0a3.34,3.34,0,0,0-3.29-.86,17.33,17.33,0,0,0,0,2.76c0,.07,0,.13,0,.2,0,.28,0,.45,0,.48a7.3,7.3,0,0,0,.22,1.19,3.41,3.41,0,0,0,.64,1.39,1.49,1.49,0,0,0,0,.21,1.24,1.24,0,0,0,.33.85,13.28,13.28,0,0,1-.38,2,9.13,9.13,0,0,0,.32,3.71A31.27,31.27,0,0,0,33.62,82c.17.44.26.78.81.73s.47-.47.39-.92a9.51,9.51,0,0,1-.35-2.59C34.57,78.37,34.92,77.6,35,76.7Z"/><path class="cls-2" d="M36.44,76.78a4.08,4.08,0,0,1,.24-1.4h0c0-.06,0-.12.07-.19v0A4.09,4.09,0,0,0,37,73.71a2.9,2.9,0,0,1-.25-1.35h0s0-.09,0-.14L36.87,69h0c0-.33,0-.66,0-1a6.08,6.08,0,0,1,.07-1.14h0a3.35,3.35,0,0,1,3.3-.82,17.09,17.09,0,0,1,0,2.77c0,.06,0,.13,0,.19,0,.28,0,.46,0,.48a8.36,8.36,0,0,1-.24,1.19,3.58,3.58,0,0,1-.66,1.39.66.66,0,0,1,0,.2,1.2,1.2,0,0,1-.34.84,12.18,12.18,0,0,0,.35,2,9.16,9.16,0,0,1-.38,3.71,30.44,30.44,0,0,1-1.2,3.31c-.18.44-.28.78-.83.72s-.46-.48-.38-.93a9.06,9.06,0,0,0,.39-2.58C36.81,78.45,36.47,77.68,36.44,76.78Z"/><path class="cls-2" d="M38,49.92l-2.41,2-.09-.26v.26l-2.4-2a1.3,1.3,0,0,0,.91-.47.76.76,0,0,0,.18-.26,2.59,2.59,0,0,0,.22-1.31q0-.15,0-.27a0,0,0,0,1,0,0l-.05-.27L35.5,47v0h.07v0l1.21.32-.05.22v0c0,.08,0,.18,0,.29a2.44,2.44,0,0,0,.17,1.28,1.15,1.15,0,0,0,.21.33A1.34,1.34,0,0,0,38,49.92Z"/><path class="cls-2" d="M37.57,45.3c0,.09,0,.19,0,.29a3.13,3.13,0,0,1-.81,1.93l0,0a1.72,1.72,0,0,1-1.21.54,1.68,1.68,0,0,1-1.15-.48l0,0a3.17,3.17,0,0,1-.86-2.27c0-.15,0-1.11,0-1.74,0-.07.18-.7,1.31-1l.36,0,.16,0,.22,0,.22,0,.16,0,.37,0c1,.22,1.23.71,1.29.89V45C37.56,45.08,37.57,45.19,37.57,45.3Z"/><path class="cls-2" d="M40.12,52.79A8.93,8.93,0,0,1,39,56.37a15.26,15.26,0,0,0-.61,3.88,8.4,8.4,0,0,1-5.87,0,11.72,11.72,0,0,0-.17-1.92,15.87,15.87,0,0,0-.44-2,8.72,8.72,0,0,1-1.08-3.63,10.65,10.65,0,0,1,0-1.47,5.71,5.71,0,0,1,.06-.62,5,5,0,0,1,1-.69,4.5,4.5,0,0,1,.85-.33A4.39,4.39,0,0,1,34,49.45a5.62,5.62,0,0,1,1.51.22,5.24,5.24,0,0,1,1.57-.22,4.63,4.63,0,0,1,2.09.54,5.32,5.32,0,0,1,.93.66,6.22,6.22,0,0,1,.06.65A11.19,11.19,0,0,1,40.12,52.79Z"/><path class="cls-3" d="M29.48,51.8a1.11,1.11,0,0,1,.5-1,2.39,2.39,0,0,1,1-.44l.08,0a2,2,0,0,1,1.76.45.77.77,0,0,1,.21.41,1,1,0,0,1-.27.8,2.22,2.22,0,0,1-1.31.66,2.36,2.36,0,0,1-1,0h0A1.18,1.18,0,0,1,29.48,51.8Z"/><path class="cls-4" d="M40.9,52.3a6,6,0,0,1-.39-1A6.55,6.55,0,0,1,40.27,49a2.35,2.35,0,0,0-1.25,0,2.4,2.4,0,0,0-.92.54,2.64,2.64,0,0,1-5.13,0,2.82,2.82,0,0,0-1.34-.36,2.89,2.89,0,0,0-1.24.24A7.77,7.77,0,0,1,30.45,51a7.38,7.38,0,0,1-.36,1.81l.84.47a8.83,8.83,0,0,0,.24,1.18A9.19,9.19,0,0,0,32,56.37a15.87,15.87,0,0,1,.44,2,11.72,11.72,0,0,1,.17,1.92,8.4,8.4,0,0,0,5.87,0A15.26,15.26,0,0,1,39,56.37a8.93,8.93,0,0,0,1.08-3.58Z"/><path class="cls-2" d="M33.14,44.67a1,1,0,0,0-.15.53c0,.42.24.76.54.76V44.85C33.4,44.38,33.15,44.66,33.14,44.67Z"/><path class="cls-2" d="M37.86,44.67a1,1,0,0,1,.15.53c0,.42-.24.76-.53.76V44.85C37.61,44.38,37.86,44.66,37.86,44.67Z"/><path class="cls-5" d="M33.52,44.74v0s0,0,0,0Z"/><path class="cls-6" d="M37.55,44.7a4.65,4.65,0,0,0,.14-.69,2.42,2.42,0,0,0-.16-1.44,2.69,2.69,0,0,0-1.92-1,2.79,2.79,0,0,0-2,.8,1.08,1.08,0,0,0-.39.88h0a3.93,3.93,0,0,0,.06.72,2.87,2.87,0,0,0,0,.31,4.27,4.27,0,0,0,.16.46,1,1,0,0,1,.11-.55h0A1.67,1.67,0,0,0,34,42.94c.36,1,1.9.55,2.88.77A1.37,1.37,0,0,1,37.38,45,1.74,1.74,0,0,0,37.55,44.7Z"/><path class="cls-7" d="M35,82.77l0,.92a1,1,0,0,1-.46.87l-2,1.23a.93.93,0,0,1-.83.06h0a.9.9,0,0,1-.25-1.47l2.33-2a4.29,4.29,0,0,0,1.07-.07Z"/><path class="cls-7" d="M36.33,82.83l0,.92a1,1,0,0,0,.45.87l2,1.25a.9.9,0,0,0,.83.06h0a.89.89,0,0,0,.27-1.46l-2.31-2a4.52,4.52,0,0,1-1.07-.08Z"/><path class="cls-8" d="M39.12,62.33c0-.08-.12-.49-.29-1v0h0a9.58,9.58,0,0,0-.37-1l0,0a8,8,0,0,1-2.85.44h-.24a8.3,8.3,0,0,1-2.8-.41h0s-.08.19-.2.51h0c-.1.28-.23.7-.38,1.2a17.78,17.78,0,0,0-.54,2.11,9.53,9.53,0,0,0-.15,2.2,9.08,9.08,0,0,1,1.61.25,9.58,9.58,0,0,1,1.75.6l0-.54h0l0,0a.34.34,0,0,1,.23-.14,1.1,1.1,0,0,1,.26,0,1.08,1.08,0,0,0,.71,0h0a.43.43,0,0,1,.51.13l.45.69a9.06,9.06,0,0,1,3.39-.56c0-.14,0-.39,0-.7A19.9,19.9,0,0,0,39.12,62.33Z"/><path class="cls-2" d="M75.39,38.36a17.49,17.49,0,0,0,0,2c0,.43-.45,1.63-.95,1.46a.22.22,0,0,1-.18.08.18.18,0,0,1-.13-.06l-.15,0a.35.35,0,0,1-.21-.07.6.6,0,0,1-.26-.41c-.65-.15-.51-1-.51-1,.12-.51.45-.58.67-.9a1.29,1.29,0,0,0,.15-.37,4.29,4.29,0,0,0,0-1.36c-.24-1.39-.86-2.76-.59-4.15l-.57-.06a6.56,6.56,0,0,1-2.37-.7h0c-.52-.27-.85-.58-1.4-.54a4.52,4.52,0,0,1-.52,0,1.24,1.24,0,0,1-.84-.26,1.18,1.18,0,0,1-.32-.4,1.6,1.6,0,0,1,0-1.18c.14-.51.22-1.24.72-1.34a2.92,2.92,0,0,1,.6-.05,5.12,5.12,0,0,1,1,.14,8.13,8.13,0,0,1,1,.15,8,8,0,0,1,4.1,2.31l.09.1h.14c.85.15.88,1.25.94,1.93A20.51,20.51,0,0,1,75.39,38.36Z"/><path class="cls-2" d="M60.76,31.66a1.22,1.22,0,0,1-1.16.66,4.35,4.35,0,0,1-.52,0c-.56,0-.89.27-1.4.54,0,0,0,0,0,0h0a6.5,6.5,0,0,1-2.37.7l-.56.06c.27,1.39-.36,2.76-.6,4.15a4.64,4.64,0,0,0,0,1.36,1.06,1.06,0,0,0,.16.37c.21.32.55.39.66.9,0,0,.15.88-.51,1a.6.6,0,0,1-.26.41.31.31,0,0,1-.21.07.35.35,0,0,1-.14,0,.22.22,0,0,1-.13.06.19.19,0,0,1-.18-.08c-.51.17-.95-1-.95-1.46a15.57,15.57,0,0,0-.05-2,20.51,20.51,0,0,1-.4-4.63c.06-.68.1-1.78.94-1.93h.15l.08-.1a8.08,8.08,0,0,1,4.1-2.31,8.39,8.39,0,0,1,1-.15,5.11,5.11,0,0,1,1-.14,2.88,2.88,0,0,1,.59.05c.5.1.58.83.72,1.34A1.65,1.65,0,0,1,60.76,31.66Z"/><path class="cls-2" d="M63.3,59.21A4.1,4.1,0,0,0,63,57.68h0a1.72,1.72,0,0,1-.07-.21v0a4,4,0,0,1-.31-1.58,3.15,3.15,0,0,0,.27-1.48h0c0-.05,0-.1,0-.15l-.09-3.55h0c0-.36,0-.72,0-1.07a7.23,7.23,0,0,0-.08-1.25h0a3.67,3.67,0,0,0-3.61-.89,17.8,17.8,0,0,0,0,3c0,.07,0,.14,0,.22a4.87,4.87,0,0,0,0,.52,7.67,7.67,0,0,0,.26,1.3A3.85,3.85,0,0,0,60.21,54a1.64,1.64,0,0,0,0,.23,1.37,1.37,0,0,0,.38.91,14.4,14.4,0,0,1-.38,2.19,9.77,9.77,0,0,0,.42,4.05A33.94,33.94,0,0,0,61.93,65c.19.49.3.86.9.79s.5-.52.41-1A10,10,0,0,1,62.82,62C62.9,61,63.27,60.19,63.3,59.21Z"/><path class="cls-2" d="M64.67,59.34a4.32,4.32,0,0,1,.27-1.53h0a1.72,1.72,0,0,0,.07-.21v0A4.26,4.26,0,0,0,65.34,56a3.22,3.22,0,0,1-.28-1.48h0a.77.77,0,0,1,0-.15l.1-3.55h0c0-.36,0-.72,0-1.07a6.35,6.35,0,0,1,.09-1.25h0a3.7,3.7,0,0,1,3.61-.89,18.92,18.92,0,0,1,0,3,1.49,1.49,0,0,1,0,.21,4.23,4.23,0,0,1,0,.52,7.48,7.48,0,0,1-.26,1.3,3.73,3.73,0,0,1-.73,1.51,1.79,1.79,0,0,1,0,.23,1.33,1.33,0,0,1-.38.92,14.85,14.85,0,0,0,.38,2.19,10.08,10.08,0,0,1-.42,4A35.45,35.45,0,0,1,66,65.16c-.2.49-.3.86-.9.79s-.5-.52-.41-1a10.36,10.36,0,0,0,.43-2.82C65.07,61.17,64.7,60.32,64.67,59.34Z"/><path class="cls-2" d="M68.8,33.07A9.66,9.66,0,0,1,67.62,37,16.81,16.81,0,0,0,67,41.23a9.22,9.22,0,0,1-6.42,0,12.86,12.86,0,0,0-.18-2.11A17.1,17.1,0,0,0,59.87,37a9.46,9.46,0,0,1-1.17-4,11.19,11.19,0,0,1,0-1.6c0-.43.06-.67.06-.67A5.48,5.48,0,0,1,59.81,30a4.46,4.46,0,0,1,.93-.36,4.86,4.86,0,0,1,1.37-.19,6.16,6.16,0,0,1,1.64.23,5.86,5.86,0,0,1,1.72-.23,4.89,4.89,0,0,1,2.28.58,5.52,5.52,0,0,1,1,.73s0,.26.07.7A13.67,13.67,0,0,1,68.8,33.07Z"/><path class="cls-3" d="M57.18,32a1.22,1.22,0,0,1,.54-1.1,2.81,2.81,0,0,1,1.11-.48h.08a2.16,2.16,0,0,1,1.93.48,1,1,0,0,1,.23.46,1,1,0,0,1-.3.86,2.42,2.42,0,0,1-1.43.73,2.77,2.77,0,0,1-1.12,0h0A1.27,1.27,0,0,1,57.18,32Z"/><path class="cls-4" d="M70,32.77a2.52,2.52,0,0,1,.69-3.37A3.82,3.82,0,0,0,67.6,29a3.28,3.28,0,0,0-1,.59,2.88,2.88,0,0,1-5.6,0,2,2,0,0,0-1.55-1A1.85,1.85,0,0,0,58.2,29l-1.41.57A2.71,2.71,0,0,1,58,31a2.63,2.63,0,0,1-.14,1.82l.89.15a9.46,9.46,0,0,0,1.17,4,17.1,17.1,0,0,1,.49,2.14,12.86,12.86,0,0,1,.18,2.11,9.22,9.22,0,0,0,6.42,0A16.81,16.81,0,0,1,67.62,37a8.53,8.53,0,0,0,.84-2,9,9,0,0,0,.32-2.44Z"/><path class="cls-2" d="M66.33,28.68a1,1,0,0,1,.17.58c0,.46-.26.84-.58.84V28.88C66.06,28.37,66.33,28.67,66.33,28.68Z"/><path class="cls-7" d="M63.48,65.84l.07,1a1.08,1.08,0,0,1-.49,1L60.9,69.18a1,1,0,0,1-.9.08h0a1,1,0,0,1-.3-1.6l2.5-2.22a4.57,4.57,0,0,0,1.18-.09Z"/><path class="cls-7" d="M64.54,66l-.06,1a1.06,1.06,0,0,0,.49,1l2.17,1.37a1,1,0,0,0,.9.07h0a1,1,0,0,0,.29-1.6l-2.52-2.21a4.8,4.8,0,0,1-1.17-.08Z"/><path class="cls-8" d="M67.71,43.5c0-.09-.13-.54-.32-1.13v0h0c-.22-.68-.4-1.08-.4-1.08l0,0a9.23,9.23,0,0,1-3.12.48h-.26a9.32,9.32,0,0,1-3.06-.46h0a5.74,5.74,0,0,0-.23.56h0c-.09.3-.24.76-.41,1.31-.35,1.14-.53,1.72-.59,1.94a8.38,8.38,0,0,0-.19,2.77l1.12.27c.87.21,1.71.44,2.53.67l.11-.6h0l0,0a.4.4,0,0,1,.25-.15.92.92,0,0,1,.29,0,1.3,1.3,0,0,0,.78,0h0a.48.48,0,0,1,.56.16l.49.75a9.15,9.15,0,0,1,1.3-.39,10.59,10.59,0,0,1,2.27-.26,8.92,8.92,0,0,0-.28-2.06C68.32,45.13,67.9,44.26,67.71,43.5Z"/><path class="cls-2" d="M65.12,31.79h0a4.78,4.78,0,0,1-2.59.06h0l0,0a2.43,2.43,0,0,1,0,.3,1.76,1.76,0,0,0,2.51,0Z"/><path class="cls-2" d="M66,29.38c0,.1,0,.2,0,.31a3.29,3.29,0,0,1-.88,2.1l0,0a1.87,1.87,0,0,1-1.32.59,1.84,1.84,0,0,1-1.27-.53l0,0a3.47,3.47,0,0,1-.95-2.48V27.47c0-.07.2-.76,1.43-1l.4-.05.18,0H64l.18,0,.4.05c1.06.24,1.35.78,1.42,1V29C66,29.13,66,29.25,66,29.38Z"/><path class="cls-2" d="M61.18,28.68a1,1,0,0,0-.17.58c0,.46.27.84.59.84V28.88C61.46,28.37,61.19,28.67,61.18,28.68Z"/><path class="cls-5" d="M61.59,28.76v0Z"/><path class="cls-6" d="M66,28.72a5.84,5.84,0,0,0,.15-.76A2.67,2.67,0,0,0,66,26.39a2.92,2.92,0,0,0-2.1-1.1,3,3,0,0,0-2.14.87,1.21,1.21,0,0,0-.43,1h0a3.72,3.72,0,0,0,.06.79,1.86,1.86,0,0,0,.06.34,2.55,2.55,0,0,0,.18.5,1,1,0,0,1,.11-.6h0a1.87,1.87,0,0,0,.37-1.36c.39,1.1,2.07.61,3.14.84a1.53,1.53,0,0,1,.59,1.46A4.05,4.05,0,0,0,66,28.72Z"/><path class="cls-2" d="M90.53,27.69a1.15,1.15,0,0,1-.3.74c-.1.13-.22.24-.32.36-.35.37-.33.78-.44,1.29,0,0,0,0,0,0v0a6,6,0,0,1-.89,2.08c-.17.24-.33.48-.48.71l-.24.4,0,.06c.61,1.31.12,2.76.05,4.16a4.27,4.27,0,0,0,.2,1.24,1.27,1.27,0,0,0,.19.31c.22.27.54.29.7.74,0,0,.23.79-.34,1a.57.57,0,0,1-.2.41.31.31,0,0,1-.18.09.3.3,0,0,1-.13,0,.19.19,0,0,1-.11.07.2.2,0,0,1-.18,0c-.44.21-1-.83-1-1.22a13.18,13.18,0,0,0-.27-1.84,18.54,18.54,0,0,1-.88-4.17c0-.55-.1-1.39.4-1.74a7.43,7.43,0,0,1,.78-4.1,6,6,0,0,1,.5-.82,4.54,4.54,0,0,1,.49-.79,2.81,2.81,0,0,1,.38-.39c.36-.29.92.08,1.36.28a1.42,1.42,0,0,1,.83.7A1.08,1.08,0,0,1,90.53,27.69Z"/></g></svg>