<svg xmlns="http://www.w3.org/2000/svg" viewBox="0 0 130 130"><defs><style>.cls-1{fill:#ff7f35;}.cls-2{fill:#474747;}.cls-2,.cls-3,.cls-4,.cls-5{stroke:#000;stroke-linecap:round;stroke-linejoin:round;stroke-width:0.25px;}.cls-3{fill:#fec16e;}.cls-4{fill:#8dc540;}.cls-5{fill:#b9aebc;}</style></defs><g id="Layer_2" data-name="Layer 2"><circle class="cls-1" cx="65" cy="65" r="65"/></g><g id="Layer_1" data-name="Layer 1"><path class="cls-2" d="M64.65,73.88c-6.49,2.46-12,5.63-16.32,11.9l-.17,0v7.93h-2c1.53.45,2.63.73,2.63.73,11.55,1.57,23.82-10,23.82-10A58.67,58.67,0,0,0,64.65,73.88Z"/><path class="cls-3" d="M95.17,54.84,90.73,57,93.55,63c.94-1,1.84-1.15,2.49.25.44,1,1,1.7,2,1.6a3.29,3.29,0,0,0,1.81-1c.71.24,1.56-.54,1.56-.54s.3.91,1,1,.9-1.19.9-1.19.33-.93,2.07-1.37a4.2,4.2,0,0,0,2.29-1.15C107.33,49,101.3,51.77,95.17,54.84Z"/><path class="cls-2" d="M103.38,58.15s-.69-1.13-3.12-.31l-.33-.59S101.65,56.18,101,55s-2.57-.15-2.57-.15-2.65,2-3.66,1.63a2.62,2.62,0,0,1-.59-.35.82.82,0,0,1-.07-1.21,15,15,0,0,0,2.33-3,5.31,5.31,0,0,1,3.72-2.53s5.23-.73,7.35,3.54a9.27,9.27,0,0,1,.39,7.43.78.78,0,0,1-1.31.25,2.54,2.54,0,0,1-.56-1.12c-.42-1.74-1.29-2.52-1.92-1.94A9.56,9.56,0,0,1,103.38,58.15Z"/><path class="cls-4" d="M72.57,84.62a34.84,34.84,0,0,0,5.89-4.86,22.85,22.85,0,0,0,10.72-9.37,17.24,17.24,0,0,0,2.17-4.87,3.73,3.73,0,0,1,1.74-2,4.61,4.61,0,0,0,.47-3.74,10.42,10.42,0,0,0-1.48-3.48s-3-1.57-5.22-1.13-4.14,2-5.93,2.22a5.29,5.29,0,0,0-2.59.92,5.66,5.66,0,0,1,2,3.68,14.66,14.66,0,0,1-.6,4.48l3.68-.14-4.69.16-5.9.18s-2.19,1.17-2.69,2.7c-.94,2.86-5.53,4.47-5.53,4.47C63.91,78.47,70.48,80.55,72.57,84.62Z"/><path class="cls-3" d="M78.34,58.33a21.59,21.59,0,0,0-3.1,1.93,8,8,0,0,1-3.91,1.19,4.66,4.66,0,0,0-1.36.33c-2.27.89-9.07,3.61-11.13,4.88a21.06,21.06,0,0,0-4,3.09A6.09,6.09,0,0,0,52,69.69c-2.82,1-3.09,3.26-2,4a2.62,2.62,0,0,0,1.06.42,7.31,7.31,0,0,0,2.6-.08,22.19,22.19,0,0,0,3.87-1.31S60.11,71.6,61.79,71a28.16,28.16,0,0,1,5.52-1.19c2.43-.43,6.78-2.75,6.78-2.75a32.6,32.6,0,0,0,5.64-.53,14.66,14.66,0,0,0,.6-4.48A5.66,5.66,0,0,0,78.34,58.33Z"/><path class="cls-2" d="M40.55,94.19H52.23c8.12-7.9,7.51-23.94,7.51-23.94a58.86,58.86,0,0,0-13.16-1C44.17,75.8,43,82,44.83,89.41A17.41,17.41,0,0,0,40.55,94.19Z"/><path class="cls-3" d="M52.29,33.77,51,38.52l6.42,1.87c-.16-1.39.34-2.15,1.82-1.72,1,.3,2,.34,2.54-.47a3.35,3.35,0,0,0,.41-2.05c.63-.38.61-1.53.61-1.53s.89.37,1.4-.08-.31-1.46-.31-1.46-.49-.86.33-2.46a4.2,4.2,0,0,0,.64-2.48C55.86,20.76,54,27.13,52.29,33.77Z"/><path class="cls-2" d="M60.18,29.77s-1.31-.23-2.28,2.14l-.67-.14s.33-2-1-2.31-1.8,1.84-1.8,1.84-.19,3.35-1.18,3.83a2.62,2.62,0,0,1-.65.22.82.82,0,0,1-1-.75,14.58,14.58,0,0,0-.76-3.75,5.32,5.32,0,0,1,.54-4.46s2.89-4.42,7.5-3.22a9.32,9.32,0,0,1,5.86,4.59.78.78,0,0,1-.67,1.15,2.49,2.49,0,0,1-1.22-.32c-1.59-.82-2.75-.67-2.72.18A9.21,9.21,0,0,1,60.18,29.77Z"/><path class="cls-4" d="M59.89,70.38a35.34,35.34,0,0,0,.21-7.64,22.86,22.86,0,0,0,0-14.24,17.31,17.31,0,0,0-2.25-4.82,3.77,3.77,0,0,1-.35-2.62A4.59,4.59,0,0,0,55,38.25a10.23,10.23,0,0,0-3.6-1.17s-3.13,1.2-4.27,3.19-1.23,4.42-2.23,5.93a5.12,5.12,0,0,0-1,2.55,5.63,5.63,0,0,1,4.07.92,14.83,14.83,0,0,1,3,3.4l2.32-2.87-3,3.64-3.74,4.57s-.57,2.42.26,3.8c1.54,2.59-.26,7.1-.26,7.1C49.56,72.87,55.44,69.28,59.89,70.38Z"/><path class="cls-3" d="M43.87,48.75a21.07,21.07,0,0,0-.59,3.61,8.16,8.16,0,0,1-1.67,3.73A4.67,4.67,0,0,0,41,57.32c-.82,2.3-3.24,9.22-3.64,11.61a21.09,21.09,0,0,0-.27,5,6.1,6.1,0,0,0-2,2.18c-1.11,2.76.43,4.46,1.65,4.12a2.8,2.8,0,0,0,1-.53,7.4,7.4,0,0,0,1.65-2,22.83,22.83,0,0,0,1.55-3.79s.94-2.71,1.56-4.4a29.59,29.59,0,0,1,2.73-4.93c1.27-2.12,2.39-6.92,2.39-6.92a32.56,32.56,0,0,0,3.3-4.6,14.83,14.83,0,0,0-3-3.4A5.63,5.63,0,0,0,43.87,48.75Z"/><path class="cls-2" d="M57.1,70.26a58.67,58.67,0,0,1,11,7.27S60.45,92.54,49.05,95c0,0-8.48.8-11.88-.08a12.63,12.63,0,0,0-5.51,1.41c-.92-2.17-1.15-4,.82-4.88a11.63,11.63,0,0,0,4.21-1c2.47-1,6.13-3.32,9.05-3.47C47.71,79.61,51.81,74.77,57.1,70.26Z"/><path class="cls-3" d="M79.43,42.06,76,45.57l4.69,4.77c.54-1.29,1.35-1.72,2.43-.61.74.75,1.54,1.25,2.44.83A3.32,3.32,0,0,0,86.89,49c.74,0,1.28-1,1.28-1s.6.76,1.26.61.45-1.42.45-1.42,0-1,1.49-2a4.28,4.28,0,0,0,1.77-1.86C88.9,32.45,84.17,37.11,79.43,42.06Z"/><path class="cls-2" d="M88.27,42.42s-1-.83-3,.76l-.51-.45S86,41.14,85,40.22s-2.47.72-2.47.72-1.81,2.83-2.9,2.77a2,2,0,0,1-.67-.13.81.81,0,0,1-.47-1.11,14.92,14.92,0,0,0,1.17-3.65,5.33,5.33,0,0,1,2.65-3.63s4.68-2.44,8.12.86a9.32,9.32,0,0,1,2.86,6.87.78.78,0,0,1-1.15.67,2.5,2.5,0,0,1-.9-.87c-1-1.49-2.07-1.93-2.46-1.17A9.38,9.38,0,0,1,88.27,42.42Z"/><path class="cls-4" d="M68.18,77.72a35.39,35.39,0,0,0,3.91-6.56A22.86,22.86,0,0,0,79,58.72a17.42,17.42,0,0,0,.4-5.31,3.66,3.66,0,0,1,1-2.45,4.66,4.66,0,0,0-.82-3.69A10.5,10.5,0,0,0,77,44.5s-3.31-.48-5.29.69-3.23,3.26-4.84,4.09A5.26,5.26,0,0,0,64.76,51a5.67,5.67,0,0,1,3.11,2.79,14.89,14.89,0,0,1,.94,4.42l3.42-1.37-4.36,1.73-5.5,2.16s-1.67,1.83-1.62,3.44c.08,3-3.7,6.08-3.7,6.08C58,74.84,64.84,74.59,68.18,77.72Z"/><path class="cls-3" d="M64.76,51a20.38,20.38,0,0,0-2.27,2.86,8.11,8.11,0,0,1-3.28,2.44,4.53,4.53,0,0,0-1.17.76c-1.84,1.61-7.33,6.46-8.85,8.35a21.35,21.35,0,0,0-2.68,4.24,6,6,0,0,0-2.78.93c-2.33,1.87-1.81,4.11-.58,4.4a2.74,2.74,0,0,0,1.14,0,7.43,7.43,0,0,0,2.42-1,22.33,22.33,0,0,0,3.21-2.54s2.14-1.91,3.5-3.07a28.7,28.7,0,0,1,4.8-3c2.14-1.23,5.46-4.88,5.46-4.88a33.15,33.15,0,0,0,5.13-2.4,14.89,14.89,0,0,0-.94-4.42A5.67,5.67,0,0,0,64.76,51Z"/><path class="cls-5" d="M33,91.51a3,3,0,0,0-.88.88,1.53,1.53,0,0,0,.25,1.83c.51.61,2,.88,1.53,1.25l-.26.17a9,9,0,0,0-2,2.65l-.07.11a6.89,6.89,0,0,0-.51,3.41,1.83,1.83,0,0,1-.2,1.19,1.71,1.71,0,0,1-1.85.5c-.81-.48-1.1-1.38-1.61-2.91a6.18,6.18,0,0,1,.07-3.34,11.15,11.15,0,0,0,.69-3.08c-.09-.91-.11-3.5.64-3.67a10.91,10.91,0,0,1,3.7.37S33.68,91.23,33,91.51Z"/></g></svg>