<svg xmlns="http://www.w3.org/2000/svg" viewBox="0 0 130 130"><defs><style>.cls-1{fill:#848dc6;}.cls-2{fill:#fec16e;}.cls-2,.cls-3,.cls-4,.cls-5{stroke:#000;stroke-linecap:round;stroke-linejoin:round;stroke-width:0.25px;}.cls-3{fill:#8dc540;}.cls-4{fill:#474747;}.cls-5{fill:#ee222b;}</style></defs><g id="Layer_2" data-name="Layer 2"><circle class="cls-1" cx="65" cy="65" r="65"/></g><g id="Layer_1" data-name="Layer 1"><path class="cls-2" d="M71.75,52.36a17.63,17.63,0,0,0,1.46,3.55s.2,3,.38,4.73,1.1,7.51,1.1,7.51.77,5.76,2.21,6.21a14.7,14.7,0,0,0,4.36.13,12,12,0,0,1,2.55,0c.81.17,2,0,2-.47C85.61,72.91,84,72.76,84,72.76l-3.72-1-2-.19a41.43,41.43,0,0,1-.2-7.53c.37-2.36.57-4.35.57-4.35s.27-2.19-.33-3-1.18-4.46-1.18-4.46"/><path class="cls-3" d="M72.64,54.31l0,1.83a12.82,12.82,0,0,0,.6,3.67,6.41,6.41,0,0,1,.45,2.64s1.35.15,2.88.25h.23v-8.4Z"/><path class="cls-4" d="M92.1,59.1c-1,2-1,.69-1.06,2.43s-4.11,2.28-4.71,1.39a1.11,1.11,0,0,1-.15-.36c-.16-.75.65-1.42.65-1.42l-1.07-.09s.15-1.11-1.63-1.23l-.53-.06v-.84h1s1.56-.33,1.78-1.16a1.91,1.91,0,0,0-.52-1.6l-2.82-2V52.47c1,0,2.26,0,2.26,0s.75-1.55,3.27-.54a5.64,5.64,0,0,1,3.21,2.64S93.11,57.12,92.1,59.1Z"/><path class="cls-2" d="M86.18,62.56a22.33,22.33,0,0,1-2.31.27c-.39,0-.87-.85-1.48-.81s-2.16.36-2.16.36l-2.79-8.5,3.1-2.3.65.18a3.26,3.26,0,0,0,1.74.71H83v1.69l2.82,2a1.91,1.91,0,0,1,.52,1.6c-.22.83-1.78,1.16-1.78,1.16h-1v.84l.53.06c1.78.12,1.63,1.23,1.63,1.23l1.07.09S86,61.81,86.18,62.56Z"/><path class="cls-5" d="M29.94,68.24A1.33,1.33,0,0,0,30,69.33a2,2,0,0,0,1.82.52c.68-.09,2-1.36,2-1.36s.52-.62.7-.1a2.33,2.33,0,0,1,.07.25,4.5,4.5,0,0,0,1,1.93l.08.09A4.41,4.41,0,0,0,37.77,72a4,4,0,0,1,1.45.56,1.47,1.47,0,0,1,0,1.33,9.07,9.07,0,0,1-3.38.82,5.33,5.33,0,0,1-2.74-.88,9.63,9.63,0,0,0-2.37-1.33c-.77-.16-2.91-.78-2.87-1.44a8.23,8.23,0,0,1,1.32-2.89S29.66,67.52,29.94,68.24Z"/><path class="cls-2" d="M26,70l-3.24,3.4c.29,4.14,2.93,2.82,6.09.27l1.22-1.89A3.44,3.44,0,0,0,26,70Z"/><path class="cls-5" d="M23.32,73.4a1.8,1.8,0,0,0,.08,1.45,2.68,2.68,0,0,0,2.43.69c.91-.11,2.6-1.8,2.6-1.8s.69-.83.93-.14a3.37,3.37,0,0,1,.1.34,6.07,6.07,0,0,0,1.32,2.57l.1.12a5.82,5.82,0,0,0,2.86,1.76,5.28,5.28,0,0,1,1.93.75,1.92,1.92,0,0,1,0,1.77A12.05,12.05,0,0,1,31.18,82a7.09,7.09,0,0,1-3.64-1.19,13.14,13.14,0,0,0-3.16-1.77c-1-.2-3.88-1-3.82-1.91.1-1.45,1.76-3.84,1.76-3.84S23,72.44,23.32,73.4Z"/><path class="cls-2" d="M75,62.83s.34,1.15.78,2.21a11,11,0,0,1,.83,3.37c.07.9.15,1.93.23,2.7.18,1.73,1.1,7.52,1.1,7.52s.77,5.75,2.21,6.2a14.82,14.82,0,0,0,4.36.14A16.91,16.91,0,0,1,87,84.88c2.29.26,3.17-.21,3.19-1-.06-.31-.86-.43-1.3-.62l-1.35-.64a4.78,4.78,0,0,0-1.92-.52h0a6.4,6.4,0,0,1-1.69-.32,7.48,7.48,0,0,0-1.74-.36h0a1.21,1.21,0,0,1-1.09-1.17,38.46,38.46,0,0,1,.22-5.71c.37-2.36.45-3.63.45-3.63A21.49,21.49,0,0,0,81.49,67c-.19-1-1.12-4.28-1.12-4.28"/><path class="cls-4" d="M60,33.65a18,18,0,0,0-4.67-1.57,8.13,8.13,0,0,0-4.84,1,12.62,12.62,0,0,0-2.79,3.58C46.81,38.33,45.3,41,45.3,41l-3.84,7.11s-1.88,6.76-3.33,7.58c-.27.15-1.44,1-2.47,1.74a22.3,22.3,0,0,0-4.86,4.69c-.15.19-.29.39-.43.59-1.71,2.43-5.56,7.74-5.69,8.21a6.23,6.23,0,0,0,2.28.94c1.12.13,1.83,1.14,2.23,1.26S32,70.58,32,70.58l4.89-4.75,4.06-3.89a24.28,24.28,0,0,0,4.12-3c1.57-1.54,2.25-2.09,2.25-2.09l4.43-4.1a32.3,32.3,0,0,0,2.74-2.38A10.14,10.14,0,0,1,56.27,49l2.28-2.62C63.43,41.77,64.23,37.48,60,33.65Z"/><path class="cls-3" d="M80.4,52.93a10.85,10.85,0,0,1,.11,3.81,7.06,7.06,0,0,0-.07,2.88,10.4,10.4,0,0,0,.25,2.79c.29.45-1.35,1-2.88.85S74.93,63,74.93,63a6.45,6.45,0,0,0-.45-2.65,12.82,12.82,0,0,1-.6-3.67l.06-2-.07,2a45,45,0,0,1-7-2.07,22.21,22.21,0,0,1-5.15-3.72l-2.43-3a1.07,1.07,0,0,0-.45-.94c-.52-.39-.34-.68-.34-.68a13,13,0,0,1,1.73-4.71,5.53,5.53,0,0,0,.66-4.27s0-3-.93-3.65c0,0,.09-.47.7.14A12,12,0,0,0,63,35.23S67.55,37.82,69,39.5a41.24,41.24,0,0,1,3.46,3,3.87,3.87,0,0,0,2,1.17s4.23.88,5.38,3.71a5.17,5.17,0,0,0,.67,1.61c.36.39.33.32.45.52A2.52,2.52,0,0,1,80.4,52.93Z"/></g></svg>