<svg xmlns="http://www.w3.org/2000/svg" viewBox="0 0 130 130"><defs><style>.cls-1{fill:#c4b098;}.cls-2{fill:#fec16e;}.cls-2,.cls-3,.cls-4,.cls-5{stroke:#000;stroke-linecap:round;stroke-linejoin:round;stroke-width:0.25px;}.cls-3{fill:#474747;}.cls-4{fill:#6fcee0;}.cls-5{fill:#ee222b;}</style></defs><g id="Layer_2" data-name="Layer 2"><circle class="cls-1" cx="65" cy="65" r="65"/></g><g id="Layer_1" data-name="Layer 1"><path class="cls-2" d="M78.06,43,78,48.52l-7.49,0c.6-1.45.3-2.42-1.43-2.41-1.18,0-2.21-.24-2.58-1.3a3.69,3.69,0,0,1,.19-2.33c-.56-.6-.18-1.83-.18-1.83s-1.07.12-1.48-.52.78-1.47.78-1.47.79-.78.41-2.75a4.7,4.7,0,0,1,.08-2.87C78.25,27.9,78.27,35.33,78.06,43Z"/><path class="cls-3" d="M70.82,36.25s1.47.16,1.79,3l.75.06s.28-2.25,1.81-2.17,1.36,2.53,1.36,2.53-.82,3.66.09,4.49a2.62,2.62,0,0,0,.63.43.92.92,0,0,0,1.26-.51,16.51,16.51,0,0,1,2-3.8,6,6,0,0,0,.81-5s-1.74-5.65-7.08-5.79a10.45,10.45,0,0,0-7.72,3.13.88.88,0,0,0,.37,1.45,2.78,2.78,0,0,0,1.4,0c2-.39,3.17.13,2.88,1A9.15,9.15,0,0,0,70.82,36.25Z"/><path class="cls-2" d="M55,57.67s-1.65,1.81-6.1,1.33-11.67-2.28-12.47-1.7-1.53.69-3,.44a2.21,2.21,0,0,1-1.8-1.55s-.6-.86-2.45-.53c-1.59.29-.84-.85-.84-.85s-1.06-.46-.45-1c.76-.73,3.05-.67,3.05-.67a20.43,20.43,0,0,1,5.41.53c1.77.64,7.37-.74,7.37-.74A42.49,42.49,0,0,1,52.18,51a49.27,49.27,0,0,1,9.48.17"/><path class="cls-2" d="M72.8,65s-3.75-1.2-5.66-.6-3.89,3.15-3.57,4.95,1.77,5.27,4.1,6.22,8.2.82,8.2.82l5.66-2.9-4-4.46Z"/><path class="cls-3" d="M74.39,64.68s-3.43-.43-3.47.17,1.24.32,2.13,2.34a10.75,10.75,0,0,0,2.37,3.89c.84.74,6.93,1.16,6.93,1.16l2.37-1.48,1.76-1.52-3.14-4.32Z"/><path class="cls-2" d="M69.78,72.21a20.23,20.23,0,0,0-7.87,2.47,13.68,13.68,0,0,1-5.13,1.1C53.56,75.92,47.37,78,44.72,78a8.94,8.94,0,0,1-4.95-1.66c-3.4,2.11-5.29,5.35-.18,7.81A18.1,18.1,0,0,1,45.92,84c3.75.49,7.22,1.31,10.79.71A39.09,39.09,0,0,0,64.1,82.5s2.51-1.28,4.53-.67a51.9,51.9,0,0,0,8.23,2"/><path class="cls-2" d="M85.28,86.56s-.31,1.66,1.48,4.23c-2.13,1.8-4.32,2.8-6.85.2.69-.93-.37-3.21-1.09-4.55"/><path class="cls-3" d="M81.43,69a17.94,17.94,0,0,0-5.6,1.57,21.22,21.22,0,0,1-6,1.67s3.37,5.51,4,9.17,1.75,7.48,1.75,7.48a106.73,106.73,0,0,1,11.08-2.17c4.83-.59,6-.11,9.18-.85S101.48,82.6,102,80C99.55,70.79,92,68,81.43,69Z"/><path class="cls-4" d="M80,44.49s-1.84-1-2.87.5a11.05,11.05,0,0,1-1.83,2.43c-.56.42-5.35,5.9-5.35,5.9s0,7.91,4.24,12.1S81.43,69,81.43,69a2.36,2.36,0,0,1,2.81,1c3.07,3.34,11,10.29,15,10.76s3.07-3.18,3.07-3.18-1.06-4.77-.74-6.31.69-10-6.52-17.29C89.63,48.46,80,44.49,80,44.49Z"/><path class="cls-4" d="M74.53,54.88a4.88,4.88,0,0,0,3.93,1.34c2.65-.14,3.32,1.28,5.44,1.14s4.35-2,4.1-4.39-1.83-3.92-4.63-4.88-3.15-1.34-3.15-1.34-3.39-1.24-5.34.92"/><path class="cls-2" d="M75.72,47.12s-7.24,1-11.92,3.63c0,0-.78.42-3.44.14a13.56,13.56,0,0,0-5.47.81,12.18,12.18,0,0,1-4.48.73,52.07,52.07,0,0,1-5.87-.63,2.88,2.88,0,0,0-1.37-2.31,4.78,4.78,0,0,0-1.24-.43,1.89,1.89,0,0,0-1.61.45l-.36.32s-1.59.45-1.45,1.24a.94.94,0,0,0,.6.64s-.82.15-.66.74a1.13,1.13,0,0,0,.64.63s-.71.18-.6.72a.83.83,0,0,0,.64.68s-.59.74.46,1.37a3.68,3.68,0,0,0,2.24.44L44,56.13s7.66,2.45,14,1.69a14.22,14.22,0,0,0,2.55-.76c1-.45,3.81.13,3.81.13A51.63,51.63,0,0,0,72.3,57a17.89,17.89,0,0,0,3.57-1.43C76.1,52.53,79.55,48.36,75.72,47.12Z"/><path class="cls-5" d="M68.18,95.13A2.76,2.76,0,0,1,70,94.65c1.58-.07,4.06-.3,5.34-1.24l.18-.13c1.09-.8,3.34-2.23,3.93-3.45.08-.15.15-.29.23-.42.52-.87,1.14,1.53,2.19,2.26a2.45,2.45,0,0,0,2.93.15,4.73,4.73,0,0,0,1.27-1.5c.37-1.09,1.08.65,1.08.65s1.38,4.27,1.09,6.26c-.17,1.21-4.27,1.5-5.72,1.48a23.29,23.29,0,0,0-4.83,1,9.78,9.78,0,0,1-5.27.54c-2.5-.6-4-1-4.83-2.17A2.72,2.72,0,0,1,68.18,95.13Z"/><path class="cls-5" d="M35.94,65.48a2.92,2.92,0,0,1,.34,1.89c-.07,3.88,3,8.06,4.13,8.74l.41.26c.83.58-1.61,2.06-2.41,3a2.43,2.43,0,0,0-.36,2.92,4.58,4.58,0,0,0,1.4,1.37c1.06.44-.72,1-.72,1s-4.36,1.08-6.32.65c-1.2-.26-1.2-4.37-1.07-5.82a23.34,23.34,0,0,0-.69-4.88,9.93,9.93,0,0,1-.16-5.31c.78-2.44,1.23-3.87,2.51-4.66A2.75,2.75,0,0,1,35.94,65.48Z"/></g></svg>