<svg xmlns="http://www.w3.org/2000/svg" viewBox="0 0 130 130"><defs><style>.cls-1{fill:#848dc6;}.cls-2{fill:#dadfef;}.cls-2,.cls-3,.cls-4,.cls-5{stroke:#000;stroke-linecap:round;stroke-linejoin:round;stroke-width:0.25px;}.cls-3{fill:#fec16e;}.cls-4{fill:#474747;}.cls-5{fill:#ee222b;}</style></defs><g id="Layer_2" data-name="Layer 2"><circle class="cls-1" cx="65" cy="65" r="65"/></g><g id="Layer_1" data-name="Layer 1"><path class="cls-2" d="M61,84.26v-7.5a2.25,2.25,0,0,0-2.25-2.25H44.28A2.25,2.25,0,0,0,42,76.76v7.5h-2.5v-7.5A4.75,4.75,0,0,1,44.28,72h14.5a4.75,4.75,0,0,1,4.75,4.75v7.5Z"/><path class="cls-2" d="M64,89.26v-7.5a2.25,2.25,0,0,0-2.25-2.25H47.28A2.25,2.25,0,0,0,45,81.76v7.5h-2.5v-7.5A4.75,4.75,0,0,1,47.28,77h14.5a4.75,4.75,0,0,1,4.75,4.75v7.5Z"/><path class="cls-3" d="M29.83,52.7l4.7.55L33.81,59c-1,.2-1.88.51-2.11,1.68-.18,1-.39,1.87-1.33,2.09a3.17,3.17,0,0,1-2-.37c-.57.43-1.58,0-1.58,0s0,.93-.58,1.22-1.19-.8-1.19-.8-.59-.74-2.31-.58a4.08,4.08,0,0,1-2.44-.33C17,51.21,23.3,51.85,29.83,52.7Z"/><path class="cls-4" d="M23.42,58.3s.27-1.25,2.74-1.26l.11-.65s-1.9-.43-1.69-1.73,2.28-.94,2.28-.94,3.05,1,3.84.32a2,2,0,0,0,.42-.5.78.78,0,0,0-.32-1.12,14.13,14.13,0,0,1-3.07-2,5.15,5.15,0,0,0-4.17-1.13s-5,1-5.56,5.53a9,9,0,0,0,2,6.88.75.75,0,0,0,1.27-.19,2.34,2.34,0,0,0,.16-1.2c-.16-1.71.38-2.69,1.13-2.36S23.42,58.3,23.42,58.3Z"/><path class="cls-3" d="M101.09,52.18s-14.44-.52-16.69.42a7.07,7.07,0,0,0-1.48.83,2.68,2.68,0,0,1-1.43.5l-8.12-.09L74,63.4l5.21-1.65a9.91,9.91,0,0,0,5.73-1.5s10.24-3.15,14.88-3,5.75,2.61,5.75,2.61,1.2,2.46,2.29,2a1.28,1.28,0,0,0,.67-1.43l-1-5.23s-1.42-.95-1.27-2.14-.63-3-2-2.67A10.65,10.65,0,0,0,101.09,52.18Z"/><path class="cls-3" d="M104.27,52.6s-15.12-.31-17.41.54a33.26,33.26,0,0,0-3.78,1.65l-6.91.13,1,8.9,5.21-1.65a9.86,9.86,0,0,0,5.73-1.49s10.23-3.15,14.88-3a12.63,12.63,0,0,1,7.44,2.7s2.26,2,3.37,1.59,1.22-.84,1.22-.84a2,2,0,0,0-1.22-1.54,2.85,2.85,0,0,0-.62-1.74,18.61,18.61,0,0,0-2.48-2.21s-1.42-1-1.27-2.14-.63-3-2-2.67A10.65,10.65,0,0,0,104.27,52.6Z"/><path class="cls-4" d="M76.23,53.33a11.91,11.91,0,0,1,.63,6s1.4,4.23.61,6.26c0,0-.86.8-6.14,1.18a34.91,34.91,0,0,1-7.89-.1l-2-11.05.51-2.88s4.45-.81,6.65.89C68.58,53.61,73.52,52.8,76.23,53.33Z"/><path class="cls-3" d="M50.9,63.57s.05,5.64.43,6.7c0,0-2.23.23-3,1.1,0,0-2,0-2,.49s1.1.49,1.69.51,5.81.42,6.75-.77C53.93,67.71,52.81,64.51,50.9,63.57Z"/><path class="cls-3" d="M51.13,78l.09,0a.24.24,0,0,1,.08-.06l.13-.08.07,0"/><path class="cls-3" d="M53.31,78.11s0,0,0,0l.06,0"/><path class="cls-5" d="M63.33,55.43s0-3.43-2.53-3.15S56.16,54.13,54,54.09a17.21,17.21,0,0,1-5.21-1.39,6.12,6.12,0,0,0-2.67-.32s-8.59-2.67-11.29.38-1.69,4.13-1.69,4.13l1.18,2.67a8.11,8.11,0,0,0,4.23,4.16,23,23,0,0,0,10.08,1.67s5.42-1,8.31,0,4.62,2,5.93,1.27.68-2.92.68-2.92Z"/><path class="cls-3" d="M56.88,78.39s-.69,1.67-1.41,1.62-.2-1.77-.2-1.77-1.69,1.67-2.48,1.55.16-1.37.52-1.68c-.43.3-2.09,1.49-3.08,1.44s0-.92.9-1.51a5,5,0,0,1-2.09.75c-1,0-.7-.53-.1-.93a26.75,26.75,0,0,1,2.43-1.2A14.43,14.43,0,0,1,55,75.56a25.2,25.2,0,0,0-.65-4.1,63.89,63.89,0,0,0-3-7.07l-7.46-1.46a4.94,4.94,0,0,1-4.4-.18,4.36,4.36,0,0,1-1.68-1.91,5.07,5.07,0,0,1,.8-5.86A3.53,3.53,0,0,1,42,54a4.15,4.15,0,0,1,2.68,2.06c3.08.92,8,2.6,10.68,4.64A26.05,26.05,0,0,1,58,69.84c.51,5.26.51,6.79.51,6.79A1.59,1.59,0,0,1,56.88,78.39Z"/></g></svg>