<svg xmlns="http://www.w3.org/2000/svg" viewBox="0 0 130 130"><defs><style>.cls-1{fill:#8dc540;}.cls-2{fill:#fec16e;}.cls-2,.cls-3,.cls-4{stroke:#000;stroke-linecap:round;stroke-linejoin:round;stroke-width:0.25px;}.cls-3{fill:#623391;}.cls-4{fill:#474747;}</style></defs><g id="Layer_2" data-name="Layer 2"><circle class="cls-1" cx="65" cy="65" r="65"/></g><g id="Layer_1" data-name="Layer 1"><path class="cls-2" d="M56.65,84.58,60,94.92A3.62,3.62,0,0,0,60.31,96a4.21,4.21,0,0,1,.9,3.55,15.25,15.25,0,0,1-.66,2.91s-.4.81-1.64,0a1.31,1.31,0,0,1-2,.15,1.3,1.3,0,0,1-1.54.28,3.42,3.42,0,0,1-1.51-1.56l-.1-1a2.5,2.5,0,0,1,.94-2.17c.3-.24.62-.5.88-.74.74-.66-.85-3.13-.85-3.13l-3.26-6"/><path class="cls-2" d="M94.91,57a7.87,7.87,0,0,0,4.81,2.12c2.58,0,3.18.17,3.21,1.72a15.33,15.33,0,0,1-.16,2.65s1.55,4.51.49,6.56a9.87,9.87,0,0,1-2.05,2.89s-1,1.19-1.63-.17-1.92-6.82-3.28-8.08S84.11,56.2,82.26,56Z"/><path class="cls-2" d="M64.52,103.81a15.26,15.26,0,0,1-.66,2.92s-.39.81-1.63,0a1.33,1.33,0,0,1-2,.14,1.29,1.29,0,0,1-1.54.29,3.47,3.47,0,0,1-1.51-1.56l-.09-1a2.47,2.47,0,0,1,.92-2.17c.3-.23.63-.5.89-.74.74-.66-.85-3.14-.85-3.14l-3.25-6s-3.67-3.8-4.56-6-2.65-6-2.65-6A28.27,28.27,0,0,1,45.28,76c-.15-.89-1.34-.59-1.59-.51l-.65,1s-.47.79-.93,1.5.58,2.08.18,3.08-2.33.22-2.33.22-.48.82-1.13.79a2.91,2.91,0,0,0-1.47.67s.73,1-.31,1.34-2.91-1-3.46-1.21a.65.65,0,0,0-.46,0,4.64,4.64,0,0,1-1,.32,2.88,2.88,0,0,1-1.37,0,6.75,6.75,0,0,1-4.44-3.64,13.37,13.37,0,0,1-.45-6.91c.46-1.54,2.28-3.1,4.62-4s4.1.31,5,.54a2.88,2.88,0,0,0,1.27,0A7.41,7.41,0,0,0,38,68.89s-.45-1.8-.85-3.28.82-6.5,1.75-8.75a19.63,19.63,0,0,0,.87-2.79A36.91,36.91,0,0,1,41.9,47.8c.28-.63.6-1.35,1-2.16a27.3,27.3,0,0,0,2.47-8.4c5.73-5.77,8.39,1.33,11.49,6.59a19.22,19.22,0,0,1,.49,5.69,12.31,12.31,0,0,1,0,6.89c-1,4.25-1.54,4.38-1.54,4.38s.09,6.54-4.55,10c0,0,1.69,3.92,3,6.3a13.09,13.09,0,0,1,1.1,2.78,5.62,5.62,0,0,0,1.27,2.42C58,83.63,60,88.87,60,88.87L63.3,99.2a3.54,3.54,0,0,0,.33,1.07A4.19,4.19,0,0,1,64.52,103.81Z"/><path class="cls-2" d="M60,88.87,63.3,99.2a3.54,3.54,0,0,0,.33,1.07,4.16,4.16,0,0,1,.89,3.54,15.26,15.26,0,0,1-.66,2.92s-.4.81-1.63,0a1.33,1.33,0,0,1-2,.15,1.29,1.29,0,0,1-1.53.28,3.46,3.46,0,0,1-1.52-1.56l-.09-1a2.46,2.46,0,0,1,.93-2.17c.3-.24.62-.51.88-.74.74-.66-.85-3.14-.85-3.14l-3.25-6"/><path class="cls-2" d="M43.69,75.5h0"/><path class="cls-2" d="M96.8,54.94a7.87,7.87,0,0,0,4.81,2.12c2.58,0,3.18.16,3.21,1.72a14.65,14.65,0,0,1-.17,2.65s1.56,4.51.5,6.56a9.9,9.9,0,0,1-2.05,2.88s-1,1.2-1.63-.16-1.92-6.83-3.28-8.09-6.26-4-8.11-4.24a51.15,51.15,0,0,1-10.6-3.71,10.88,10.88,0,0,0-4-1.19s-9.74-3.29-11.33-6.07S68,34.53,68,34.53s2.43.95,5.22,6.78c0,0,1.89,3.84,4.46,4.51s5.88,0,11.23,3.12A35,35,0,0,1,96.8,54.94Z"/><path class="cls-3" d="M69.21,30.36a14.45,14.45,0,0,0-1,5.12C68.23,38.09,65.8,46,64,47.23c0,0-3-.53-4.24-1.77a7,7,0,0,0-3-1.63s-3.93-.71-5.52-2.25-4.07-6-6-4.33c0,0,.58-10.87,6.45-12.37a9.74,9.74,0,0,1,7.77,1,27.78,27.78,0,0,0,4.17,2.22Z"/><path class="cls-4" d="M34.88,77.58h1.25v1.08l-.68.08c-2.28.15-2.09,1.57-2.09,1.57L32,80.43s1,.86.82,1.82a1.44,1.44,0,0,1-.71,1,2.88,2.88,0,0,1-1.37,0,6.75,6.75,0,0,1-4.44-3.64,13.37,13.37,0,0,1-.45-6.91c.46-1.54,2.28-3.1,4.62-4s4.1.31,5,.54a2.88,2.88,0,0,0,1.27,0l.12,2.25-3.61,2.55a2.46,2.46,0,0,0-.67,2C32.88,77.16,34.88,77.58,34.88,77.58Z"/></g></svg>