<svg xmlns="http://www.w3.org/2000/svg" viewBox="0 0 130 130"><defs><style>.cls-1{fill:#6fcee0;}.cls-2,.cls-6{fill:#fec16e;}.cls-2,.cls-3,.cls-4,.cls-5,.cls-7,.cls-9{stroke:#000;stroke-linecap:round;stroke-linejoin:round;stroke-width:0.25px;}.cls-3{fill:#623391;}.cls-4{fill:#474747;}.cls-5{fill:#dadfef;}.cls-7{fill:#ee222b;}.cls-8{fill:#7c411e;}.cls-9{fill:#1a1a1a;}</style></defs><g id="Layer_2" data-name="Layer 2"><circle class="cls-1" cx="65" cy="65" r="65"/></g><g id="Layer_1" data-name="Layer 1"><path class="cls-2" d="M90.74,63.15a3.9,3.9,0,0,0-.22-1.41h0c0-.07,0-.13-.07-.19v0a3.92,3.92,0,0,1-.27-1.46,2.85,2.85,0,0,0,.28-1.35h0a.59.59,0,0,0,0-.14l0-3.25h0c0-.32,0-.65,0-1a5.4,5.4,0,0,0-.06-1.15h0a3.36,3.36,0,0,0-3.28-.87,16.46,16.46,0,0,0-.05,2.77,1.34,1.34,0,0,1,0,.2c0,.28,0,.45,0,.47a8.42,8.42,0,0,0,.22,1.2A3.54,3.54,0,0,0,88,58.37a1.49,1.49,0,0,0,0,.21,1.24,1.24,0,0,0,.33.84,12.1,12.1,0,0,1-.37,2,8.8,8.8,0,0,0,.32,3.71,31.21,31.21,0,0,0,1.15,3.33c.17.44.26.78.81.73s.47-.47.4-.92a9.51,9.51,0,0,1-.35-2.59C90.34,64.81,90.69,64,90.74,63.15Z"/><path class="cls-2" d="M92.22,63.23a3.62,3.62,0,0,1,.24-1.4h0c0-.07,0-.13.08-.19v0a3.91,3.91,0,0,0,.29-1.45,2.87,2.87,0,0,1-.26-1.36h0a.68.68,0,0,1,0-.14l.09-3.25h0c0-.33,0-.66,0-1a5.3,5.3,0,0,1,.07-1.14h0a3.35,3.35,0,0,1,3.3-.82,17,17,0,0,1,0,2.77c0,.06,0,.13,0,.19,0,.28,0,.45,0,.48a7.38,7.38,0,0,1-.24,1.19A3.4,3.4,0,0,1,95,58.49a1.49,1.49,0,0,1,0,.21,1.21,1.21,0,0,1-.35.84,13.57,13.57,0,0,0,.35,2,9,9,0,0,1-.37,3.71,30.5,30.5,0,0,1-1.21,3.31c-.18.44-.27.78-.82.72s-.46-.48-.38-.93a9.9,9.9,0,0,0,.39-2.59C92.59,64.9,92.25,64.13,92.22,63.23Z"/><path class="cls-3" d="M90.8,69.21l0,.93a1,1,0,0,1-.46.87l-2,1.23a.9.9,0,0,1-.83.05h0a.9.9,0,0,1-.26-1.47l2.33-2a4.08,4.08,0,0,0,1.07-.06Z"/><path class="cls-3" d="M92.11,69.27l0,.93a1,1,0,0,0,.45.87l2,1.25a.9.9,0,0,0,.83.06h0a.88.88,0,0,0,.26-1.46l-2.31-2a4.29,4.29,0,0,1-1.07-.07Z"/><path class="cls-4" d="M94.89,48.78c0-.08-.12-.49-.29-1v0h0c-.21-.62-.37-1-.37-1v0a8,8,0,0,1-2.85.44h-.24a8.14,8.14,0,0,1-2.8-.42h0a5.34,5.34,0,0,0-.21.51h0c-.09.29-.23.71-.37,1.21a18.49,18.49,0,0,0-.55,2.1,11,11,0,0,0-.15,2.21A10.25,10.25,0,0,1,88.7,53a9.91,9.91,0,0,1,1.74.61l.06-.54h0l0,0a.41.41,0,0,1,.23-.13.75.75,0,0,1,.26,0,1.11,1.11,0,0,0,.72,0h0a.44.44,0,0,1,.51.14l.45.69a9.14,9.14,0,0,1,3.38-.57,5.4,5.4,0,0,0,0-.7A18.56,18.56,0,0,0,94.89,48.78Z"/><rect class="cls-5" x="17.91" y="49.97" width="94.73" height="1.3" transform="translate(130.55 101.25) rotate(-180)"/><rect class="cls-5" x="17.36" y="48.82" width="1.38" height="53.71"/><rect class="cls-5" x="107.94" y="48.82" width="1.38" height="53.71"/><path class="cls-2" d="M30.05,62.12c-.25.41-.51,1-1,1a2.08,2.08,0,0,1-.54-.11,4.26,4.26,0,0,1-.85-.38,7,7,0,0,1-.87-.4,7.36,7.36,0,0,1-3-3.1C23.15,59,23,58,22.93,57.46a18.39,18.39,0,0,1,0-4.26,16.14,16.14,0,0,0-.12-1.86c0-.39.27-1.52.75-1.41a.18.18,0,0,1,.15-.08.2.2,0,0,1,.13,0,.28.28,0,0,1,.13,0h0a.33.33,0,0,1,.16,0,.54.54,0,0,1,.28.35c.6.08.54.9.54.9-.06.48-.36.56-.53.87a1.3,1.3,0,0,0-.12.35,4.68,4.68,0,0,0,.07,1.25c.36,1.34,1.12,2.64.83,4L26,58a6,6,0,0,1,1.9,1.23v0h0c.38.37.59.72,1.09.83.15,0,.31.07.46.12a1.15,1.15,0,0,1,.66.44,1.11,1.11,0,0,1,.19.44A1.46,1.46,0,0,1,30.05,62.12Z"/><path class="cls-2" d="M35.46,59.38a2.28,2.28,0,0,1,1.29-.63,2.51,2.51,0,0,1,1,0h0c.13-.13.27-.24.41-.36a5.38,5.38,0,0,1,1.49-.88l.79-.32h0c-.3-1.4.47-2.7.83-4a4.12,4.12,0,0,0,.06-1.25,1.44,1.44,0,0,0-.11-.35c-.17-.31-.47-.39-.54-.87a1,1,0,0,1,.33-1h0a.35.35,0,0,1,.29-.07c.13-.2.32-.32.51-.22a.21.21,0,0,1,.12,0,.2.2,0,0,1,.17.09c.48-.12.79,1,.76,1.41a12.64,12.64,0,0,0-.12,1.86,18.88,18.88,0,0,1,0,4.25c-.1.58-.21,1.51-.89,1.67h0a7.42,7.42,0,0,1-2.65,2.89,8.16,8.16,0,0,1-1.22.61h0a5.41,5.41,0,0,1-.69.33,2.46,2.46,0,0,1-.69.16c-.47.05-.72-.58-1-1a1.47,1.47,0,0,1-.29-1.05.77.77,0,0,1-.21-.41A1,1,0,0,1,35.46,59.38Z"/><path class="cls-2" d="M35.5,59.68l-2.41,2L33,61.44v.25l-2.41-2a1.43,1.43,0,0,0,.92-.47,1.27,1.27,0,0,0,.18-.27,2.68,2.68,0,0,0,.21-1.31q0-.15,0-.27v0c0-.16-.06-.26-.06-.26l1.2-.33v0h.07v0l1.2.33s0,.08,0,.21v0a2,2,0,0,0,0,.3,2.64,2.64,0,0,0,.17,1.27,1.2,1.2,0,0,0,.21.34A1.43,1.43,0,0,0,35.5,59.68Z"/><path class="cls-2" d="M35.08,55.06c0,.09,0,.18,0,.28a3.13,3.13,0,0,1-.8,1.93l0,0a1.71,1.71,0,0,1-1.21.54,1.66,1.66,0,0,1-1.16-.48l0,0A3.16,3.16,0,0,1,31,55.06V53.32c0-.07.18-.71,1.31-1l.36,0,.17,0h.43l.17,0,.36,0c1,.22,1.23.71,1.29.89v1.48A3.25,3.25,0,0,1,35.08,55.06Z"/><path class="cls-2" d="M37.63,60.62a3.15,3.15,0,0,1-1.08,1.79,4.36,4.36,0,0,0-.61,1.94,16.38,16.38,0,0,1-5.87,0,3.33,3.33,0,0,0-.16-1,5.31,5.31,0,0,0-.45-1,3,3,0,0,1-1.07-1.82,2.71,2.71,0,0,1,0-.73,3,3,0,0,1,.06-.31,6.4,6.4,0,0,1,1-.35c.29-.07.58-.12.85-.16A8,8,0,0,1,31.51,59a10,10,0,0,1,1.5.11A9.69,9.69,0,0,1,34.58,59a8.63,8.63,0,0,1,1.31.1,7.25,7.25,0,0,1,.78.17,5.43,5.43,0,0,1,.93.33,2.1,2.1,0,0,1,.07.32A3.44,3.44,0,0,1,37.63,60.62Z"/><path class="cls-6" d="M27,61.56a1.09,1.09,0,0,1,.5-1,2.46,2.46,0,0,1,1-.44h.07a2,2,0,0,1,1.77.44.93.93,0,0,1,.21.42,1,1,0,0,1-.28.79,2.28,2.28,0,0,1-1.31.67,2.65,2.65,0,0,1-1,0h0A1.15,1.15,0,0,1,27,61.56Z"/><path class="cls-7" d="M38.64,61.91a3.63,3.63,0,0,1-.85-3.19,4.92,4.92,0,0,0-1.25,0,3.21,3.21,0,0,0-.93.27,3.08,3.08,0,0,1-2.56,1,3.06,3.06,0,0,1-2.56-1,4.85,4.85,0,0,0-1.35-.18,5.35,5.35,0,0,0-1.23.12,4,4,0,0,1,.53,1.93A3.86,3.86,0,0,1,28,62.74l1.71.67a.27.27,0,0,1,.23,0c.19.07.27.46.16,1a16.38,16.38,0,0,0,5.87,0c0-.12-.16-1,.31-1.33a.46.46,0,0,1,.14-.07Z"/><path class="cls-2" d="M30.66,54.42a.9.9,0,0,0-.15.53c0,.42.23.77.53.77V54.6C30.91,54.14,30.66,54.41,30.66,54.42Z"/><path class="cls-2" d="M35.37,54.42a.9.9,0,0,1,.16.53c0,.42-.24.77-.54.77V54.6C35.12,54.14,35.37,54.41,35.37,54.42Z"/><path class="cls-8" d="M31,54.5v0Z"/><path class="cls-4" d="M35.07,54.46a6.1,6.1,0,0,0,.13-.7A2.42,2.42,0,0,0,35,52.32a2.63,2.63,0,0,0-1.92-1,2.73,2.73,0,0,0-2,.79,1.12,1.12,0,0,0-.39.88h0a3.52,3.52,0,0,0,.07.72,1.65,1.65,0,0,0,0,.32,2.87,2.87,0,0,0,.17.45,1,1,0,0,1,.11-.55h0a1.72,1.72,0,0,0,.33-1.24c.36,1,1.89.55,2.87.77a1.4,1.4,0,0,1,.55,1.34S35,54.66,35.07,54.46Z"/><path class="cls-9" d="M36.63,65.76c0-.06-.12-.33-.29-.7v0h0c-.21-.42-.37-.67-.37-.67v0a12.31,12.31,0,0,1-2.85.3h-.24a12.44,12.44,0,0,1-2.8-.29h0a3.07,3.07,0,0,0-.21.34h0c-.09.19-.23.47-.38.81A10.88,10.88,0,0,0,29,67a5.12,5.12,0,0,0-.15,1.5,13.22,13.22,0,0,1,1.61.16,12.58,12.58,0,0,1,1.75.42l.06-.37h0l0,0a.42.42,0,0,1,.23-.09h.26a1.69,1.69,0,0,0,.71,0h0a.61.61,0,0,1,.52.09l.44.47a13.19,13.19,0,0,1,3.39-.39,3.62,3.62,0,0,0,0-.47A9.77,9.77,0,0,0,36.63,65.76Z"/><path class="cls-2" d="M34,54.46a6.15,6.15,0,0,0,.23,1.84h0c0,.09.05.17.07.25v0a6.52,6.52,0,0,1,.27,1.91,4.76,4.76,0,0,0-.28,1.77h0c0,.06,0,.12,0,.18l0,4.25h0c0,.43,0,.86,0,1.28a10.51,10.51,0,0,0,.06,1.5h0a2.92,2.92,0,0,0,3.38,1.13A28.06,28.06,0,0,0,37.74,65c0-.08,0-.17,0-.25,0-.37,0-.59,0-.63a12.45,12.45,0,0,0-.22-1.56,5.26,5.26,0,0,0-.66-1.82,2.45,2.45,0,0,0,0-.27,1.92,1.92,0,0,0-.34-1.11,20.59,20.59,0,0,1,.39-2.61,14.92,14.92,0,0,0-.33-4.85c-.3-1.47-.75-2.93-1.19-4.35-.17-.58-.27-1-.83-1s-.48.62-.41,1.21a15.37,15.37,0,0,1,.36,3.39C34.38,52.29,34,53.29,34,54.46Z"/><path class="cls-2" d="M32.45,54.35a6.44,6.44,0,0,1-.25,1.84h0c0,.09-.05.17-.08.25v0a6.32,6.32,0,0,0-.3,1.9,4.94,4.94,0,0,1,.27,1.78h0a1.09,1.09,0,0,1,0,.18L32,64.57h0c0,.43,0,.86,0,1.28a9.18,9.18,0,0,1-.08,1.5h0a2.92,2.92,0,0,1-3.39,1.07,29,29,0,0,1,0-3.62,2.28,2.28,0,0,1,0-.26c0-.36,0-.59,0-.62a12.05,12.05,0,0,1,.25-1.56,5.16,5.16,0,0,1,.68-1.81,2.45,2.45,0,0,1,0-.27,1.87,1.87,0,0,1,.35-1.1,22.85,22.85,0,0,0-.35-2.62,14.86,14.86,0,0,1,.38-4.84c.32-1.46.79-2.91,1.24-4.33.18-.58.28-1,.85-.94s.47.62.39,1.22A15.22,15.22,0,0,0,32,51C32.07,52.17,32.42,53.19,32.45,54.35Z"/><path class="cls-3" d="M33.9,46.53l0-1.21a1.35,1.35,0,0,1,.47-1.13l2.05-1.61a.76.76,0,0,1,.85-.08h0a1.35,1.35,0,0,1,.26,1.93L35.12,47a3.66,3.66,0,0,0-1.11.09Z"/><path class="cls-3" d="M32.56,46.45l0-1.2a1.37,1.37,0,0,0-.46-1.14l-2-1.63a.74.74,0,0,0-.85-.09h0A1.34,1.34,0,0,0,29,44.32L31.34,47a3.4,3.4,0,0,1,1.1.1Z"/><path class="cls-2" d="M58.28,62c-.14.5-.22,1.24-.72,1.33a2.32,2.32,0,0,1-.59,0,4.44,4.44,0,0,1-1-.13,8.39,8.39,0,0,1-1-.15,8,8,0,0,1-4.1-2.32l-.08-.09h-.15c-.84-.15-.88-1.26-.94-1.93a20.65,20.65,0,0,1,.4-4.64,15.38,15.38,0,0,0,.05-2c0-.43.44-1.63.95-1.46a.2.2,0,0,1,.18-.09.24.24,0,0,1,.13.07.37.37,0,0,1,.14,0,.32.32,0,0,1,.21.08A.6.6,0,0,1,52,51c.66.14.51,1,.51,1-.11.51-.45.57-.66.89a1.25,1.25,0,0,0-.16.37,4.75,4.75,0,0,0,0,1.37c.24,1.38.87,2.76.6,4.15l.56,0a6.71,6.71,0,0,1,2.37.71h0c.51.26.84.57,1.39.54a4.58,4.58,0,0,1,.53,0,1.28,1.28,0,0,1,.83.26,1.32,1.32,0,0,1,.33.4A1.68,1.68,0,0,1,58.28,62Z"/><path class="cls-2" d="M66.28,45.08a7.2,7.2,0,0,1-1,.08,6.72,6.72,0,0,1-2.59-.51,1.53,1.53,0,0,1-.08-.6c0-.17,0-.35,0-.52l-.09-1.72s0,0,0-.07h0a.87.87,0,0,1,.28-.71l0-.14a4.56,4.56,0,0,0-.31-1.44v0a1.67,1.67,0,0,0-.08-.2h0a4.38,4.38,0,0,1-.27-1.54c0-1,.4-1.82.49-2.77a10.42,10.42,0,0,0-.43-2.82c-.08-.49-.2-1,.42-1s.7.31.9.79a34.1,34.1,0,0,1,1.32,3.62,9.9,9.9,0,0,1,.41,4c-.07.48-.28,1.15-.35,1.76h0a.22.22,0,0,0,0,.08c.22.12.37.27.37.45a.15.15,0,0,1,0,.11,1.71,1.71,0,0,1,.73.73,2.05,2.05,0,0,1,.26.62s0,.11.05.25,0,.07,0,.11A4.44,4.44,0,0,1,66.28,45.08Z"/><path class="cls-2" d="M60.31,34.78c.09.95.45,1.8.48,2.77a4.16,4.16,0,0,1-.26,1.54h0l-.08.2s0,0,0,0a4.52,4.52,0,0,0-.31,1.59s0,0,0,0a.85.85,0,0,1,.24.74.56.56,0,0,0,0,.07l-.1,1.72c0,.17,0,.34,0,.51a1.56,1.56,0,0,1-.08.61,6.65,6.65,0,0,1-2.58.5,7.24,7.24,0,0,1-1-.08,4.16,4.16,0,0,1,0-1.46s0-.06,0-.1l.05-.25a2.44,2.44,0,0,1,.27-.63,1.85,1.85,0,0,1,.72-.73.36.36,0,0,1,0-.11c0-.17.16-.32.37-.44a11.57,11.57,0,0,1-.33-1.9,11.23,11.23,0,0,1,.42-4,32,32,0,0,1,1.33-3.61c.19-.48.3-.85.9-.79s.5.53.41,1A10.42,10.42,0,0,0,60.31,34.78Z"/><path class="cls-2" d="M56.64,59.39a9.5,9.5,0,0,1,1.18-3.91,16.79,16.79,0,0,0,.66-4.24,9.16,9.16,0,0,1,6.42,0,12.83,12.83,0,0,0,.18,2.1,18.36,18.36,0,0,0,.48,2.14,9.34,9.34,0,0,1,1.18,4,11.19,11.19,0,0,1,0,1.6c0,.43-.06.67-.06.67a5.48,5.48,0,0,1-1.08.76,4.68,4.68,0,0,1-.93.36,4.86,4.86,0,0,1-1.37.19,6.16,6.16,0,0,1-1.64-.23A5.91,5.91,0,0,1,60,63a5.22,5.22,0,0,1-1.42-.22,4.9,4.9,0,0,1-.86-.36,5.08,5.08,0,0,1-1-.73s0-.26-.07-.7A13.67,13.67,0,0,1,56.64,59.39Z"/><path class="cls-6" d="M68.26,60.47a1.2,1.2,0,0,1-.55,1.1,2.71,2.71,0,0,1-1.1.48h-.08a2.16,2.16,0,0,1-1.93-.48.91.91,0,0,1-.23-.46,1,1,0,0,1,.3-.86,2.42,2.42,0,0,1,1.43-.73,2.78,2.78,0,0,1,1.12,0h0A1.28,1.28,0,0,1,68.26,60.47Z"/><path class="cls-7" d="M55.48,59.69a2.61,2.61,0,0,1,.31,1.87,2.56,2.56,0,0,1-1,1.5,3.79,3.79,0,0,0,3,.42,3.34,3.34,0,0,0,1-.59,2.88,2.88,0,0,1,5.6,0,2,2,0,0,0,1.55,1,1.85,1.85,0,0,0,1.24-.41l1.41-.57a2.66,2.66,0,0,1-1.16-1.51,2.72,2.72,0,0,1,.13-1.82l-.88-.15a9.34,9.34,0,0,0-1.18-4,18.36,18.36,0,0,1-.48-2.14,12.83,12.83,0,0,1-.18-2.1,9.16,9.16,0,0,0-6.42,0,16.79,16.79,0,0,1-.66,4.24,8.53,8.53,0,0,0-.84,2,8.62,8.62,0,0,0-.32,2.44Z"/><path class="cls-2" d="M59.11,63.78a1,1,0,0,1-.17-.58c0-.46.26-.84.58-.84v1.22C59.38,64.09,59.11,63.79,59.11,63.78Z"/><path class="cls-3" d="M62,31.06l-.07-1a1.06,1.06,0,0,1,.49-.95l2.16-1.38a1,1,0,0,1,.9-.08h0a1,1,0,0,1,.3,1.6l-2.5,2.22a4.48,4.48,0,0,0-1.17.09Z"/><path class="cls-3" d="M60.93,31l.06-1a1,1,0,0,0-.49-1l-2.17-1.37a1,1,0,0,0-.9-.07h0a1,1,0,0,0-.29,1.6l2.52,2.21a4.8,4.8,0,0,1,1.17.08Z"/><path class="cls-2" d="M73.3,58.73c-.06.67-.09,1.78-.94,1.93h-.15l-.08.09A8,8,0,0,1,68,63.08a8.13,8.13,0,0,1-1,.15,4.43,4.43,0,0,1-1,.13,2.36,2.36,0,0,1-.6,0c-.5-.09-.58-.83-.72-1.33a1.62,1.62,0,0,1,0-1.19,1.19,1.19,0,0,1,1.16-.66,4.53,4.53,0,0,1,.52,0c.55,0,.88-.28,1.4-.54h0a6.78,6.78,0,0,1,2.37-.71l.57,0c-.27-1.39.35-2.77.59-4.15a4.39,4.39,0,0,0,0-1.37,1.58,1.58,0,0,0-.15-.37c-.22-.32-.55-.38-.67-.89,0,0-.14-.89.51-1a.6.6,0,0,1,.26-.41.37.37,0,0,1,.21-.08.42.42,0,0,1,.15,0,.19.19,0,0,1,.13-.07.23.23,0,0,1,.18.09c.5-.17,1,1,1,1.46a17.28,17.28,0,0,0,0,2A20.65,20.65,0,0,1,73.3,58.73Z"/><path class="cls-4" d="M57.73,49c0,.09.13.54.32,1.13v0h0c.23.68.41,1.08.41,1.08l0,0a9.23,9.23,0,0,1,3.12-.48h.26a9.32,9.32,0,0,1,3.06.46h0s.09-.2.23-.56h0c.09-.3.24-.76.41-1.31.35-1.14.53-1.71.59-1.94a8.16,8.16,0,0,0,.18-2.77l-1.12-.27c-.86-.21-1.7-.43-2.52-.67l-.11.6h0l0,0a.4.4,0,0,1-.25.15.93.93,0,0,1-.29,0,1.3,1.3,0,0,0-.78,0h0a.49.49,0,0,1-.56-.15l-.49-.75a10.74,10.74,0,0,1-1.3.38,10.59,10.59,0,0,1-2.27.26,8.92,8.92,0,0,0,.28,2.06C57.12,47.33,57.54,48.2,57.73,49Z"/><path class="cls-2" d="M60.31,60.67h0a4.77,4.77,0,0,1,2.59-.06h0l0,0q0-.14,0-.3a1.76,1.76,0,0,0-2.51,0Z"/><path class="cls-2" d="M64.26,63.78a1,1,0,0,0,.17-.58c0-.46-.27-.84-.59-.84v1.22C64,64.09,64.25,63.79,64.26,63.78Z"/><path class="cls-8" d="M63.85,63.7v0Z"/><path class="cls-4" d="M64.14,65.23v.11a1.21,1.21,0,0,1-.43,1,3,3,0,0,1-2.14.87,2.88,2.88,0,0,1-2.1-1.1,2.59,2.59,0,0,1-.18-1.57,5.84,5.84,0,0,1,.15-.76v-.3c0-.11,0-.23,0-.35s0-.21,0-.32a3.34,3.34,0,0,1,.87-2.1l0,0a1.88,1.88,0,0,1,1.32-.6,1.8,1.8,0,0,1,1.26.53l0,0a3.48,3.48,0,0,1,1,2.49v.81a2.22,2.22,0,0,1,.1.31,2,2,0,0,1,.06.34A4.21,4.21,0,0,1,64.14,65.23Z"/><path class="cls-2" d="M99.43,43.67a19.14,19.14,0,0,1-.83,4.17,15.18,15.18,0,0,0-.25,1.85c0,.39-.57,1.44-1,1.23a.18.18,0,0,1-.17.06.21.21,0,0,1-.11-.07.33.33,0,0,1-.14,0,.28.28,0,0,1-.18-.09.51.51,0,0,1-.2-.39c-.58-.2-.35-1-.35-1,.15-.46.47-.48.69-.75a1.07,1.07,0,0,0,.18-.32,4.34,4.34,0,0,0,.19-1.24c-.08-1.39-.59-2.84,0-4.16v0c-.1-.18-.2-.35-.31-.52s-.31-.47-.49-.71a6.09,6.09,0,0,1-.91-2.07v0a0,0,0,0,1,0,0c-.12-.51-.1-.92-.46-1.29-.1-.11-.22-.22-.32-.35a1.13,1.13,0,0,1-.31-.73,1.32,1.32,0,0,1,.08-.47,1.48,1.48,0,0,1,.82-.71c.44-.2,1-.58,1.36-.29a2.4,2.4,0,0,1,.39.39,3.93,3.93,0,0,1,.5.77,8.36,8.36,0,0,1,.51.82,7.29,7.29,0,0,1,.81,4.15C99.52,42.18,99.44,43.09,99.43,43.67Z"/><path class="cls-2" d="M93.76,36.37l-2.41,2-.09-.26v.26l-2.4-2a1.38,1.38,0,0,0,.91-.47,1.51,1.51,0,0,0,.18-.26,2.58,2.58,0,0,0,.21-1.31c0-.1,0-.2,0-.27v0a2.63,2.63,0,0,0-.06-.27l1.2-.32v0h.07v0l1.2.32s0,.08,0,.21v0c0,.09,0,.19,0,.3a2.61,2.61,0,0,0,.17,1.27,1.08,1.08,0,0,0,.21.34A1.41,1.41,0,0,0,93.76,36.37Z"/><path class="cls-2" d="M93.34,31.75c0,.09,0,.19,0,.29a3.1,3.1,0,0,1-.8,1.92l0,0a1.65,1.65,0,0,1-2.37.07l0,0a3.17,3.17,0,0,1-.87-2.27V30c0-.07.18-.7,1.31-1l.36,0,.17,0,.22,0,.21,0,.17,0,.36,0c1,.22,1.23.71,1.3.89v1.47C93.34,31.53,93.34,31.64,93.34,31.75Z"/><path class="cls-2" d="M95.89,39.24a8.75,8.75,0,0,1-1.07,3.58,15.26,15.26,0,0,0-.61,3.88,8.44,8.44,0,0,1-5.88,0,11.74,11.74,0,0,0-.16-1.92,14.75,14.75,0,0,0-.45-2,8.69,8.69,0,0,1-1.07-3.64,10.75,10.75,0,0,1,0-1.46c0-.39.06-.62.06-.62a4.67,4.67,0,0,1,1-.69,3.84,3.84,0,0,1,.84-.33,4.46,4.46,0,0,1,1.26-.18,5.17,5.17,0,0,1,1.5.22,5.29,5.29,0,0,1,1.57-.22,4.83,4.83,0,0,1,1.31.21,4.34,4.34,0,0,1,.78.33,4.67,4.67,0,0,1,.93.66s0,.24.07.65A11.46,11.46,0,0,1,95.89,39.24Z"/><path class="cls-6" d="M85.26,38.25a1.08,1.08,0,0,1,.5-1,2.22,2.22,0,0,1,1-.44l.07,0a2,2,0,0,1,1.77.45.85.85,0,0,1,.21.41,1,1,0,0,1-.27.79,2.31,2.31,0,0,1-1.32.67,2.65,2.65,0,0,1-1,0h0A1.18,1.18,0,0,1,85.26,38.25Z"/><path class="cls-2" d="M88.92,31.11a1,1,0,0,0-.15.54c0,.42.24.76.53.76V31.3C89.17,30.83,88.92,31.11,88.92,31.11Z"/><path class="cls-2" d="M93.64,31.11a1,1,0,0,1,.15.54c0,.42-.24.76-.54.76V31.3C93.38,30.83,93.63,31.11,93.64,31.11Z"/><path class="cls-8" d="M89.29,31.19v0Z"/><path class="cls-4" d="M93.33,31.15a3.6,3.6,0,0,0,.13-.69A2.34,2.34,0,0,0,93.3,29a2.67,2.67,0,0,0-1.92-1,2.74,2.74,0,0,0-2,.8,1.11,1.11,0,0,0-.39.88h0a3.16,3.16,0,0,0,.06.73,1.06,1.06,0,0,0,0,.31,2.11,2.11,0,0,0,.16.46,1,1,0,0,1,.11-.55h0a1.68,1.68,0,0,0,.33-1.24c.36,1,1.9.55,2.87.77a1.36,1.36,0,0,1,.55,1.33S93.24,31.35,93.33,31.15Z"/><path class="cls-2" d="M88,37.45a1.17,1.17,0,0,1-.3.74c-.1.12-.22.24-.32.35-.35.37-.33.78-.44,1.3v0A6,6,0,0,1,86.08,42c-.17.24-.33.47-.48.71l-.24.4,0,.05c.61,1.32.12,2.77,0,4.17a4.17,4.17,0,0,0,.2,1.23,1.35,1.35,0,0,0,.19.32c.22.27.54.29.7.74,0,0,.23.78-.34,1a.54.54,0,0,1-.2.4.26.26,0,0,1-.18.09.29.29,0,0,1-.13,0,.26.26,0,0,1-.11.07.2.2,0,0,1-.18-.05c-.44.21-1-.83-1-1.22A13,13,0,0,0,84.09,48a18.54,18.54,0,0,1-.88-4.17c0-.55-.1-1.4.4-1.75A7.39,7.39,0,0,1,84.39,38a6,6,0,0,1,.5-.82,3.9,3.9,0,0,1,.49-.79,2.35,2.35,0,0,1,.38-.39c.36-.3.92.08,1.36.27A1.47,1.47,0,0,1,88,37,1,1,0,0,1,88,37.45Z"/><path class="cls-7" d="M96.68,38.75a2.29,2.29,0,0,1,1.59-.58,3.57,3.57,0,0,0-1.9-2.57,2.42,2.42,0,0,0-1.57-.1,2.26,2.26,0,0,0-.93.54,2.64,2.64,0,0,1-5.12,0,2.48,2.48,0,0,0-1.28-.48,2.64,2.64,0,0,0-1.5.38,4.39,4.39,0,0,0-1.92,2.79,2.28,2.28,0,0,1,1.5.37,2.47,2.47,0,0,1,.93,2.08l.34-.69c0,.16.08.31.13.46a11.59,11.59,0,0,0,.77,1.89,14.75,14.75,0,0,1,.45,2,11.74,11.74,0,0,1,.16,1.92,8.44,8.44,0,0,0,5.88,0,15.26,15.26,0,0,1,.61-3.88A3.4,3.4,0,0,0,95.58,41c0-.18,0-.52.1-.54s.21.26.31.49A2.46,2.46,0,0,1,96.68,38.75Z"/></g></svg>