<svg xmlns="http://www.w3.org/2000/svg" viewBox="0 0 130 130"><defs><style>.cls-1{fill:#848dc6;}.cls-2{fill:#fec16e;}.cls-2,.cls-3,.cls-4,.cls-5,.cls-6{stroke:#000;stroke-linecap:round;stroke-linejoin:round;stroke-width:0.25px;}.cls-3{fill:#ee222b;}.cls-4{fill:#474747;}.cls-5{fill:#6fcee0;}.cls-6{fill:#dadfef;}</style></defs><g id="Layer_2" data-name="Layer 2"><circle class="cls-1" cx="65" cy="65" r="65"/></g><g id="Layer_1" data-name="Layer 1"><path class="cls-2" d="M64,87a9.6,9.6,0,0,0,0,3.29,17.57,17.57,0,0,1-.41,6.8,18.81,18.81,0,0,0-.19,5.35c-1.1.94-2.13,1-2.9-.6a34.78,34.78,0,0,0-.55-4.2c-1.4-4.43-.9-11.38-.9-11.38"/><path class="cls-3" d="M63.61,100.72c-.18-.08-.36,0-.38.51s.13,1.13-.57,1.22c0,0-.31-1.58-1.42-1.12a1.61,1.61,0,0,0-1.14,1.31l-.59,2.91a4.41,4.41,0,0,0-.51,2.57,2,2,0,0,0,2.3,1.73,2.87,2.87,0,0,0,1.84-1.4,5.52,5.52,0,0,0,.36-2.21.14.14,0,0,1,0-.06.69.69,0,0,1,0-.1,7.9,7.9,0,0,0,.65-2.87C64.24,102,64.12,101.08,63.61,100.72Z"/><path class="cls-2" d="M67.73,87a9.91,9.91,0,0,1,0,3.29,17.77,17.77,0,0,0,.4,6.8,40.91,40.91,0,0,1,.19,5.35c1.11.94,2.14,1,2.91-.6a35.86,35.86,0,0,1,.54-4.2c1.41-4.43.91-11.38.91-11.38"/><path class="cls-3" d="M68.1,100.72c.17-.08.36,0,.38.51s-.13,1.13.56,1.22c0,0,.31-1.58,1.42-1.12a1.64,1.64,0,0,1,1.15,1.31l.58,2.91a4.32,4.32,0,0,1,.51,2.57,2.08,2.08,0,0,1-2.38,1.78,2.73,2.73,0,0,1-1.75-1.45,5.38,5.38,0,0,1-.37-2.21.13.13,0,0,0,0-.06l0-.1a7.7,7.7,0,0,1-.65-2.87C67.46,102,67.59,101.08,68.1,100.72Z"/><path class="cls-4" d="M74.94,85.55c-.58.33-6.27,2-7.21,1.31l-1-.73L66,76.52l-.81,9.61-1,.73c-.94.74-6.62-1-7.21-1.31s0-2.12,0-2.12a77.33,77.33,0,0,1,.52-8.83c.11-1.1.22-2,.29-2.6a3.61,3.61,0,0,0,3.18.17A16.26,16.26,0,0,1,63.85,71c1.79-.3,3.54.68,5.33.85a6.09,6.09,0,0,0,4.59-1.54A13.76,13.76,0,0,1,74.1,72c.06.4.12,1,.2,1.7a85.75,85.75,0,0,1,.61,9.73S75.52,85.22,74.94,85.55Z"/><path class="cls-2" d="M83.73,32.65a3.59,3.59,0,0,0-1.42,2.45c0,.63.25,3.53-2.25,7.56a18.74,18.74,0,0,0-1.92,3.83,6.57,6.57,0,0,1-3.21,4.87,14.23,14.23,0,0,1-1.34,5.16,10.83,10.83,0,0,1-.45,3v0a5.8,5.8,0,0,1-.91,1.85,31.71,31.71,0,0,1,.61,5.94l.16.43c0,.07.05.14.08.23s.05.15.08.24.07.2.1.31.14.43.22.67.15.49.21.75l.09.34a6.09,6.09,0,0,1-4.59,1.54c-1.79-.17-3.54-1.15-5.33-.85A16.26,16.26,0,0,0,61,72.17,3.61,3.61,0,0,1,57.82,72a25.51,25.51,0,0,1,1.27-4.62,30.31,30.31,0,0,1,.6-5.94,6.15,6.15,0,0,1-1-2.22,10.88,10.88,0,0,1-.34-2.7A14,14,0,0,1,57,51.36a6.61,6.61,0,0,1-3.21-4.87,18.74,18.74,0,0,0-1.92-3.83c-2.49-4-2.3-6.93-2.25-7.56a3.59,3.59,0,0,0-1.42-2.45,6,6,0,0,1-1.44-3.56c.08-.52,2.5-.82,3.23-.71s2.83,2.56,2.34,3.17a4.37,4.37,0,0,0-.65,1.78s.65,3.25,1.91,4.45,1.49,3.9,1.49,3.9c2.65,1.2,3.83,5.3,3.83,5.3a6.13,6.13,0,0,1,2.81,1.9h0a10.9,10.9,0,0,1,1.08,1.42c.2.29.49.82.49.82l4.83.12a7.53,7.53,0,0,0,.8-.6h0c.37-.63,2-3.16,4.11-3.66,0,0,1.17-4.1,3.82-5.3,0,0,.24-2.69,1.5-3.9s1.91-4.45,1.91-4.45a4.28,4.28,0,0,0-.66-1.78c-.48-.61,1.65-3.05,2.36-3.17s3.13.19,3.21.71A5.9,5.9,0,0,1,83.73,32.65Z"/><path class="cls-5" d="M73.77,70.35a6.09,6.09,0,0,1-4.59,1.54c-1.79-.17-3.54-1.15-5.33-.85A16.26,16.26,0,0,0,61,72.17,3.61,3.61,0,0,1,57.82,72a25.51,25.51,0,0,1,1.27-4.62,30.31,30.31,0,0,1,.6-5.94,6.15,6.15,0,0,1-1-2.22h0a14.17,14.17,0,0,0,2.08-4.94,3.79,3.79,0,0,1,2.93-3.05c.87,1-.47-.29-.47-.29l5.32-.08c.87.46.83,1.74.83,1.74s-.05,1,1.65,2.85c1.88,2,2.53,1.15,2.6,1.08a8.6,8.6,0,0,1-1.4,4.92,31.71,31.71,0,0,1,.61,5.94l.16.43c0,.07.05.14.08.23s.05.15.08.24.07.2.1.31.14.43.22.67.15.49.21.75Z"/><path class="cls-2" d="M67.93,49.31c.77,1.18.83,3.33-.19,4.3a3.15,3.15,0,0,1-3,.87,1.66,1.66,0,0,1-.9-.76,4.55,4.55,0,0,1-.2-4.17l0,0,4.18-.28Z"/><path class="cls-4" d="M70.05,45.63l-.06.08-.6.82v-.2c0-.43,0-1.33,0-2-.07-.87-.79-1.45-1.27-.82a2.5,2.5,0,0,1-1.11.67,3,3,0,0,1-2.15,0,2.5,2.5,0,0,1-1.11-.67c-.46-.63-1.19,0-1.26.82,0,.67,0,1.57,0,2a1.35,1.35,0,0,1,0,.2l-.61-.84-.05-.08a6.7,6.7,0,0,1-.51-2.8c.2-1.12,1-3.19,4.63-3.19s4.42,2.07,4.61,3.19A6.58,6.58,0,0,1,70.05,45.63Z"/><path class="cls-2" d="M69.62,47.83a5.77,5.77,0,0,1-.44,2,1.4,1.4,0,0,1-.09.17A6.71,6.71,0,0,1,66.89,52a5.25,5.25,0,0,1-1,.06h-.11A5,5,0,0,1,65,52,7,7,0,0,1,62.77,50s0-.05-.05-.09a5.22,5.22,0,0,1-.46-2c-.81-.17-1.64-1.64-1-2.11a.53.53,0,0,1,.64,0l.61.84a1.42,1.42,0,0,0,0-.21c0-.44,0-1.33,0-2,.07-.87.8-1.45,1.27-.82a2.47,2.47,0,0,0,1.1.68,2.88,2.88,0,0,0,2.16,0,2.53,2.53,0,0,0,1.1-.68c.49-.63,1.2,0,1.27.82,0,.68,0,1.57,0,2v.21L70,45.7a.51.51,0,0,1,.62,0C71.24,46.19,70.42,47.66,69.62,47.83Z"/><rect class="cls-6" x="29.55" y="29.38" width="77.3" height="1.78" rx="0.87"/><path class="cls-2" d="M79.6,31.55c-.48-.61,1.65-3.05,2.36-3.17s3.13.19,3.21.71a5.9,5.9,0,0,1-1.44,3.56"/><path class="cls-2" d="M48.19,32.65a6,6,0,0,1-1.44-3.56c.08-.52,2.5-.82,3.23-.71s2.83,2.56,2.34,3.17"/><rect class="cls-4" x="28.23" y="28.55" width="4.66" height="3.44" rx="0.77"/><rect class="cls-4" x="103.51" y="28.55" width="4.66" height="3.44" rx="0.77"/></g></svg>