<svg xmlns="http://www.w3.org/2000/svg" viewBox="0 0 130 130"><defs><style>.cls-1{fill:#cb70ad;}.cls-2{fill:#fec16e;}.cls-2,.cls-3,.cls-4,.cls-5{stroke:#000;stroke-linecap:round;stroke-linejoin:round;stroke-width:0.25px;}.cls-3{fill:#474747;}.cls-4{fill:#ee222b;}.cls-5{fill:#6fcee0;}</style></defs><g id="Layer_2" data-name="Layer 2"><circle class="cls-1" cx="65" cy="65" r="65"/></g><g id="Layer_1" data-name="Layer 1"><path class="cls-2" d="M45.06,64.31a4.43,4.43,0,0,1-3.71,1h-.06C39.77,65,35,66.82,31.5,69A15.4,15.4,0,0,1,25,71.22l-.06,0a1.22,1.22,0,0,1-.52.51l-.24.12L24,71.9l-.13.08-.2.13a3,3,0,0,0-.39.32s0,0,0,0l-.13.18,0,.08s0,0,0,0a.22.22,0,0,0,0,.08v0l0,.07a4.22,4.22,0,0,0,.57.94,14.88,14.88,0,0,0,1.88,1.66c.22.2-.09,0,.1.18,3-.57,8.77-1.64,14.13-2.59a54.2,54.2,0,0,0,10.51-3.06c3.5-2.35-.17-5-2.76-7.69C46.6,63.05,45.73,63.74,45.06,64.31Z"/><path class="cls-3" d="M64.59,55.81A8.76,8.76,0,0,0,54,59.47c-.88,1.46-6.45,2.91-6.45,2.91a6.4,6.4,0,0,0,2.73,6c-.45,4.58.67,5.11.67,5.11a25.48,25.48,0,0,0,7.25-2.16,15,15,0,0,1,4.3-1.69c3.44-.69,8.24-1.2,9.33-1.53Z"/><path class="cls-4" d="M24.87,71.81a1.24,1.24,0,0,0-.54.82c-.15.62.27,1.19,1,1.53s3.28.68,3,1.24a2.26,2.26,0,0,1-.16.26,7,7,0,0,0-.88,2.75v.14a5,5,0,0,0,.56,2.87,4.62,4.62,0,0,1,.66,1.68c-.08.57-1.2,1.27-1.43,1.26-.95-.06-1.93-1.28-3.06-2.44a6.17,6.17,0,0,1-1.4-3,11.1,11.1,0,0,0-.73-3.06c-.47-.78-1.63-3.09-1-3.58a9.6,9.6,0,0,1,3.5-1.14S25.26,71,24.87,71.81Z"/><path class="cls-2" d="M97.48,48.17l-4,1.79,2.24,4.87c.91-.09,1.81-.08,2.33.89s.88,1.55,1.76,1.48a2.93,2.93,0,0,0,1.65-.88c.62.23,1.4-.44,1.4-.44s.25.82.85.91.83-1,.83-1,.32-.83,1.88-1.17a3.75,3.75,0,0,0,2.07-1C108.47,43.25,103,45.59,97.48,48.17Z"/><path class="cls-3" d="M104.72,51.33s-.59-1-2.77-.35l-.29-.54s1.57-.91,1-2-2.28-.2-2.28-.2S98,50,97.09,49.59a2.23,2.23,0,0,1-.52-.32.74.74,0,0,1,0-1.08,12.93,12.93,0,0,0,2.16-2.65,4.74,4.74,0,0,1,3.37-2.16s4.69-.52,6.47,3.34a8.3,8.3,0,0,1,.16,6.64.69.69,0,0,1-1.17.19,2.26,2.26,0,0,1-.47-1c-.34-1.56-1.09-2.28-1.67-1.77S104.72,51.33,104.72,51.33Z"/><path class="cls-5" d="M95.06,51.18a9.4,9.4,0,0,0-7.36-2.86c-1.38,0-2.73.15-4,.3a17.49,17.49,0,0,0-8.07,3.07,22.75,22.75,0,0,1-11,4.18s-.82.47,1.15,7.7c.85,3.12,6.1,4.48,6.1,4.48s7.78-.53,13.47-5.29a12.07,12.07,0,0,0,4.87-2.57,10.1,10.1,0,0,1,3.21-2.33,4.21,4.21,0,0,0,2.38-3A4.89,4.89,0,0,0,95.06,51.18Z"/><path class="cls-2" d="M94.28,55a5.87,5.87,0,0,0-5.35-4.5,8.73,8.73,0,0,0-1.56.11C83,51.51,82.92,57,86.08,59a16.64,16.64,0,0,0,.49,9.43s-.49,7.7.27,11.88c.4,2.21.58,3.71.67,4.63a1.68,1.68,0,0,0,1.4,1.51,21.42,21.42,0,0,0,4.65.18c4.13-.22,5.56-.06,4.12-1.39s-6.13-1.59-6.13-1.59a17.32,17.32,0,0,1,.53-5.08c.66-2,1.36-6,.56-7.88a6.67,6.67,0,0,1,.11-4,9,9,0,0,0,.36-2.25l.07-3s1.5-4.27,1.1-6.34Z"/></g></svg>