<svg xmlns="http://www.w3.org/2000/svg" viewBox="0 0 130 130"><defs><style>.cls-1{fill:#cb70ad;}.cls-2{fill:#c4b098;}.cls-2,.cls-3,.cls-4,.cls-5,.cls-6{stroke:#000;stroke-linecap:round;stroke-linejoin:round;stroke-width:0.25px;}.cls-3{fill:#ee222b;}.cls-4{fill:#fec16e;}.cls-5{fill:#474747;}.cls-6{fill:#6fcee0;}</style></defs><g id="Layer_2" data-name="Layer 2"><circle class="cls-1" cx="65" cy="65" r="65"/></g><g id="Layer_1" data-name="Layer 1"><path class="cls-2" d="M53.9,61.1c-2.23-.1-4.16,3.05-4.35,7.05S51,75.49,53.21,75.6s4.14-3.07,4.33-7.07S56.1,61.2,53.9,61.1Zm-.6,12.55c-1.27-.06-2.19-2.48-2-5.42S52.52,63,53.8,63.05s2.18,2.48,2,5.4S54.56,73.71,53.3,73.65Z"/><path class="cls-3" d="M55.13,41.71l-.58,19.74a.69.69,0,0,1-.71.65h0a.69.69,0,0,1-.65-.71l.59-19.74a.67.67,0,0,1,.71-.64h0A.66.66,0,0,1,55.13,41.71Z"/><path class="cls-4" d="M53.59,73.05S53,74.4,52.44,74.36s-.16-1.43-.16-1.43-1.37,1.35-2,1.25.13-1.11.42-1.36A5.77,5.77,0,0,1,48.19,74c-.78,0,0-.74.74-1.22a4.2,4.2,0,0,1-1.7.6c-.8,0-.56-.43-.08-.75a21.44,21.44,0,0,1,2-1,11.9,11.9,0,0,1,2.94-.89,20.4,20.4,0,0,0-.52-3.32,50.7,50.7,0,0,0-2.45-5.72L43,60.53a4,4,0,0,1-3.56-.15,3.57,3.57,0,0,1-1.36-1.55,4.11,4.11,0,0,1,.65-4.75,2.87,2.87,0,0,1,2.8-.76A3.31,3.31,0,0,1,43.73,55c2.5.74,6.51,2.1,8.65,3.75a21.07,21.07,0,0,1,2.13,7.39c.42,4.25.42,5.49.42,5.49A1.29,1.29,0,0,1,53.59,73.05Z"/><path class="cls-4" d="M36.63,49.32l3.81,2.8L37,56.74c-.94-.3-1.89-.49-2.66.41s-1.27,1.43-2.19,1.16A3.21,3.21,0,0,1,30.59,57c-.7.1-1.37-.79-1.37-.79s-.45.81-1.1.77-.64-1.28-.64-1.28-.15-.93-1.71-1.65a4.07,4.07,0,0,1-2-1.49C26.17,41.65,31.37,45.34,36.63,49.32Z"/><path class="cls-5" d="M28.29,51s.85-.95,3,.25l.42-.5s-1.44-1.31-.62-2.34,2.45.31,2.45.31,2.15,2.4,3.18,2.18a2.06,2.06,0,0,0,.61-.22.79.79,0,0,0,.28-1.13,13.9,13.9,0,0,1-1.67-3.28,5.11,5.11,0,0,0-3.06-3s-4.82-1.61-7.58,2a8.9,8.9,0,0,0-1.67,7,.74.74,0,0,0,1.19.47,2.3,2.3,0,0,0,.73-1c.71-1.56,1.67-2.15,2.15-1.49S28.29,51,28.29,51Z"/><path class="cls-4" d="M98.8,84.15s-12.29-7.6-14.72-7.9a7.33,7.33,0,0,0-1.69,0A2.65,2.65,0,0,1,80.9,76l-7-4.1-4.22,8.6L75,81.62a9.9,9.9,0,0,0,5.72,1.53S91.19,85.49,95.13,88s3.7,5.13,3.7,5.13-.17,2.72,1,2.87c1,.12,1.29-.91,1.29-.91l1.72-5s-.76-1.53,0-2.49.93-2.93-.43-3.31A10.59,10.59,0,0,0,98.8,84.15Z"/><path class="cls-4" d="M101.35,86.09s-13-7.75-15.4-8.15a31.06,31.06,0,0,0-4.09-.43L75.79,74.2l-3.56,8.21,5.35,1.15a9.86,9.86,0,0,0,5.71,1.53s10.45,2.34,14.39,4.8a12.66,12.66,0,0,1,5.13,6s1,2.84,2.14,3,1.48-.13,1.48-.13a2,2,0,0,0-.3-1.94,2.87,2.87,0,0,0,.33-1.82A19.89,19.89,0,0,0,105.39,92s-.76-1.53,0-2.49.94-2.93-.43-3.32A10.6,10.6,0,0,0,101.35,86.09Z"/><path class="cls-5" d="M76.62,72.84a11.86,11.86,0,0,1-2.41,5.51s-.87,4.37-2.57,5.74c0,0-1.14.27-5.92-2a35.2,35.2,0,0,1-6.8-4l3.71-10.61,1.87-2.25s4.27,1.5,5.35,4.07C69.85,69.3,74.54,71,76.62,72.84Z"/><path class="cls-4" d="M42.58,81.88H43"/><path class="cls-4" d="M44.44,83l.06,0h.07"/><path class="cls-6" d="M64.38,68.28s1.69-3-.64-4S58.8,63.6,57,62.51a17.35,17.35,0,0,1-3.84-3.79A6,6,0,0,0,51,57.12s-6.14-6.58-10-5.26-3.52,2.76-3.52,2.76l-.29,2.9a8,8,0,0,0,1.62,5.7,22.76,22.76,0,0,0,7.92,6.45s5.22,1.8,7.22,4.11,3,4,4.52,4,2-2.21,2-2.21Z"/><path class="cls-2" d="M58.7,62.81c-2.74-.13-5.13,3.77-5.36,8.71s1.78,9.06,4.52,9.19S63,76.92,63.2,72,61.42,62.94,58.7,62.81ZM58,78.3c-1.57-.07-2.71-3.06-2.54-6.68s1.58-6.47,3.16-6.4,2.69,3.06,2.52,6.66S59.53,78.37,58,78.3Z"/><path class="cls-3" d="M60.23,38.88l-.72,24.36a.83.83,0,0,1-.88.8h0a.83.83,0,0,1-.79-.87l.72-24.37a.83.83,0,0,1,.88-.79h0A.82.82,0,0,1,60.23,38.88Z"/><path class="cls-4" d="M58.32,77.57s-.69,1.66-1.41,1.61-.2-1.77-.2-1.77S55,79.09,54.23,79s.16-1.37.52-1.68c-.43.3-2.09,1.49-3.08,1.45s0-.92.9-1.52a4.89,4.89,0,0,1-2.09.75c-1,0-.7-.52-.1-.93a26.75,26.75,0,0,1,2.43-1.2,14.43,14.43,0,0,1,3.63-1.1,25.2,25.2,0,0,0-.65-4.1,63.89,63.89,0,0,0-3-7.07l-7.46-1.45a5,5,0,0,1-4.4-.19A4.36,4.36,0,0,1,39.23,60a5.07,5.07,0,0,1,.8-5.86,3.55,3.55,0,0,1,3.45-.95,4.19,4.19,0,0,1,2.68,2.07c3.08.91,8,2.6,10.68,4.63A26.06,26.06,0,0,1,59.47,69C60,74.27,60,75.8,60,75.8A1.6,1.6,0,0,1,58.32,77.57Z"/></g></svg>