<svg xmlns="http://www.w3.org/2000/svg" viewBox="0 0 130 130"><defs><style>.cls-1{fill:#8dc540;}.cls-2{fill:#c4b098;}.cls-2,.cls-3,.cls-4,.cls-5,.cls-6,.cls-7{stroke:#000;stroke-linecap:round;stroke-linejoin:round;stroke-width:0.25px;}.cls-3{fill:#fec16e;}.cls-4{fill:#ee222b;}.cls-5{fill:#474747;}.cls-6{fill:#6fcee0;}.cls-7{fill:#623391;}</style></defs><g id="Layer_2" data-name="Layer 2"><circle class="cls-1" cx="65" cy="65" r="65"/></g><g id="Layer_1" data-name="Layer 1"><path class="cls-2" d="M57.75,33.83c-2.77,0-5,2-5,4.35s2.24,4.36,5,4.36,5-1.95,5-4.36S60.53,33.83,57.75,33.83Zm0,7.5a3.4,3.4,0,0,1-3.62-3.15,3.66,3.66,0,0,1,7.25,0A3.41,3.41,0,0,1,57.75,41.33Z"/><path class="cls-3" d="M65.68,55s-1.53-4.43-3.38-6.16a14.11,14.11,0,0,1-2.86-4.34,1.08,1.08,0,0,1-.06-.71c.18-.84.55-2.84-.09-3.1a16.22,16.22,0,0,0-2.95-.58.87.87,0,0,0-.87.4,3.81,3.81,0,0,0-.69,1.68,3,3,0,0,0,1.14,2.35,2,2,0,0,1,.62.71l2,4.13a1.15,1.15,0,0,1,.12.4c.06.78.38,3.6,1.87,5.29"/><path class="cls-4" d="M58.46,15.53V33.88a.48.48,0,0,1-.49.48h0a.47.47,0,0,1-.48-.48V15.53A.48.48,0,0,1,58,15h0A.49.49,0,0,1,58.46,15.53Z"/><path class="cls-3" d="M75.5,67.05,71.87,67l-.58,3.18a3.17,3.17,0,0,1,2,2.75,1.44,1.44,0,0,0,.8,1.73,2.4,2.4,0,0,0,1.54-.08c.38.39,1.2.16,1.2.16s-.1.71.32,1,1-.49,1-.49a2,2,0,0,1,1.82-.2,3.19,3.19,0,0,0,1.89,0C85.46,67.25,80.56,67.07,75.5,67.05Z"/><path class="cls-5" d="M80.57,72.09s.16-1-1.6-1.67l.1-.49s1.48.23,1.7-.76-1.36-1.32-1.36-1.32-2.48-.12-2.84-.85a1.45,1.45,0,0,1-.16-.47.6.6,0,0,1,.54-.71,11.64,11.64,0,0,0,2.77-.58,3.91,3.91,0,0,1,3.29.37s3.28,2.1,2.42,5.52a6.88,6.88,0,0,1-3.35,4.35.58.58,0,0,1-.86-.49,1.93,1.93,0,0,1,.23-.9c.6-1.18.48-2-.14-2S80.57,72.09,80.57,72.09Z"/><path class="cls-6" d="M75.93,57.79a11.43,11.43,0,0,1,1.24,4.49,10,10,0,0,1-1.24,5.19s-1.4,2.35-5.23,2.76-8-1.11-8.94-.78-.9,1-1.52.41c-.67-7.82-2.85-12.3-7-12.4,0,0,3.54-2.88,11.37-2.55,0,0,3.58,0,4.9,1.69l.8,1.7.74-.19Z"/><path class="cls-3" d="M50.27,83.16a7.16,7.16,0,0,1,1.26,4.73,22.32,22.32,0,0,0,1.61,7.34,60.27,60.27,0,0,1,1.2,7.27,4.15,4.15,0,0,0,2.83,3.68,1.87,1.87,0,0,0,2.51-1.06,13.15,13.15,0,0,1-1.3-6.82,22.06,22.06,0,0,0-.15-6.51l-.28-3s1-4.62-.33-6.24C54.51,82.1,51,81.31,50.27,83.16Z"/><path class="cls-7" d="M55.3,105a5.51,5.51,0,0,0-1.67,2.63c-.16,1.26,3.33,2.78,3.33,2.78a7.76,7.76,0,0,1,2.88,1.6c1.08,1.09,3.09,3,4.88,3s.93-2.07.93-2.07h0a7,7,0,0,1-2.28-2.84c-.66-1.5-1.75-3.54-2.95-4"/><path class="cls-3" d="M53.44,83.15A7.12,7.12,0,0,1,54.18,88,22.38,22.38,0,0,0,55,95.46,53.34,53.34,0,0,1,55.3,105c2.75,2.62,4.31,2.42,5.12,1a13.09,13.09,0,0,1-.55-6.92,22.08,22.08,0,0,0,.55-6.49l0-3s1.51-4.49.35-6.24C57.85,82.3,54.94,81.4,53.44,83.15Z"/><path class="cls-5" d="M53.24,57.46S46,59.32,44.85,64.38s.43,19.1.43,19.1,12.49-1.18,15.51,0a19.5,19.5,0,0,0,0-6.68c-.68-3-1.6-6.15-.55-6.94C62.08,60.11,59.7,56,53.24,57.46Z"/><path class="cls-2" d="M67.54,24.22c-1.6,0-2.87,2.32-2.87,5.19s1.27,5.2,2.87,5.2,2.85-2.33,2.85-5.2S69.12,24.22,67.54,24.22Zm0,9c-.92,0-1.66-1.69-1.66-3.8s.74-3.79,1.66-3.79,1.64,1.7,1.64,3.79S68.44,33.21,67.54,33.21Z"/><path class="cls-3" d="M75.93,57.79A14.64,14.64,0,0,0,73.87,51a7.15,7.15,0,0,1-.74-4,8,8,0,0,0-1.67-4.82l-1.52-4.61a4,4,0,0,1,0-2.49,1.69,1.69,0,0,0-.48-1.89,4.49,4.49,0,0,0-2.63-1.14s.82,1.85-.08,2.22-1.57-1.21-1.57-1.21l-.75.4s-.19.38.81,1.92a2.52,2.52,0,0,0,1.67,2.31A5.36,5.36,0,0,1,68,40.19c.22,1.42-.24,7.05,1,9.33s.53,7.08.53,7.08l-.09,2.3a.58.58,0,0,0,.75.59A12.75,12.75,0,0,0,75.93,57.79Z"/><path class="cls-4" d="M68,15.53v8.92a.48.48,0,0,1-.49.48h0a.48.48,0,0,1-.49-.48V15.53a.49.49,0,0,1,.49-.49h0A.49.49,0,0,1,68,15.53Z"/></g></svg>