<svg xmlns="http://www.w3.org/2000/svg" viewBox="0 0 130 130"><defs><style>.cls-1{fill:#848dc6;}.cls-2{fill:#fff;}.cls-2,.cls-3,.cls-4,.cls-6,.cls-8{stroke:#000;stroke-linecap:round;stroke-linejoin:round;stroke-width:0.25px;}.cls-3{fill:#474747;}.cls-4,.cls-5{fill:#fec16e;}.cls-6{fill:#ee222b;}.cls-7{fill:#7c411e;}.cls-8{fill:#2d3077;}</style></defs><g id="Layer_2" data-name="Layer 2"><circle class="cls-1" cx="65" cy="65" r="65"/></g><g id="Layer_1" data-name="Layer 1"><rect class="cls-2" x="20.71" y="54.32" width="85.55" height="1.7"/><rect class="cls-3" x="34.14" y="46.69" width="3.21" height="17.19"/><rect class="cls-3" x="31.1" y="48.54" width="3.21" height="13.5"/><rect class="cls-3" x="27.88" y="50.45" width="3.21" height="10.27"/><rect class="cls-3" x="89.49" y="46.69" width="3.21" height="17.19"/><rect class="cls-3" x="92.53" y="48.54" width="3.21" height="13.5"/><rect class="cls-3" x="95.74" y="50.45" width="3.21" height="10.27"/><path class="cls-4" d="M57,32.77a2.34,2.34,0,0,1-.4.95,2.51,2.51,0,0,1-1.46,1,9.3,9.3,0,0,1-1,.25c-1.09.25-1.55,1-2.39,1.83l0,0,0,0a12.72,12.72,0,0,1-4.17,2.71c-.6.24-1.17.47-1.73.71h0c.65,3.07-1,5.92-1.82,8.86a9.19,9.19,0,0,0-.15,2.74,2.94,2.94,0,0,0,.25.76c.37.68,1,.87,1.17,1.91,0,0,.14,1.79-1.2,2a1.15,1.15,0,0,1-.59.77.7.7,0,0,1-.35.12H43a.59.59,0,0,1-.28-.1.41.41,0,0,1-.28.11.4.4,0,0,1-.34-.19c-1,.25-1.72-2.23-1.64-3.09A32,32,0,0,0,40.67,50c-.12-3.2-.56-6.13,0-9.33.23-1.27.47-3.3,1.95-3.65a16.16,16.16,0,0,1,6.57-6.78,14.74,14.74,0,0,1,1.92-.89h0A9,9,0,0,1,53,28.56a5.41,5.41,0,0,1,1.17-.24c1-.1,1.58,1.27,2.14,2.16A3.24,3.24,0,0,1,57,32.77Z"/><path class="cls-4" d="M68.18,36.49A4.93,4.93,0,0,0,71,37.88a5.51,5.51,0,0,0,2.27-.07l0,0a10.78,10.78,0,0,0,.9.77,11.32,11.32,0,0,0,3.26,1.94c.61.24,1.18.47,1.74.71h0c-.65,3.07,1,5.92,1.82,8.86a9,9,0,0,1,.14,2.74,2.6,2.6,0,0,1-.25.76c-.37.68-1,.87-1.17,1.91a2.24,2.24,0,0,0,.72,2.13h0a.79.79,0,0,0,.64.15c.27.43.69.7,1.1.48a.45.45,0,0,0,.28.1.47.47,0,0,0,.38-.2c1,.27,1.73-2.22,1.65-3.09A30.3,30.3,0,0,1,84.26,51c.11-3.2.55-6.13,0-9.33-.23-1.27-.48-3.31-2-3.65h0a16,16,0,0,0-5.82-6.33,15.13,15.13,0,0,0-2.67-1.34h0a9.45,9.45,0,0,0-1.51-.72,5.69,5.69,0,0,0-1.52-.36c-1-.1-1.58,1.27-2.14,2.16A3.28,3.28,0,0,0,68,33.77a1.76,1.76,0,0,0-.46.91A2.1,2.1,0,0,0,68.18,36.49Z"/><path class="cls-4" d="M55.18,90.07A8.28,8.28,0,0,0,55.5,87l0,0a3.27,3.27,0,0,1,0-.44v0a8.62,8.62,0,0,1,.26-3.23,6.39,6.39,0,0,0,1.33-2.72h0a2.65,2.65,0,0,0,.11-.3l1.74-6.9h0c.21-.69.42-1.38.61-2.06A13.4,13.4,0,0,0,60,68.8h0a7.38,7.38,0,0,0-6.49-3.67A37.17,37.17,0,0,0,51.89,71c0,.14,0,.29-.08.43-.12.6-.18,1-.19,1a15.43,15.43,0,0,0-.19,2.66A7.67,7.67,0,0,0,52,78.4a3.16,3.16,0,0,0-.16.43,2.67,2.67,0,0,0,.23,2,27.54,27.54,0,0,1-1.91,4,19.83,19.83,0,0,0-1.39,8,68.64,68.64,0,0,0,.6,7.7c.12,1,.12,1.81,1.31,2s1.26-.74,1.36-1.74c.19-2,0-3.8.7-5.69S54.6,91.94,55.18,90.07Z"/><path class="cls-4" d="M70.51,90.18a8.46,8.46,0,0,1-.28-3.11v0a3.28,3.28,0,0,0,0-.43v-.05a8.55,8.55,0,0,0-.21-3.23,6.48,6.48,0,0,1-1.31-2.73h0a2.65,2.65,0,0,1-.11-.3L67,73.39h0l-.59-2.06A13.48,13.48,0,0,1,66,68.86h0a7.36,7.36,0,0,1,6.54-3.59,37.26,37.26,0,0,1,1.56,5.86c0,.14,0,.29.08.43.1.6.16,1,.17,1a16.68,16.68,0,0,1,.16,2.66,7.69,7.69,0,0,1-.62,3.31A2.41,2.41,0,0,1,74,79a2.68,2.68,0,0,1-.26,2A29.49,29.49,0,0,0,75.59,85a19.88,19.88,0,0,1,1.29,8.06,68.87,68.87,0,0,1-.7,7.69c-.13,1-.14,1.81-1.34,2S73.6,102,73.51,101c-.17-2,.07-3.8-.63-5.69S71.07,92.06,70.51,90.18Z"/><path class="cls-4" d="M72.93,37.16A19.43,19.43,0,0,1,70.57,45a33.39,33.39,0,0,0-1.34,8.51c-6.4,2.67-12.87,0-12.87,0A25.78,25.78,0,0,0,56,49.3,35.9,35.9,0,0,0,55,45a19.13,19.13,0,0,1-2.36-8,24.25,24.25,0,0,1-.06-3.22c.06-.85.13-1.34.13-1.34A10.67,10.67,0,0,1,54.89,31a9.42,9.42,0,0,1,1.86-.73,9.78,9.78,0,0,1,2.75-.38,2.09,2.09,0,0,0,.39-.59,5.6,5.6,0,0,0,.47-2.87c0-.22,0-.42-.06-.59a.13.13,0,0,1,0-.06c-.07-.37-.12-.59-.12-.59l2.63-.71v0l.07,0,.09,0v0l2.64.71s0,.18-.1.47v0c0,.18-.06.4-.08.66a5.48,5.48,0,0,0,.37,2.79,2.76,2.76,0,0,0,.46.74,10.62,10.62,0,0,1,2.86.45,9.38,9.38,0,0,1,1.72.72,10.22,10.22,0,0,1,2.05,1.46S73,33,73,33.9A23.46,23.46,0,0,1,72.93,37.16Z"/><path class="cls-5" d="M49.62,35a2.4,2.4,0,0,1,1.09-2.21,5.33,5.33,0,0,1,2.21-1l.17,0a4.31,4.31,0,0,1,3.87,1,1.82,1.82,0,0,1,.45.91,2.09,2.09,0,0,1-.59,1.74,5,5,0,0,1-2.88,1.46,5.61,5.61,0,0,1-2.25-.06h0A2.54,2.54,0,0,1,49.62,35Z"/><path class="cls-6" d="M75.25,39.4c-1.46-1.6-2.25-3.83-1.47-5.57A4.74,4.74,0,0,1,76,31.58c-1.43-2-3.6-3.07-5.5-2.62a4.24,4.24,0,0,0-2,1.18c-.58,1.48-2.16,4.38-5.61,4.38s-5.06-3-5.63-4.42a4.08,4.08,0,0,0-3.1-2,3.86,3.86,0,0,0-2.5.83l-2,.8a9.4,9.4,0,0,1,1.5,7.5l1.5-.17A19.13,19.13,0,0,0,55,45a35.9,35.9,0,0,1,1,4.29,25.78,25.78,0,0,1,.37,4.22s6.47,2.67,12.87,0A33.39,33.39,0,0,1,70.57,45a16.44,16.44,0,0,0,2.28-7.14A6.62,6.62,0,0,0,75.25,39.4Z"/><path class="cls-7" d="M58.45,19.52l0,.05s0-.05,0-.07Z"/><path class="cls-8" d="M52,103l-.42,2a2.11,2.11,0,0,1-1.45,1.59L45.16,108a2,2,0,0,1-1.79-.34l0,0a2,2,0,0,1,.28-3.25l6-2.93a9.74,9.74,0,0,0,2.32.45Z"/><path class="cls-8" d="M73.67,103.05l.41,2a2.13,2.13,0,0,0,1.45,1.59l4.91,1.53a2,2,0,0,0,1.79-.33l0,0a2,2,0,0,0-.26-3.25l-6-3a9.41,9.41,0,0,1-2.31.44Z"/><path class="cls-3" d="M70.74,58.08c-.21-.87-.43-1.63-.64-2.27v0h0c-.45-1.38-.81-2.19-.81-2.19l0,0a18,18,0,0,1-6.25,1h-.52a18.23,18.23,0,0,1-6.14-.92h0s-.19.41-.45,1.13h0a33.76,33.76,0,0,0-1.62,6.5c-.6,2.41-1.19,4.72-1.38,5.39,0,0,5.27,1.19,7.11,2.31l1-1.43h0l.06-.07a.77.77,0,0,1,.49-.3,1.9,1.9,0,0,1,.58,0,2.59,2.59,0,0,0,1.56,0h0a1,1,0,0,1,1.12.31l1,1.5s4.5-1.64,7.43-1.24C73.33,67.67,71.69,61.56,70.74,58.08Z"/><path class="cls-4" d="M67.33,21.23c0,.2,0,.41,0,.63a6.77,6.77,0,0,1-1.76,4.23l-.06.06a3.57,3.57,0,0,1-5.19.14l-.08-.08a7,7,0,0,1-1.89-5c0-.34,0-2.45,0-3.81,0-.15.39-1.54,2.87-2.09l.79-.11.36-.07c.16,0,.31,0,.48,0s.32,0,.48,0l.36.07.79.11c2.12.48,2.7,1.56,2.84,2v3.23C67.32,20.74,67.33,21,67.33,21.23Z"/><path class="cls-4" d="M57.64,19.83A2.1,2.1,0,0,0,57.31,21c0,.92.52,1.67,1.17,1.67V20.23C58.19,19.22,57.65,19.82,57.64,19.83Z"/><path class="cls-4" d="M68,19.83A2.1,2.1,0,0,1,68.31,21c0,.92-.52,1.67-1.17,1.67V20.23C67.43,19.22,68,19.82,68,19.83Z"/><path class="cls-3" d="M67.31,19.92a11.76,11.76,0,0,0,.3-1.53,5.31,5.31,0,0,0-.36-3.15A5.9,5.9,0,0,0,63,13a6,6,0,0,0-4.3,1.75,2.43,2.43,0,0,0-.85,1.92h0A7.55,7.55,0,0,0,58,18.28a3.11,3.11,0,0,0,.11.69,7.21,7.21,0,0,0,.35,1,2.11,2.11,0,0,1,.24-1.21h0a3.71,3.71,0,0,0,.73-2.72c.78,2.2,4.16,1.21,6.3,1.68a3.07,3.07,0,0,1,1.2,2.93A6.91,6.91,0,0,0,67.31,19.92Z"/></g></svg>