<svg xmlns="http://www.w3.org/2000/svg" viewBox="0 0 130 130"><defs><style>.cls-1{fill:#848dc6;}.cls-2{fill:#fec16e;}.cls-2,.cls-3,.cls-4,.cls-5,.cls-6{stroke:#000;stroke-linecap:round;stroke-linejoin:round;stroke-width:0.25px;}.cls-3{fill:#474747;}.cls-4{fill:#623391;}.cls-5{fill:#8dc540;}.cls-6{fill:#c4b098;}</style></defs><g id="Layer_2" data-name="Layer 2"><circle class="cls-1" cx="65" cy="65" r="65"/></g><g id="Layer_1" data-name="Layer 1"><path class="cls-2" d="M86.78,79.6a13.06,13.06,0,0,0-6.13,1.61L79,75.54a2.76,2.76,0,0,0,1.87-4,2.3,2.3,0,0,1,.5-3A3.89,3.89,0,0,1,83.75,68c.43-.76,1.79-.76,1.79-.76s-.46-1,.07-1.65,1.72.33,1.72.33,1,.55,2.9-.45a5,5,0,0,1,2.91-.81C102.05,75.09,94.57,77.42,86.78,79.6Z"/><path class="cls-3" d="M91.33,70.19s.29,1.54-2.48,2.74l.18.79s2.35-.43,2.75,1.14S89.65,77,89.65,77s-3.94.31-4.49,1.48a2.57,2.57,0,0,0-.24.77,1,1,0,0,0,.9,1.11,17.41,17.41,0,0,1,4.44.81,6.3,6.3,0,0,0,5.25-.73s5.14-3.49,4.09-9c-.95-5-4.2-6.75-5.89-7.32a1.08,1.08,0,0,0-1.44.86,3.13,3.13,0,0,0,.38,2c1,1.86.86,3.23-.15,3.22S91.33,70.19,91.33,70.19Z"/><path class="cls-2" d="M77.78,72.81s-1.49-6.16-5.45-6-8.09,3.34-8.09,3.34-.48-.79-2.33-.44S59,69.07,58,69.42a8.82,8.82,0,0,1-2.07.4L42.26,82.07l3.17.41s3.81,2.63,7.44,2.52a19.11,19.11,0,0,1,6.51.93,59,59,0,0,0,13.13.94,10.52,10.52,0,0,0,7-3.59,7.19,7.19,0,0,0,1.83-4C81.73,75.89,79.5,74.59,77.78,72.81Z"/><path class="cls-4" d="M35.52,52.7l-2.84-1.21c-1-.44-3.73-.79-5-1.67s-3-1.37-3.3-.35a3,3,0,0,0,1.41,3.34,19.5,19.5,0,0,1,4.75,4.57c.92,1.58,1.62,3.91,4.22,4s4.09-3,4.09-3"/><path class="cls-2" d="M58,55.8a11.29,11.29,0,0,1-12.39,3.82,35.4,35.4,0,0,0-8.19-1.35,1.58,1.58,0,0,1-1.18-.61c-1.33-1.83-.68-5-.68-5s8.68.82,12.08-.7,8.79-1.11,8.79-1.11c4-1.64,5.57-.35,5.57-.35l1.18,9.17a15.51,15.51,0,0,1-3.21,5.58c-2.54,3-4,4.53-4,4.53l-9.63-2.2-2.85-4.17a12.65,12.65,0,0,1,5.84-3.26"/><path class="cls-5" d="M56.07,69.47s-3-2.27-5.4-2.67a12.1,12.1,0,0,1-6.1-2.56,5.15,5.15,0,0,0-2.12-1.14c-.33-.09-.7-.2-1.09-.34a6.28,6.28,0,0,0-1.73-.5s-.27,4.39-1.19,6.19-2.46,4.8-1.71,7.79,2.55,6.63,8.7,6.24A14.23,14.23,0,0,0,50,78.83a31.65,31.65,0,0,0,1.85-2.69,25.4,25.4,0,0,0,1.77-3.44A7.91,7.91,0,0,1,56.07,69.47Z"/><path class="cls-6" d="M57.91,21.71v8.06a.44.44,0,0,1-.44.44h0a.44.44,0,0,1-.44-.44V21.71a.44.44,0,0,1,.44-.44h0A.44.44,0,0,1,57.91,21.71Z"/><path class="cls-6" d="M57.38,29.1c-1.44,0-2.6,2.65-2.6,5.92s1.16,5.92,2.6,5.92S60,38.29,60,35,58.81,29.1,57.38,29.1Zm0,10.17c-.87,0-1.58-1.91-1.58-4.25s.71-4.25,1.58-4.25S59,32.68,59,35,58.24,39.27,57.38,39.27Z"/><path class="cls-2" d="M79.76,75.59s.26,5.08-3.87,6.49a4.7,4.7,0,0,1-4.43-.68,6.49,6.49,0,0,1-2.18-2.88c-.8-2-2.46-6-3.28-7.52-1.1-2-1.54-6.85-1.54-6.85s-1-3.21-2.15-4.44S60.64,50,60.64,50s0-5.22-1-5.75-1.46-.76-1.64-1.2a4.58,4.58,0,0,0-1.33-1.78.43.43,0,0,1-.18-.52h0a.45.45,0,0,1,.62-.26l1.1.52a.63.63,0,0,0,.9-.57v-.81a.62.62,0,0,0-.47-.61h0a2,2,0,0,0-1.56.14s-.73-.42-.38-1a1.71,1.71,0,0,1,.9-.71,7.61,7.61,0,0,1,3,0,1.27,1.27,0,0,1,.85.59A4.91,4.91,0,0,1,62.43,41a15.48,15.48,0,0,1,1.93,4.89l2,5.29A24.45,24.45,0,0,1,70,59.36c.14.51.27,1,.41,1.47a14.27,14.27,0,0,0,5.08,7.11A11.3,11.3,0,0,1,79.76,75.59Z"/></g></svg>